NewsreaderCaption-MediumItalic.ufo
<glyph name="exclam" format="2">
	<unicode hex="0021"/>
	<advance width="658.2"/>
	<outline>
		<contour>
			<point x="732" y="1371.8" type="line" smooth="yes"/>
			<point x="745.4" y="1411.6"/>
			<point x="726.2" y="1432.8"/>
			<point x="603.6" y="1432.8" type="curve" smooth="yes"/>
			<point x="483.8" y="1432.8"/>
			<point x="453.6" y="1411.6"/>
			<point x="442.6" y="1371.8" type="curve" smooth="yes"/>
			<point x="421.4" y="1297" type="line" smooth="yes"/>
			<point x="407" y="1242.6"/>
			<point x="267" y="603.8"/>
			<point x="237" y="463" type="curve"/>
			<point x="381.4" y="463" type="line"/>
			<point x="438.4" y="603.8"/>
			<point x="688.6" y="1242.6"/>
			<point x="707.4" y="1297" type="curve" smooth="yes"/>
		</contour>
		<contour>
			<point x="256.2" y="290.4" type="curve" smooth="yes"/>
			<point x="112.6" y="290.4"/>
			<point x="43.6" y="198.4"/>
			<point x="43.6" y="90.8" type="curve" smooth="yes"/>
			<point x="43.6" y="19.4"/>
			<point x="87.4" y="-20.4"/>
			<point x="170.2" y="-20.4" type="curve" smooth="yes"/>
			<point x="313.8" y="-20.4"/>
			<point x="382.8" y="71.6"/>
			<point x="382.8" y="178.4" type="curve" smooth="yes"/>
			<point x="382.8" y="250.6"/>
			<point x="339" y="290.4"/>
		</contour>
	</outline>
</glyph>
<glyph name="ampersand" format="2">
	<unicode hex="0026"/>
	<advance width="1622.6"/>
	<outline>
		<contour>
			<point x="1113.8" y="228.8" type="line"/>
			<point x="1235.2" y="346.2"/>
			<point x="1353.8" y="490.8"/>
			<point x="1500" y="745.6" type="curve"/>
			<point x="1645.6" y="767.6" type="line"/>
			<point x="1675.8" y="864" type="line"/>
			<point x="1176.6" y="864" type="line"/>
			<point x="1146.2" y="767.6" type="line"/>
			<point x="1294.6" y="745.6" type="line"/>
			<point x="1211.4" y="495.4"/>
			<point x="1130.8" y="392"/>
			<point x="1042.6" y="299.6" type="curve"/>
			<point x="941.4" y="230.2" type="line"/>
			<point x="829.2" y="151.2"/>
			<point x="738.4" y="128.2"/>
			<point x="633" y="128.2" type="curve" smooth="yes"/>
			<point x="427.6" y="128.2"/>
			<point x="343.2" y="217.2"/>
			<point x="343.2" y="395.4" type="curve" smooth="yes"/>
			<point x="343.2" y="524.2"/>
			<point x="383.4" y="619.2"/>
			<point x="616.2" y="714" type="curve"/>
			<point x="793.8" y="787.4" type="line"/>
			<point x="1179.6" y="890.8"/>
			<point x="1271.4" y="1002.4"/>
			<point x="1271.4" y="1178.8" type="curve" smooth="yes"/>
			<point x="1271.4" y="1327"/>
			<point x="1166" y="1436"/>
			<point x="910.4" y="1436" type="curve" smooth="yes"/>
			<point x="584.4" y="1436"/>
			<point x="450.4" y="1292.8"/>
			<point x="450.4" y="1078" type="curve" smooth="yes"/>
			<point x="450.4" y="972.8"/>
			<point x="489.6" y="888.8"/>
			<point x="579.6" y="736.6" type="curve" smooth="yes"/>
			<point x="1017.2" y="0" type="line"/>
			<point x="1402.4" y="0" type="line"/>
			<point x="1432" y="99.8" type="line"/>
			<point x="1220.4" y="142" type="line"/>
			<point x="780.2" y="877" type="line" smooth="yes"/>
			<point x="714.8" y="985.6"/>
			<point x="686.2" y="1059.2"/>
			<point x="686.2" y="1136.2" type="curve" smooth="yes"/>
			<point x="686.2" y="1237"/>
			<point x="742.8" y="1300.4"/>
			<point x="891" y="1300.4" type="curve" smooth="yes"/>
			<point x="1005.4" y="1300.4"/>
			<point x="1060.8" y="1260.4"/>
			<point x="1060.8" y="1172.2" type="curve" smooth="yes"/>
			<point x="1060.8" y="1041.8"/>
			<point x="1004.2" y="966.2"/>
			<point x="763" y="867" type="curve"/>
			<point x="595.6" y="801.4" type="line"/>
			<point x="175" y="682"/>
			<point x="89.4" y="542.4"/>
			<point x="89.4" y="324.4" type="curve" smooth="yes"/>
			<point x="89.4" y="120.4"/>
			<point x="213.8" y="-22"/>
			<point x="510" y="-22" type="curve" smooth="yes"/>
			<point x="666.2" y="-22"/>
			<point x="836.8" y="10.4"/>
			<point x="1011.8" y="156.2" type="curve"/>
		</contour>
	</outline>
</glyph>
<glyph name="quotesingle" format="2">
	<unicode hex="0027"/>
	<advance width="467.6"/>
	<outline>
		<contour>
			<point x="279.2" y="909.6" type="line"/>
			<point x="413" y="909.6" type="line"/>
			<point x="607.8" y="1369.6" type="line"/>
			<point x="621.4" y="1414" type="line"/>
			<point x="380.4" y="1414" type="line"/>
			<point x="366.8" y="1369.6" type="line"/>
		</contour>
	</outline>
</glyph>
<glyph name="parenleft" format="2">
	<unicode hex="0028"/>
	<advance width="706.8"/>
	<outline>
		<contour>
			<point x="907" y="1391.4" type="curve"/>
			<point x="836.8" y="1488.4" type="line"/>
			<point x="229.8" y="1072"/>
			<point x="109.8" y="751.2"/>
			<point x="109.8" y="387" type="curve" smooth="yes"/>
			<point x="109.8" y="198.2"/>
			<point x="172.4" y="3.6"/>
			<point x="320.4" y="-244.8" type="curve"/>
			<point x="438.8" y="-178.6" type="line"/>
			<point x="350.6" y="2.2"/>
			<point x="319" y="153.4"/>
			<point x="319" y="341.2" type="curve" smooth="yes"/>
			<point x="319" y="713.4"/>
			<point x="455.2" y="1047.6"/>
		</contour>
	</outline>
</glyph>
<glyph name="parenright" format="2">
	<unicode hex="0029"/>
	<advance width="706.8"/>
	<outline>
		<contour>
			<point x="-136.4" y="-147.8" type="curve"/>
			<point x="-66.2" y="-244.8" type="line"/>
			<point x="540.8" y="171.6"/>
			<point x="660.8" y="492.4"/>
			<point x="660.8" y="856.6" type="curve" smooth="yes"/>
			<point x="660.8" y="1045.4"/>
			<point x="598.2" y="1240"/>
			<point x="450.2" y="1488.4" type="curve"/>
			<point x="331.8" y="1422.2" type="line"/>
			<point x="420" y="1241.4"/>
			<point x="451.6" y="1090.2"/>
			<point x="451.6" y="902.4" type="curve" smooth="yes"/>
			<point x="451.6" y="530.2"/>
			<point x="315.4" y="196"/>
		</contour>
	</outline>
</glyph>
<glyph name="asterisk" format="2">
  <advance width="935"/>
  <unicode hex="002A"/>
  <outline>
    <contour>
      <point x="817.0" y="770.8" type="line"/>
      <point x="739.6" y="1009.2" type="line"/>
      <point x="987.1999999999999" y="1037.8" type="line"/>
      <point x="978.8000000000001" y="1158.0" type="line"/>
      <point x="727.8" y="1157.0" type="line"/>
      <point x="777.6" y="1401.0" type="line"/>
      <point x="660.8000000000001" y="1430.4" type="line"/>
      <point x="586.2" y="1192.4" type="line"/>
      <point x="367.0" y="1313.3999999999999" type="line"/>
      <point x="303.8" y="1213.1999999999998" type="line"/>
      <point x="507.0" y="1066.4" type="line"/>
      <point x="323.79999999999995" y="897.4000000000001" type="line"/>
      <point x="399.6" y="806.0" type="line"/>
      <point x="602.4" y="952.4" type="line"/>
      <point x="707.0" y="726.2" type="line"/>
    </contour>
  </outline>
</glyph>
<glyph name="plus" format="2">
	<unicode hex="002B"/>
	<advance width="1200"/>
	<outline>
		<contour>
			<point x="392.2" y="84.4" type="line"/>
			<point x="540.8" y="84.4" type="line"/>
			<point x="805.8" y="948.4" type="line"/>
			<point x="656.4" y="948.4" type="line"/>
		</contour>
		<contour>
			<point x="200.2" y="592.8" type="line"/>
			<point x="153.4" y="440" type="line"/>
			<point x="997.8" y="440" type="line"/>
			<point x="1044.6" y="592.8" type="line"/>
		</contour>
	</outline>
</glyph>
<glyph name="comma" format="2">
  <advance width="560"/>
  <unicode hex="002C"/>
  <outline>
    <contour>
      <point x="-155.4" y="-267.8" type="curve"/>
      <point x="-98.6" y="-362.6" type="line"/>
      <point x="263.40000000000003" y="-143.8"/>
      <point x="347.0" y="-5.4"/>
      <point x="347.0" y="157.0" type="curve" smooth="yes"/>
      <point x="347.0" y="247.39999999999998"/>
      <point x="292.59999999999997" y="291.4"/>
      <point x="203.6" y="291.4" type="curve" smooth="yes"/>
      <point x="89.6" y="291.4"/>
      <point x="16.0" y="206.4"/>
      <point x="16.0" y="132.4" type="curve" smooth="yes"/>
      <point x="16.0" y="94.0"/>
      <point x="100.4" y="65.0"/>
      <point x="100.4" y="-11.399999999999999" type="curve" smooth="yes"/>
      <point x="100.4" y="-77.6"/>
      <point x="48.8" y="-139.4"/>
    </contour>
  </outline>
</glyph>
<glyph name="hyphen" format="2">
  <advance width="810"/>
  <unicode hex="002D"/>
  <outline>
    <contour>
      <point x="175.4" y="614.0" type="line"/>
      <point x="120.2" y="430.0" type="line"/>
      <point x="636.1999999999999" y="430.0" type="line"/>
      <point x="692.4" y="614.0" type="line"/>
    </contour>
  </outline>
</glyph>
<glyph name="period" format="2">
  <advance width="551.4"/>
  <unicode hex="002E"/>
  <outline>
    <contour>
      <point x="224.0" y="300.8" type="curve" smooth="yes"/>
      <point x="85.19999999999999" y="300.8"/>
      <point x="9.200000000000001" y="206.0"/>
      <point x="9.200000000000001" y="93.60000000000001" type="curve" smooth="yes"/>
      <point x="9.200000000000001" y="20.400000000000002"/>
      <point x="53.400000000000006" y="-20.4"/>
      <point x="137.2" y="-20.4" type="curve" smooth="yes"/>
      <point x="276.0" y="-20.4"/>
      <point x="352.0" y="74.4"/>
      <point x="352.0" y="186.0" type="curve" smooth="yes"/>
      <point x="352.0" y="260.0"/>
      <point x="307.8" y="300.8"/>
    </contour>
  </outline>
</glyph>
<glyph name="slash" format="2">
  <advance width="886.4"/>
  <unicode hex="002F"/>
  <outline>
    <contour>
      <point x="-82.4" y="0.0" type="line"/>
      <point x="103.4" y="0.0" type="line"/>
      <point x="1086.6" y="1414.0" type="line"/>
      <point x="901.5999999999999" y="1414.0" type="line"/>
    </contour>
  </outline>
</glyph>
<glyph name="zero" format="2">
	<unicode hex="0030"/>
	<advance width="1350"/>
	<outline>
		<contour>
			<point x="371.2" y="400.8" type="curve" smooth="yes"/>
			<point x="371.2" y="776.6"/>
			<point x="580.4" y="1269.8"/>
			<point x="890.4" y="1269.8" type="curve" smooth="yes"/>
			<point x="1029.6" y="1269.8"/>
			<point x="1094.2" y="1192.4"/>
			<point x="1094.2" y="1013" type="curve" smooth="yes"/>
			<point x="1094.2" y="638.2"/>
			<point x="885" y="145"/>
			<point x="575" y="145" type="curve" smooth="yes"/>
			<point x="435.8" y="145"/>
			<point x="371.2" y="222.4"/>
		</contour>
		<contour>
			<point x="907.2" y="1436" type="curve" smooth="yes"/>
			<point x="353.3982074264" y="1436"/>
			<point x="117.6" y="802.4"/>
			<point x="117.6" y="426.4" type="curve" smooth="yes"/>
			<point x="117.6" y="151.2"/>
			<point x="257.907875895" y="-21.2"/>
			<point x="558.2" y="-21.2" type="curve" smooth="yes"/>
			<point x="1112.0017925736" y="-21.2"/>
			<point x="1347.8" y="612.4"/>
			<point x="1347.8" y="988.4" type="curve" smooth="yes"/>
			<point x="1347.8" y="1263.6"/>
			<point x="1207.492124105" y="1436"/>
		</contour>
	</outline>
</glyph>
<glyph name="one" format="2">
	<unicode hex="0031"/>
	<advance width="1350"/>
	<outline>
		<contour>
			<point x="487.8" y="157.4" type="line"/>
			<point x="218.8" y="97.8" type="line"/>
			<point x="187.8" y="0" type="line"/>
			<point x="948.2" y="0" type="line"/>
			<point x="978.2" y="97.8" type="line"/>
			<point x="746.6" y="157.6" type="line"/>
			<point x="1136.4" y="1430" type="line"/>
			<point x="943" y="1430" type="line"/>
			<point x="435.2" y="1222.4" type="line"/>
			<point x="473.2" y="1074" type="line"/>
			<point x="911.8" y="1203" type="line"/>
			<point x="841.6" y="1313" type="line"/>
		</contour>
	</outline>
</glyph>
<glyph name="colon" format="2">
	<unicode hex="003A"/>
	<advance width="623.8"/>
	<outline>
		<contour>
			<point x="237.8" y="296.2" type="curve" smooth="yes"/>
			<point x="98.6" y="296.2"/>
			<point x="27.4" y="201.6"/>
			<point x="27.4" y="95.4" type="curve" smooth="yes"/>
			<point x="27.4" y="22.6"/>
			<point x="73.2" y="-20.4"/>
			<point x="158.4" y="-20.4" type="curve" smooth="yes"/>
			<point x="297.6" y="-20.4"/>
			<point x="368.8" y="74.2"/>
			<point x="368.8" y="179.6" type="curve" smooth="yes"/>
			<point x="368.8" y="253.2"/>
			<point x="323" y="296.2"/>
		</contour>
		<contour>
			<point x="463.2" y="1050" type="curve" smooth="yes"/>
			<point x="324" y="1050"/>
			<point x="252.8" y="955.4"/>
			<point x="252.8" y="849.2" type="curve" smooth="yes"/>
			<point x="252.8" y="776.4"/>
			<point x="298.6" y="733.4"/>
			<point x="383.8" y="733.4" type="curve" smooth="yes"/>
			<point x="523" y="733.4"/>
			<point x="594.2" y="828"/>
			<point x="594.2" y="933.4" type="curve" smooth="yes"/>
			<point x="594.2" y="1007"/>
			<point x="548.4" y="1050"/>
		</contour>
	</outline>
</glyph>
<glyph name="semicolon" format="2">
	<unicode hex="003B"/>
	<advance width="634.2"/>
	<outline>
		<contour>
			<point x="-139.2" y="-267.8" type="curve"/>
			<point x="-82.4" y="-362.6" type="line"/>
			<point x="279.6" y="-143.8"/>
			<point x="363.2" y="-5.4"/>
			<point x="363.2" y="157" type="curve" smooth="yes"/>
			<point x="363.2" y="247.4"/>
			<point x="308.8" y="291.4"/>
			<point x="219.8" y="291.4" type="curve" smooth="yes"/>
			<point x="105.8" y="291.4"/>
			<point x="32.2" y="206.4"/>
			<point x="32.2" y="132.4" type="curve" smooth="yes"/>
			<point x="32.2" y="94"/>
			<point x="116.6" y="65"/>
			<point x="116.6" y="-11.4" type="curve" smooth="yes"/>
			<point x="116.6" y="-77.6"/>
			<point x="65" y="-139.4"/>
		</contour>
		<contour>
			<point x="474.2" y="1050" type="curve" smooth="yes"/>
			<point x="335" y="1050"/>
			<point x="263.8" y="955.4"/>
			<point x="263.8" y="849.2" type="curve" smooth="yes"/>
			<point x="263.8" y="776.4"/>
			<point x="309.6" y="733.4"/>
			<point x="394.8" y="733.4" type="curve" smooth="yes"/>
			<point x="534" y="733.4"/>
			<point x="605.2" y="828"/>
			<point x="605.2" y="933.4" type="curve" smooth="yes"/>
			<point x="605.2" y="1007"/>
			<point x="559.4" y="1050"/>
		</contour>
	</outline>
</glyph>
<glyph name="less" format="2">
  <advance width="1200.0"/>
  <unicode hex="003C"/>
  <outline>
    <contour>
      <point x="235.2" y="460.40000000000003" type="line"/>
      <point x="1104.6000000000001" y="798.1999999999999" type="line"/>
      <point x="1160.0" y="980.4" type="line"/>
      <point x="178.6" y="589.8" type="line"/>
      <point x="133.4" y="442.0" type="line"/>
      <point x="877.4" y="52.39999999999999" type="line"/>
      <point x="922.8" y="202.4" type="line"/>
      <point x="260.4" y="543.2" type="line"/>
    </contour>
  </outline>
</glyph>
<glyph name="greater" format="2">
  <advance width="1200"/>
  <unicode hex="003E"/>
  <outline>
    <contour>
      <point x="963.4000000000001" y="571.4" type="line"/>
      <point x="94.0" y="234.4" type="line"/>
      <point x="38.599999999999994" y="52.19999999999999" type="line"/>
      <point x="1020.0" y="442.0" type="line"/>
      <point x="1065.2" y="589.8" type="line"/>
      <point x="322.0" y="980.1999999999999" type="line"/>
      <point x="276.6" y="829.4" type="line"/>
      <point x="938.2" y="489.4" type="line"/>
    </contour>
  </outline>
</glyph>
<glyph name="question" format="2">
	<unicode hex="003F"/>
	<advance width="1211.8"/>
	<outline>
		<contour>
			<point x="507.4" y="290.4" type="curve" smooth="yes"/>
			<point x="363.8" y="290.4"/>
			<point x="294.8" y="198.4"/>
			<point x="294.8" y="90.8" type="curve" smooth="yes"/>
			<point x="294.8" y="19.4"/>
			<point x="338.6" y="-20.4"/>
			<point x="421.4" y="-20.4" type="curve" smooth="yes"/>
			<point x="565" y="-20.4"/>
			<point x="634" y="71.6"/>
			<point x="634" y="178.4" type="curve" smooth="yes"/>
			<point x="634" y="250.6"/>
			<point x="590.2" y="290.4"/>
		</contour>
		<contour>
			<point x="694.4" y="1436" type="curve" smooth="yes"/>
			<point x="386.8" y="1436"/>
			<point x="287.6" y="1352.6"/>
			<point x="287.6" y="1249.2" type="curve" smooth="yes"/>
			<point x="287.6" y="1186.4"/>
			<point x="335" y="1143.4"/>
			<point x="405" y="1143.4" type="curve" smooth="yes"/>
			<point x="443.8" y="1143.4"/>
			<point x="506.8" y="1291.4"/>
			<point x="714.4" y="1291.4" type="curve" smooth="yes"/>
			<point x="902" y="1291.4"/>
			<point x="994" y="1178.8"/>
			<point x="994" y="1038.4" type="curve" smooth="yes"/>
			<point x="994" y="864.6"/>
			<point x="901.4" y="788.6"/>
			<point x="542.4" y="814" type="curve"/>
			<point x="463.2" y="452.8" type="line"/>
			<point x="617.2" y="452.8" type="line"/>
			<point x="732.2" y="725.2" type="line"/>
			<point x="626" y="638" type="line"/>
			<point x="1067.2" y="613"/>
			<point x="1227.6" y="760.8"/>
			<point x="1227.6" y="1018" type="curve" smooth="yes"/>
			<point x="1227.6" y="1264"/>
			<point x="1010.2" y="1436"/>
		</contour>
	</outline>
</glyph>
<glyph name="at" format="2">
	<unicode hex="0040"/>
	<advance width="1928.2"/>
	<outline>
		<contour>
			<point x="1448.6" y="311" type="curve" smooth="yes"/>
			<point x="1377.4" y="311"/>
			<point x="1344" y="338.2"/>
			<point x="1344" y="406.8" type="curve" smooth="yes"/>
			<point x="1344" y="436.2"/>
			<point x="1349" y="469.8"/>
			<point x="1362.6" y="512.6" type="curve" smooth="yes"/>
			<point x="1513.4" y="1008" type="line"/>
			<point x="1321.2" y="1008" type="line"/>
			<point x="1236.4" y="858.2" type="line"/>
			<point x="1193.6" y="737" type="line" smooth="yes"/>
			<point x="1118.2" y="525.6"/>
			<point x="986.4" y="358.6"/>
			<point x="882.8" y="358.6" type="curve" smooth="yes"/>
			<point x="817.8" y="358.6"/>
			<point x="790.2" y="388.8"/>
			<point x="790.2" y="455" type="curve" smooth="yes"/>
			<point x="790.2" y="625.2"/>
			<point x="957" y="891.6"/>
			<point x="1112.4" y="891.6" type="curve" smooth="yes"/>
			<point x="1180" y="891.6"/>
			<point x="1219.6" y="860.8"/>
			<point x="1255.4" y="788.4" type="curve"/>
			<point x="1272.6" y="822.6" type="line"/>
			<point x="1227.2" y="955.8"/>
			<point x="1154.4" y="1027.8"/>
			<point x="1039.8" y="1027.8" type="curve" smooth="yes"/>
			<point x="771.8" y="1027.8"/>
			<point x="534.2" y="696.6"/>
			<point x="534.2" y="429.4" type="curve" smooth="yes"/>
			<point x="534.2" y="291.6"/>
			<point x="616.6" y="194.6"/>
			<point x="769.4" y="194.6" type="curve" smooth="yes"/>
			<point x="912.6" y="194.6"/>
			<point x="1010.6" y="275.6"/>
			<point x="1167.2" y="544.8" type="curve"/>
			<point x="1186.4" y="544.8" type="line"/>
			<point x="1167.8" y="493.4" type="line" smooth="yes"/>
			<point x="1153.4" y="452"/>
			<point x="1145.6" y="412.6"/>
			<point x="1145.6" y="378.6" type="curve" smooth="yes"/>
			<point x="1145.6" y="256.6"/>
			<point x="1232.2" y="185.8"/>
			<point x="1401.4" y="185.8" type="curve" smooth="yes"/>
			<point x="1718" y="185.8"/>
			<point x="1914.6" y="468.8"/>
			<point x="1914.6" y="847.8" type="curve" smooth="yes"/>
			<point x="1914.6" y="1233.4"/>
			<point x="1641.2" y="1436"/>
			<point x="1204.8" y="1436" type="curve" smooth="yes"/>
			<point x="479.6" y="1436"/>
			<point x="115.8" y="962.2"/>
			<point x="115.8" y="402" type="curve" smooth="yes"/>
			<point x="115.8" y="-30"/>
			<point x="397.4" y="-248"/>
			<point x="889.8" y="-248" type="curve" smooth="yes"/>
			<point x="1154.4" y="-248"/>
			<point x="1368" y="-184.4"/>
			<point x="1581.8" y="-63.6" type="curve"/>
			<point x="1533" y="38.4" type="line"/>
			<point x="1329.8" y="-69.2"/>
			<point x="1125.8" y="-126.2"/>
			<point x="926.8" y="-126.2" type="curve" smooth="yes"/>
			<point x="485.6" y="-126.2"/>
			<point x="265.2" y="67.4"/>
			<point x="265.2" y="427.4" type="curve" smooth="yes"/>
			<point x="265.2" y="909.4"/>
			<point x="563.2" y="1320"/>
			<point x="1186.4" y="1320" type="curve" smooth="yes"/>
			<point x="1556.2" y="1320"/>
			<point x="1776.2" y="1160.6"/>
			<point x="1776.2" y="837.8" type="curve" smooth="yes"/>
			<point x="1776.2" y="536.4"/>
			<point x="1633" y="311"/>
		</contour>
	</outline>
</glyph>
<glyph name="A" format="2">
	<unicode hex="0041"/>
	<advance width="1626.2"/>
	<outline>
		<contour>
			<point x="406.2" y="456.8" type="line"/>
			<point x="1094.8" y="456.8" type="line"/>
			<point x="1148.6" y="618.2" type="line"/>
			<point x="459.2" y="618.2" type="line"/>
		</contour>
		<contour>
			<point x="1339" y="149" type="line"/>
			<point x="1229.6" y="1430" type="line"/>
			<point x="905.6" y="1430" type="line"/>
			<point x="75" y="148.4" type="line"/>
			<point x="-94" y="101.6" type="line"/>
			<point x="-125.8" y="0" type="line"/>
			<point x="409.2" y="0" type="line"/>
			<point x="440" y="101.6" type="line"/>
			<point x="280.6" y="148.4" type="line"/>
			<point x="1019.2" y="1325.6" type="line"/>
			<point x="981.8" y="1323.4" type="line"/>
			<point x="1067.2" y="148.6" type="line"/>
			<point x="881.6" y="101.6" type="line"/>
			<point x="849.6" y="0" type="line"/>
			<point x="1471.4" y="0" type="line"/>
			<point x="1503.2" y="101.6" type="line"/>
		</contour>
	</outline>
	<anchor name="UCtop" x="1025.8" y="1414"/>
	<anchor name="bottom" x="623.2" y="0"/>
	<anchor name="right" x="1353.6" y="0"/>
</glyph>
<glyph name="B" format="2">
	<unicode hex="0042"/>
	<advance width="1493.6"/>
	<outline>
		<contour>
			<point x="667.4" y="1250.2" type="line"/>
			<point x="1005.6" y="1250.2" type="line" smooth="yes"/>
			<point x="1144" y="1250.2"/>
			<point x="1202.6" y="1198.8"/>
			<point x="1202.6" y="1103.6" type="curve" smooth="yes"/>
			<point x="1202.6" y="945.6"/>
			<point x="1117.8" y="829.2"/>
			<point x="933.8" y="829.2" type="curve" smooth="yes"/>
			<point x="542.2" y="829.2" type="line"/>
			<point x="485.6" y="668.8" type="line"/>
			<point x="877.8" y="668.8" type="line" smooth="yes"/>
			<point x="1028" y="668.8"/>
			<point x="1083.4" y="602.6"/>
			<point x="1083.4" y="500" type="curve" smooth="yes"/>
			<point x="1083.4" y="291.4"/>
			<point x="973.4" y="168.2"/>
			<point x="745" y="168.2" type="curve" smooth="yes"/>
			<point x="337.2" y="168.2" type="line"/>
			<point x="287.2" y="0" type="line"/>
			<point x="780.6" y="0" type="line" smooth="yes"/>
			<point x="1156.8" y="0"/>
			<point x="1349" y="196.2"/>
			<point x="1349" y="476.2" type="curve" smooth="yes"/>
			<point x="1349" y="646.2"/>
			<point x="1256.4" y="752.2"/>
			<point x="1033.6" y="765.4" type="curve"/>
			<point x="1024.2" y="746.4" type="line"/>
			<point x="1301.2" y="754.4"/>
			<point x="1465.6" y="888.2"/>
			<point x="1465.6" y="1131.6" type="curve" smooth="yes"/>
			<point x="1465.6" y="1292.2"/>
			<point x="1367.6" y="1414"/>
			<point x="1083.8" y="1414" type="curve" smooth="yes"/>
			<point x="718.4" y="1414" type="line"/>
		</contour>
		<contour>
			<point x="516" y="1265" type="line"/>
			<point x="173.6" y="149.8" type="line"/>
			<point x="-13.6" y="101.6" type="line"/>
			<point x="-45" y="0" type="line"/>
			<point x="396.2" y="0" type="line"/>
			<point x="829.2" y="1414" type="line"/>
			<point x="371.6" y="1414" type="line"/>
			<point x="340.4" y="1312.4" type="line"/>
		</contour>
	</outline>
	<anchor name="UCtop" x="937.2" y="1414"/>
	<anchor name="bottom" x="638.2" y="0"/>
</glyph>
<glyph name="C" format="2">
	<unicode hex="0043"/>
	<advance width="1533"/>
	<outline>
		<contour>
			<point x="1215.4" y="215.2" type="line"/>
			<point x="1101.8" y="174.8"/>
			<point x="976" y="147"/>
			<point x="867.2" y="147" type="curve" smooth="yes"/>
			<point x="595" y="147"/>
			<point x="439.4" y="281.6"/>
			<point x="439.4" y="562.2" type="curve" smooth="yes"/>
			<point x="439.4" y="960.2"/>
			<point x="644.6" y="1258.8"/>
			<point x="1107" y="1258.8" type="curve" smooth="yes"/>
			<point x="1220.4" y="1258.8"/>
			<point x="1313.8" y="1241.6"/>
			<point x="1399" y="1187.4" type="curve"/>
			<point x="1360.2" y="1288.8" type="line"/>
			<point x="1354.8" y="947.2" type="line"/>
			<point x="1511.4" y="947.2" type="line"/>
			<point x="1651.2" y="1489.6" type="line"/>
			<point x="1532.4" y="1489.6" type="line"/>
			<point x="1399" y="1368.8" type="line"/>
			<point x="1497.6" y="1374.2" type="line"/>
			<point x="1399.4" y="1411"/>
			<point x="1283.6" y="1436"/>
			<point x="1141.8" y="1436" type="curve" smooth="yes"/>
			<point x="500.8" y="1436"/>
			<point x="167.2" y="1058.2"/>
			<point x="167.2" y="547.2" type="curve" smooth="yes"/>
			<point x="167.2" y="198"/>
			<point x="365" y="-22"/>
			<point x="798.4" y="-22" type="curve" smooth="yes"/>
			<point x="985" y="-22"/>
			<point x="1138.8" y="7"/>
			<point x="1258.2" y="51.2" type="curve"/>
			<point x="1421.2" y="448.2" type="line"/>
			<point x="1265.2" y="448.2" type="line"/>
			<point x="999.6" y="90.2" type="line"/>
		</contour>
	</outline>
	<anchor name="UCtop" x="1070.2" y="1414"/>
	<anchor name="bottom" x="743.2" y="0"/>
	<anchor name="right" x="1243.6" y="0"/>
</glyph>
<glyph name="D" format="2">
	<unicode hex="0044"/>
	<advance width="1647"/>
	<outline>
		<contour>
			<point x="661.2" y="163.6" type="curve" smooth="yes"/>
			<point x="310.4" y="163.6" type="line"/>
			<point x="248.2" y="0" type="line"/>
			<point x="665.4" y="0" type="line" smooth="yes"/>
			<point x="1253.2" y="0"/>
			<point x="1601.2" y="356"/>
			<point x="1601.2" y="906" type="curve" smooth="yes"/>
			<point x="1601.2" y="1226.2"/>
			<point x="1430.8" y="1414"/>
			<point x="952" y="1414" type="curve" smooth="yes"/>
			<point x="680.2" y="1414" type="line"/>
			<point x="638.8" y="1250.4" type="line"/>
			<point x="935" y="1250.4" type="line" smooth="yes"/>
			<point x="1226" y="1250.4"/>
			<point x="1330.2" y="1125.4"/>
			<point x="1330.2" y="917" type="curve" smooth="yes"/>
			<point x="1330.2" y="498.8"/>
			<point x="1106.4" y="163.6"/>
		</contour>
		<contour>
			<point x="516" y="1265" type="line"/>
			<point x="173.6" y="149.8" type="line"/>
			<point x="-13.6" y="101.6" type="line"/>
			<point x="-45" y="0" type="line"/>
			<point x="396.2" y="0" type="line"/>
			<point x="829.2" y="1414" type="line"/>
			<point x="371.6" y="1414" type="line"/>
			<point x="340.4" y="1312.4" type="line"/>
		</contour>
	</outline>
	<anchor name="UCtop" x="1065.6" y="1414"/>
	<anchor name="bottom" x="738.6" y="0"/>
</glyph>
<glyph name="E" format="2">
	<unicode hex="0045"/>
	<advance width="1484.8"/>
	<outline>
		<contour>
			<point x="516" y="1265" type="line"/>
			<point x="173.6" y="149.8" type="line"/>
			<point x="-13.6" y="101.6" type="line"/>
			<point x="-45" y="0" type="line"/>
			<point x="396.2" y="0" type="line"/>
			<point x="829.2" y="1414" type="line"/>
			<point x="371.6" y="1414" type="line"/>
			<point x="340.4" y="1312.4" type="line"/>
		</contour>
		<contour>
			<point x="1357.2" y="1339.4" type="line"/>
			<point x="1341.2" y="1031.8" type="line"/>
			<point x="1486.4" y="1031.8" type="line"/>
			<point x="1619" y="1489.6" type="line"/>
			<point x="1508" y="1489.6" type="line"/>
			<point x="1399.2" y="1414" type="line"/>
			<point x="685.4" y="1414" type="line"/>
			<point x="633.8" y="1250.4" type="line"/>
			<point x="1402.8" y="1250.4" type="line"/>
		</contour>
		<contour>
			<point x="992.2" y="-78.2" type="line"/>
			<point x="1120.4" y="-78.2" type="line"/>
			<point x="1397.2" y="436.2" type="line"/>
			<point x="1250.2" y="436.2" type="line"/>
			<point x="919.6" y="76" type="line"/>
			<point x="1062.2" y="163.6" type="line"/>
			<point x="305.4" y="163.6" type="line"/>
			<point x="253.4" y="0" type="line"/>
			<point x="955" y="0" type="line"/>
		</contour>
		<contour>
			<point x="1018.4" y="480" type="line"/>
			<point x="1096.4" y="735" type="line"/>
			<point x="1174.4" y="990" type="line"/>
			<point x="1040.8" y="990" type="line"/>
			<point x="971.4" y="815.8" type="line"/>
			<point x="503.2" y="815.8" type="line"/>
			<point x="453.8" y="658.2" type="line"/>
			<point x="923.2" y="658.2" type="line"/>
			<point x="884.8" y="480" type="line"/>
		</contour>
	</outline>
	<anchor name="UCtop" x="994.4" y="1414"/>
	<anchor name="right" x="1113.4" y="0"/>
	<anchor name="bottom" x="607.4" y="0"/>
</glyph>
<glyph name="F" format="2">
	<unicode hex="0046"/>
	<advance width="1378.6"/>
	<outline>
		<contour>
			<point x="1136.8" y="911.2" type="line"/>
			<point x="1003.2" y="911.2" type="line"/>
			<point x="933.8" y="737" type="line"/>
			<point x="465.6" y="737" type="line"/>
			<point x="416.2" y="579.4" type="line"/>
			<point x="885.6" y="579.4" type="line"/>
			<point x="847.2" y="401.2" type="line"/>
			<point x="980.8" y="401.2" type="line"/>
			<point x="1058.8" y="656.2" type="line"/>
		</contour>
		<contour>
			<point x="1453.8" y="1003" type="line"/>
			<point x="1590.4" y="1489.6" type="line"/>
			<point x="1479.4" y="1489.6" type="line"/>
			<point x="1370.6" y="1414" type="line"/>
			<point x="685.4" y="1414" type="line"/>
			<point x="633.8" y="1250.4" type="line"/>
			<point x="1374.2" y="1250.4" type="line"/>
			<point x="1328.6" y="1333" type="line"/>
			<point x="1308.6" y="1003" type="line"/>
		</contour>
		<contour>
			<point x="441.4" y="149" type="line"/>
			<point x="829.2" y="1414" type="line"/>
			<point x="371.6" y="1414" type="line"/>
			<point x="340.4" y="1312.4" type="line"/>
			<point x="516" y="1265" type="line"/>
			<point x="173.6" y="149.8" type="line"/>
			<point x="-13.6" y="101.6" type="line"/>
			<point x="-45" y="0" type="line"/>
			<point x="585.8" y="0" type="line"/>
			<point x="616" y="101.6" type="line"/>
		</contour>
	</outline>
	<anchor name="UCtop" x="959.2" y="1414"/>
	<anchor name="bottom" x="261.8" y="0"/>
</glyph>
<glyph name="G" format="2">
  <advance width="1679"/>
  <unicode hex="0047"/>
  <anchor x="1078.4" y="1414.0" name="UCtop"/>
  <anchor x="765.4" y="0.0" name="bottom"/>
  <outline>
    <contour>
      <point x="866.8" y="147.0" type="curve" smooth="yes"/>
      <point x="598.8000000000001" y="147.0"/>
      <point x="439.0" y="282.0"/>
      <point x="439.0" y="578.1999999999999" type="curve" smooth="yes"/>
      <point x="439.0" y="965.4"/>
      <point x="638.0" y="1258.8000000000002"/>
      <point x="1091.4" y="1258.8000000000002" type="curve" smooth="yes"/>
      <point x="1215.2" y="1258.8000000000002"/>
      <point x="1319.6000000000001" y="1245.0"/>
      <point x="1409.4" y="1187.4" type="curve"/>
      <point x="1378.0" y="1288.8" type="line"/>
      <point x="1372.6000000000001" y="947.1999999999999" type="line"/>
      <point x="1529.2" y="947.1999999999999" type="line"/>
      <point x="1669.0" y="1489.6" type="line"/>
      <point x="1550.2" y="1489.6" type="line"/>
      <point x="1416.8" y="1368.8000000000002" type="line"/>
      <point x="1508.0" y="1374.2" type="line"/>
      <point x="1405.6" y="1412.8"/>
      <point x="1284.0" y="1436.0"/>
      <point x="1135.8" y="1436.0" type="curve" smooth="yes"/>
      <point x="499.0" y="1436.0"/>
      <point x="167.4" y="1061.6"/>
      <point x="167.4" y="545.5999999999999" type="curve" smooth="yes"/>
      <point x="167.4" y="199.8"/>
      <point x="355.4" y="-22.0"/>
      <point x="835.2" y="-22.0" type="curve" smooth="yes"/>
      <point x="1057.6000000000001" y="-22.0"/>
      <point x="1268.0" y="25.6"/>
      <point x="1454.2" y="105.6" type="curve"/>
      <point x="1493.4" y="217.6" type="line"/>
      <point x="1354.6" y="217.6" type="line"/>
      <point x="1449.2" y="527.0" type="line"/>
      <point x="1609.0" y="575.0" type="line"/>
      <point x="1640.3999999999999" y="676.8" type="line"/>
      <point x="1009.6" y="676.8" type="line"/>
      <point x="979.4000000000001" y="575.0" type="line"/>
      <point x="1181.6" y="527.8" type="line"/>
      <point x="1052.0" y="103.0" type="line"/>
      <point x="1182.2" y="222.4" type="line"/>
      <point x="1067.0" y="166.0"/>
      <point x="960.4" y="147.0"/>
    </contour>
  </outline>
</glyph>
<glyph name="H" format="2">
	<unicode hex="0048"/>
	<advance width="1768.8"/>
	<outline>
		<contour>
			<point x="445.4" y="638.8" type="line"/>
			<point x="1401.4" y="638.8" type="line"/>
			<point x="1447.4" y="802.4" type="line"/>
			<point x="492.4" y="802.4" type="line"/>
		</contour>
		<contour>
			<point x="516" y="1265" type="line"/>
			<point x="173.6" y="149.8" type="line"/>
			<point x="-13.6" y="101.6" type="line"/>
			<point x="-45" y="0" type="line"/>
			<point x="585.8" y="0" type="line"/>
			<point x="616" y="101.6" type="line"/>
			<point x="441.4" y="149" type="line"/>
			<point x="783.8" y="1264.2" type="line"/>
			<point x="971" y="1312.4" type="line"/>
			<point x="1001.2" y="1414" type="line"/>
			<point x="371.6" y="1414" type="line"/>
			<point x="340.4" y="1312.4" type="line"/>
		</contour>
		<contour>
			<point x="1443" y="1265" type="line"/>
			<point x="1100.8" y="149.8" type="line"/>
			<point x="913.4" y="101.6" type="line"/>
			<point x="883.2" y="0" type="line"/>
			<point x="1512.8" y="0" type="line"/>
			<point x="1544.2" y="101.6" type="line"/>
			<point x="1368.4" y="149" type="line"/>
			<point x="1710.8" y="1264.2" type="line"/>
			<point x="1898" y="1312.4" type="line"/>
			<point x="1928.4" y="1414" type="line"/>
			<point x="1298.6" y="1414" type="line"/>
			<point x="1268.4" y="1312.4" type="line"/>
		</contour>
	</outline>
	<anchor name="UCtop" x="1109.8" y="1414"/>
	<anchor name="bottom" x="756.8" y="0"/>
</glyph>
<glyph name="I" format="2">
	<unicode hex="0049"/>
	<advance width="841.8"/>
	<outline>
		<contour>
			<point x="516" y="1265" type="line"/>
			<point x="173.6" y="149.8" type="line"/>
			<point x="-13.6" y="101.6" type="line"/>
			<point x="-45" y="0" type="line"/>
			<point x="585.8" y="0" type="line"/>
			<point x="616" y="101.6" type="line"/>
			<point x="441.4" y="149" type="line"/>
			<point x="783.8" y="1264.2" type="line"/>
			<point x="971" y="1312.4" type="line"/>
			<point x="1001.2" y="1414" type="line"/>
			<point x="371.6" y="1414" type="line"/>
			<point x="340.4" y="1312.4" type="line"/>
		</contour>
	</outline>
	<anchor name="UCtop" x="670.8" y="1414"/>
	<anchor name="right" x="422.8" y="0"/>
	<anchor name="bottom" x="284.8" y="0"/>
</glyph>
<glyph name="J" format="2">
	<unicode hex="004A"/>
	<advance width="1111.8"/>
	<outline>
		<contour>
			<point x="804.6" y="340.2" type="curve" smooth="yes"/>
			<point x="1089" y="1264.2" type="line"/>
			<point x="1276.2" y="1312.4" type="line"/>
			<point x="1306.4" y="1414" type="line"/>
			<point x="676.8" y="1414" type="line"/>
			<point x="645.6" y="1312.4" type="line"/>
			<point x="821.2" y="1265" type="line"/>
			<point x="554" y="395.6" type="line" smooth="yes"/>
			<point x="498.8" y="216.6"/>
			<point x="422.8" y="163.4"/>
			<point x="282.4" y="163.4" type="curve" smooth="yes"/>
			<point x="116.4" y="163.4"/>
			<point x="93.8" y="300.8"/>
			<point x="47.2" y="300.8" type="curve" smooth="yes"/>
			<point x="-20.8" y="300.8"/>
			<point x="-68.8" y="249.6"/>
			<point x="-68.8" y="175.6" type="curve" smooth="yes"/>
			<point x="-68.8" y="59"/>
			<point x="17.8" y="-18"/>
			<point x="266.4" y="-18" type="curve" smooth="yes"/>
			<point x="551.8" y="-18"/>
			<point x="732.6" y="105.6"/>
		</contour>
	</outline>
	<anchor name="UCtop" x="969.8" y="1414"/>
	<anchor name="bottom" x="325.2" y="0"/>
</glyph>
<glyph name="K" format="2">
	<unicode hex="004B"/>
	<advance width="1650.8"/>
	<outline>
		<contour>
			<point x="1358.2" y="142.4" type="line"/>
			<point x="951.6" y="843.6" type="line"/>
			<point x="927" y="710" type="line"/>
			<point x="1611.8" y="1266.2" type="line"/>
			<point x="1784.8" y="1312.4" type="line"/>
			<point x="1815.8" y="1414" type="line"/>
			<point x="1280.8" y="1414" type="line"/>
			<point x="1249" y="1312.4" type="line"/>
			<point x="1387.4" y="1270.8" type="line"/>
			<point x="825" y="813" type="line"/>
			<point x="558" y="813" type="line"/>
			<point x="510" y="649.4" type="line"/>
			<point x="763" y="649.4" type="line"/>
			<point x="1072.2" y="107" type="line"/>
			<point x="1062.6" y="75" type="line"/>
			<point x="1039.8" y="0" type="line"/>
			<point x="1472.4" y="0" type="line"/>
			<point x="1505.2" y="107.6" type="line"/>
		</contour>
		<contour>
			<point x="516" y="1265" type="line"/>
			<point x="173.6" y="149.8" type="line"/>
			<point x="-13.6" y="101.6" type="line"/>
			<point x="-45" y="0" type="line"/>
			<point x="585.8" y="0" type="line"/>
			<point x="616" y="101.6" type="line"/>
			<point x="441.4" y="149" type="line"/>
			<point x="783.8" y="1264.2" type="line"/>
			<point x="971" y="1312.4" type="line"/>
			<point x="1001.2" y="1414" type="line"/>
			<point x="371.6" y="1414" type="line"/>
			<point x="340.4" y="1312.4" type="line"/>
		</contour>
	</outline>
	<anchor name="UCtop" x="1092.4" y="1414"/>
	<anchor name="bottom" x="781.4" y="0"/>
</glyph>
<glyph name="L" format="2">
	<unicode hex="004C"/>
	<advance width="1339"/>
	<outline>
		<contour>
			<point x="783.8" y="1264.2" type="line"/>
			<point x="971" y="1312.4" type="line"/>
			<point x="1001.2" y="1414" type="line"/>
			<point x="371.6" y="1414" type="line"/>
			<point x="340.4" y="1312.4" type="line"/>
			<point x="516" y="1265" type="line"/>
			<point x="173.6" y="149.8" type="line"/>
			<point x="-13.6" y="101.6" type="line"/>
			<point x="-45" y="0" type="line"/>
			<point x="396.2" y="0" type="line"/>
		</contour>
		<contour>
			<point x="834.6" y="80" type="line"/>
			<point x="964.2" y="163.6" type="line"/>
			<point x="202.4" y="163.6" type="line"/>
			<point x="150.4" y="0" type="line"/>
			<point x="867.8" y="0" type="line"/>
			<point x="913" y="-78.2" type="line"/>
			<point x="1041.2" y="-78.2" type="line"/>
			<point x="1275.2" y="482" type="line"/>
			<point x="1127.8" y="482" type="line"/>
		</contour>
	</outline>
	<anchor name="UCtop" x="689.4" y="1414"/>
	<anchor name="right" x="1022.6" y="1414"/>
	<anchor name="bottom" x="529.8" y="0"/>
	<anchor name="mid" x="1180.4" y="788.4"/>
</glyph>
<glyph name="M" format="2">
	<unicode hex="004D"/>
	<advance width="2155.4"/>
	<outline>
		<contour>
			<point x="743.4" y="1310.4" type="line"/>
			<point x="704.4" y="1296" type="line"/>
			<point x="720.6" y="0" type="line"/>
			<point x="1012.2" y="0" type="line"/>
			<point x="1874.6" y="1381" type="line"/>
			<point x="1884" y="1414" type="line"/>
			<point x="1716.6" y="1414" type="line"/>
			<point x="883.4" y="56" type="line"/>
			<point x="974.6" y="70.2" type="line"/>
			<point x="957.8" y="1414" type="line"/>
			<point x="407.4" y="1414" type="line"/>
			<point x="376.2" y="1312.4" type="line"/>
			<point x="550" y="1247.6" type="line"/>
			<point x="137.2" y="148.6" type="line"/>
			<point x="-36.6" y="101.6" type="line"/>
			<point x="-66.6" y="0" type="line"/>
			<point x="436" y="0" type="line"/>
			<point x="466.2" y="101.6" type="line"/>
			<point x="304.6" y="149.2" type="line"/>
		</contour>
		<contour>
			<point x="1817.2" y="1414" type="line"/>
			<point x="1520.8" y="149.8" type="line"/>
			<point x="1337.2" y="101.6" type="line"/>
			<point x="1306.8" y="0" type="line"/>
			<point x="1913.4" y="0" type="line"/>
			<point x="1944.6" y="101.6" type="line"/>
			<point x="1787" y="149" type="line"/>
			<point x="2049.8" y="1255.4" type="line"/>
			<point x="2245.8" y="1312.4" type="line"/>
			<point x="2276.2" y="1414" type="line"/>
		</contour>
	</outline>
	<anchor name="UCtop" x="1294.2" y="1414"/>
	<anchor name="bottom" x="893.2" y="0"/>
</glyph>
<glyph name="N" format="2">
	<unicode hex="004E"/>
	<advance width="1692.8"/>
	<outline>
		<contour>
			<point x="1187.4" y="85.8" type="line"/>
			<point x="883.8" y="1414" type="line"/>
			<point x="378.6" y="1414" type="line"/>
			<point x="348.6" y="1314.2" type="line"/>
			<point x="512.6" y="1260.8" type="line"/>
			<point x="170" y="148.6" type="line"/>
			<point x="-18.2" y="101.6" type="line"/>
			<point x="-47.4" y="0" type="line"/>
			<point x="492.8" y="0" type="line"/>
			<point x="522.2" y="101.6" type="line"/>
			<point x="342.6" y="149.4" type="line"/>
			<point x="690" y="1280.6" type="line"/>
			<point x="656" y="1284.2" type="line"/>
			<point x="951.2" y="0" type="line"/>
			<point x="1272.2" y="0" type="line"/>
			<point x="1661.2" y="1265.4" type="line"/>
			<point x="1849.4" y="1312.4" type="line"/>
			<point x="1878.6" y="1414" type="line"/>
			<point x="1338.4" y="1414" type="line"/>
			<point x="1309" y="1312.4" type="line"/>
			<point x="1488.6" y="1264.6" type="line"/>
			<point x="1136.2" y="116.4" type="line"/>
		</contour>
	</outline>
	<anchor name="UCtop" x="1106.6" y="1414"/>
	<anchor name="bottom" x="733.6" y="0"/>
</glyph>
<glyph name="O" format="2">
	<unicode hex="004F"/>
	<advance width="1672"/>
	<outline>
		<contour>
			<point x="423" y="511" type="curve" smooth="yes"/>
			<point x="423" y="899.2"/>
			<point x="642.8" y="1256.4"/>
			<point x="1016.4" y="1256.4" type="curve" smooth="yes"/>
			<point x="1255.6" y="1256.4"/>
			<point x="1365.4" y="1123.2"/>
			<point x="1365.4" y="903" type="curve" smooth="yes"/>
			<point x="1365.4" y="514.8"/>
			<point x="1145.6" y="157.6"/>
			<point x="772" y="157.6" type="curve" smooth="yes"/>
			<point x="532.8" y="157.6"/>
			<point x="423" y="290.8"/>
		</contour>
		<contour>
			<point x="1631.4" y="894.8" type="curve" smooth="yes"/>
			<point x="1631.4" y="1226.8"/>
			<point x="1424.4" y="1436"/>
			<point x="1024.6" y="1436" type="curve" smooth="yes"/>
			<point x="517.2" y="1436"/>
			<point x="157" y="1011"/>
			<point x="157" y="519.2" type="curve" smooth="yes"/>
			<point x="157" y="187.2"/>
			<point x="364" y="-22"/>
			<point x="763.8" y="-22" type="curve" smooth="yes"/>
			<point x="1271.2" y="-22"/>
			<point x="1631.4" y="403"/>
		</contour>
	</outline>
	<anchor name="UCtop" x="1089.2" y="1414"/>
	<anchor name="bottom" x="672.6" y="0"/>
	<anchor name="right" x="861.4" y="0"/>
	<anchor name="horn" x="1464.8" y="1414"/>
</glyph>
<glyph name="P" format="2">
	<unicode hex="0050"/>
	<advance width="1402"/>
	<outline>
		<contour>
			<point x="868.4" y="718" type="curve" smooth="yes"/>
			<point x="447" y="718" type="line"/>
			<point x="382.2" y="554.4" type="line"/>
			<point x="852.6" y="554.4" type="line" smooth="yes"/>
			<point x="1275.8" y="554.4"/>
			<point x="1471.4" y="780.4"/>
			<point x="1471.4" y="1084.4" type="curve" smooth="yes"/>
			<point x="1471.4" y="1295.6"/>
			<point x="1338.4" y="1414"/>
			<point x="1013" y="1414" type="curve" smooth="yes"/>
			<point x="648.4" y="1414" type="line"/>
			<point x="611" y="1250.4" type="line"/>
			<point x="936.2" y="1250.4" type="line" smooth="yes"/>
			<point x="1139.8" y="1250.4"/>
			<point x="1210.2" y="1186.6"/>
			<point x="1210.2" y="1074.6" type="curve" smooth="yes"/>
			<point x="1210.2" y="870.4"/>
			<point x="1100.8" y="718"/>
		</contour>
		<contour>
			<point x="441.4" y="149" type="line"/>
			<point x="829.2" y="1414" type="line"/>
			<point x="371.6" y="1414" type="line"/>
			<point x="340.4" y="1312.4" type="line"/>
			<point x="516" y="1265" type="line"/>
			<point x="173.6" y="149.8" type="line"/>
			<point x="-13.6" y="101.6" type="line"/>
			<point x="-45" y="0" type="line"/>
			<point x="585.8" y="0" type="line"/>
			<point x="616" y="101.6" type="line"/>
		</contour>
	</outline>
	<anchor name="UCtop" x="960.6" y="1414"/>
	<anchor name="bottom" x="261.8" y="0"/>
</glyph>
<glyph name="Q" format="2">
	<unicode hex="0051"/>
	<advance width="1671.2"/>
	<outline>
		<contour>
			<point x="609.4" y="-241.6" type="line" smooth="yes"/>
			<point x="740" y="-400.6"/>
			<point x="835.2" y="-465"/>
			<point x="1020.6" y="-465" type="curve" smooth="yes"/>
			<point x="1114.8" y="-465"/>
			<point x="1175" y="-456.6"/>
			<point x="1246" y="-443" type="curve"/>
			<point x="1281.4" y="-305.6" type="line"/>
			<point x="1060.6" y="-317.2"/>
			<point x="1008.2716622087" y="-308.6936117166"/>
			<point x="857.8" y="-163" type="curve" smooth="yes"/>
			<point x="588.4" y="97.4" type="line"/>
			<point x="607.4" y="40.6" type="line"/>
			<point x="1227.8" y="-96.8"/>
			<point x="1630.6" y="373.2"/>
			<point x="1630.6" y="894.8" type="curve" smooth="yes"/>
			<point x="1630.6" y="1227.4"/>
			<point x="1420.2" y="1436"/>
			<point x="1024.6" y="1436" type="curve" smooth="yes"/>
			<point x="519.8" y="1436"/>
			<point x="156.2" y="1007.4"/>
			<point x="156.2" y="519.2" type="curve" smooth="yes"/>
			<point x="156.2" y="370.2"/>
			<point x="199.2" y="250.6"/>
			<point x="291.6" y="133.6" type="curve" smooth="yes"/>
		</contour>
		<contour>
			<point x="422.2" y="509" type="curve" smooth="yes"/>
			<point x="422.2" y="891.4"/>
			<point x="647.2" y="1256.4"/>
			<point x="1019.2" y="1256.4" type="curve" smooth="yes"/>
			<point x="1256.4" y="1256.4"/>
			<point x="1364.6" y="1123.6"/>
			<point x="1364.6" y="905" type="curve" smooth="yes"/>
			<point x="1364.6" y="522.6"/>
			<point x="1139.6" y="157.6"/>
			<point x="767.6" y="157.6" type="curve" smooth="yes"/>
			<point x="530.4" y="157.6"/>
			<point x="422.2" y="290.4"/>
		</contour>
	</outline>
	<anchor name="UCtop" x="1088.4" y="1414"/>
	<anchor name="bottom" x="423.8" y="-194.2"/>
</glyph>
<glyph name="R" format="2">
	<unicode hex="0052"/>
	<advance width="1545.8"/>
	<outline>
		<contour>
			<point x="915.6" y="779.8" type="curve" smooth="yes"/>
			<point x="517.2" y="779.8" type="line"/>
			<point x="473.2" y="622.6" type="line"/>
			<point x="834.8" y="622.6" type="line" smooth="yes"/>
			<point x="960.6" y="622.6"/>
			<point x="978.8" y="599.4"/>
			<point x="995" y="416" type="curve" smooth="yes"/>
			<point x="1012.6" y="217.6" type="line" smooth="yes"/>
			<point x="1029.6" y="16"/>
			<point x="1081.2" y="-16.2"/>
			<point x="1377.8" y="0" type="curve"/>
			<point x="1409.8" y="119.6" type="line"/>
			<point x="1317.2" y="119.6"/>
			<point x="1289.8" y="133"/>
			<point x="1275.4" y="266.6" type="curve" smooth="yes"/>
			<point x="1257" y="434.8" type="line" smooth="yes"/>
			<point x="1237.6" y="616.2"/>
			<point x="1198.8" y="684.6"/>
			<point x="1044.4" y="701.6" type="curve"/>
			<point x="1044.4" y="694" type="line"/>
			<point x="1354" y="713.8"/>
			<point x="1507.4" y="883.4"/>
			<point x="1507.4" y="1123.8" type="curve" smooth="yes"/>
			<point x="1507.4" y="1294.8"/>
			<point x="1398.6" y="1414"/>
			<point x="1105.2" y="1414" type="curve" smooth="yes"/>
			<point x="717.2" y="1414" type="line"/>
			<point x="664.2" y="1250.4" type="line"/>
			<point x="1040" y="1250.4" type="line" smooth="yes"/>
			<point x="1176.8" y="1250.4"/>
			<point x="1235.2" y="1195.8"/>
			<point x="1235.2" y="1095.2" type="curve" smooth="yes"/>
			<point x="1235.2" y="925.2"/>
			<point x="1157" y="779.8"/>
		</contour>
		<contour>
			<point x="441.4" y="149" type="line"/>
			<point x="829.2" y="1414" type="line"/>
			<point x="371.6" y="1414" type="line"/>
			<point x="340.4" y="1312.4" type="line"/>
			<point x="516" y="1265" type="line"/>
			<point x="173.6" y="149.8" type="line"/>
			<point x="-13.6" y="101.6" type="line"/>
			<point x="-45" y="0" type="line"/>
			<point x="585.8" y="0" type="line"/>
			<point x="616" y="101.6" type="line"/>
		</contour>
	</outline>
	<anchor name="UCtop" x="978.6" y="1414"/>
	<anchor name="bottom" x="763.6" y="0"/>
</glyph>
<glyph name="S" format="2">
	<unicode hex="0053"/>
	<advance width="1304.2"/>
	<outline>
		<contour>
			<point x="1154.4" y="1208.8" type="curve"/>
			<point x="1110.4" y="1279.4" type="line"/>
			<point x="1121.2" y="979.6" type="line"/>
			<point x="1267.8" y="979.6" type="line"/>
			<point x="1388.4" y="1489.6" type="line"/>
			<point x="1269.6" y="1489.6" type="line"/>
			<point x="1152.4" y="1369.8" type="line"/>
			<point x="1285.4" y="1349.4" type="line"/>
			<point x="1188" y="1409.6"/>
			<point x="1057.4" y="1436"/>
			<point x="907.6" y="1436" type="curve" smooth="yes"/>
			<point x="496.8" y="1436"/>
			<point x="297.2" y="1256"/>
			<point x="297.2" y="981.8" type="curve" smooth="yes"/>
			<point x="297.2" y="779.8"/>
			<point x="427.8" y="714.6"/>
			<point x="589.8" y="659.2" type="curve" smooth="yes"/>
			<point x="751.8" y="603.8"/>
			<point x="909.2" y="567"/>
			<point x="909.2" y="415.8" type="curve" smooth="yes"/>
			<point x="909.2" y="250.4"/>
			<point x="776.8" y="142.6"/>
			<point x="497.8" y="142.6" type="curve" smooth="yes"/>
			<point x="387" y="142.6"/>
			<point x="297.8" y="158.4"/>
			<point x="223.2" y="180" type="curve"/>
			<point x="353.6" y="35.8" type="line"/>
			<point x="228" y="448.8" type="line"/>
			<point x="82.8" y="448.8" type="line"/>
			<point x="91.6" y="30.6" type="line"/>
			<point x="191.8" y="-0.6"/>
			<point x="305.2" y="-22"/>
			<point x="482.6" y="-22" type="curve" smooth="yes"/>
			<point x="927.6" y="-22"/>
			<point x="1158.6" y="175.6"/>
			<point x="1158.6" y="487.4" type="curve" smooth="yes"/>
			<point x="1158.6" y="716.6"/>
			<point x="987.4" y="788.4"/>
			<point x="821.8" y="843.6" type="curve" smooth="yes"/>
			<point x="656.2" y="898.8"/>
			<point x="539.8" y="929.8"/>
			<point x="539.8" y="1060.8" type="curve" smooth="yes"/>
			<point x="539.8" y="1190.2"/>
			<point x="625.2" y="1276"/>
			<point x="880.2" y="1276" type="curve" smooth="yes"/>
			<point x="995.8" y="1276"/>
			<point x="1100.2" y="1248.4"/>
		</contour>
	</outline>
	<anchor name="UCtop" x="849" y="1414"/>
	<anchor name="bottom" x="582" y="0"/>
</glyph>
<glyph name="T" format="2">
	<unicode hex="0054"/>
	<advance width="1522.4"/>
	<outline>
		<contour>
			<point x="1470" y="1242.4" type="line"/>
			<point x="1425.2" y="1290.4" type="line"/>
			<point x="1457.2" y="931.6" type="line"/>
			<point x="1600.6" y="931.6" type="line"/>
			<point x="1679.4" y="1506" type="line"/>
			<point x="1560.2" y="1506" type="line"/>
			<point x="1441.4" y="1387.6" type="line"/>
			<point x="1579" y="1414" type="line"/>
			<point x="459.8" y="1414" type="line"/>
			<point x="579.8" y="1387.6" type="line"/>
			<point x="537.8" y="1506" type="line"/>
			<point x="417.6" y="1506" type="line"/>
			<point x="187.4" y="931.6" type="line"/>
			<point x="340.6" y="931.6" type="line"/>
			<point x="583.4" y="1284.8" type="line"/>
			<point x="479.8" y="1242.4" type="line"/>
		</contour>
		<contour>
			<point x="878" y="1340" type="line"/>
			<point x="512.6" y="149.8" type="line"/>
			<point x="324.6" y="101.6" type="line"/>
			<point x="293.4" y="0" type="line"/>
			<point x="924" y="0" type="line"/>
			<point x="954.2" y="101.6" type="line"/>
			<point x="780.4" y="149" type="line"/>
			<point x="1146" y="1340" type="line"/>
		</contour>
	</outline>
	<anchor name="UCtop" x="1018.6" y="1414"/>
	<anchor name="bottom" x="626.2" y="0"/>
</glyph>
<glyph name="U" format="2">
	<unicode hex="0055"/>
	<advance width="1659"/>
	<outline>
		<contour>
			<point x="509.8" y="528.8" type="curve" smooth="yes"/>
			<point x="735.8" y="1264.2" type="line"/>
			<point x="923" y="1312.4" type="line"/>
			<point x="953.2" y="1414" type="line"/>
			<point x="323.6" y="1414" type="line"/>
			<point x="292.4" y="1312.4" type="line"/>
			<point x="468" y="1265" type="line"/>
			<point x="261.4" y="592.6" type="line" smooth="yes"/>
			<point x="127.6" y="159.4"/>
			<point x="324" y="-22"/>
			<point x="733.6" y="-22" type="curve" smooth="yes"/>
			<point x="1096.6" y="-22"/>
			<point x="1287.6" y="130.4"/>
			<point x="1405.6" y="515.6" type="curve" smooth="yes"/>
			<point x="1634.8" y="1265.4" type="line"/>
			<point x="1823" y="1312.4" type="line"/>
			<point x="1852.2" y="1414" type="line"/>
			<point x="1312" y="1414" type="line"/>
			<point x="1282.6" y="1312.4" type="line"/>
			<point x="1462.2" y="1264.6" type="line"/>
			<point x="1233" y="516.6" type="line" smooth="yes"/>
			<point x="1158.8" y="273.4"/>
			<point x="1036.4" y="178.4"/>
			<point x="790.6" y="178.4" type="curve" smooth="yes"/>
			<point x="551.8" y="178.4"/>
			<point x="435.2" y="286.8"/>
		</contour>
	</outline>
	<anchor name="UCtop" x="1099.6" y="1414"/>
	<anchor name="right" x="884.6" y="0"/>
	<anchor name="bottom" x="686.6" y="0"/>
	<anchor name="horn" x="1679.6" y="1414"/>
</glyph>
<glyph name="V" format="2">
	<unicode hex="0056"/>
	<advance width="1583.6"/>
	<outline>
		<contour>
			<point x="398.8" y="1265" type="line"/>
			<point x="500.2" y="-16" type="line"/>
			<point x="824.2" y="-16" type="line"/>
			<point x="1622.8" y="1265.6" type="line"/>
			<point x="1789.8" y="1312.4" type="line"/>
			<point x="1821.6" y="1414" type="line"/>
			<point x="1286.6" y="1414" type="line"/>
			<point x="1255.8" y="1312.4" type="line"/>
			<point x="1417.2" y="1265.6" type="line"/>
			<point x="710.6" y="88.4" type="line"/>
			<point x="748" y="90.6" type="line"/>
			<point x="670.6" y="1265.4" type="line"/>
			<point x="856.2" y="1312.4" type="line"/>
			<point x="888.2" y="1414" type="line"/>
			<point x="266.4" y="1414" type="line"/>
			<point x="234.6" y="1312.4" type="line"/>
		</contour>
	</outline>
	<anchor name="UCtop" x="1053.6" y="1414"/>
	<anchor name="bottom" x="692.6" y="0"/>
</glyph>
<glyph name="W" format="2">
	<unicode hex="0057"/>
	<advance width="2176.2"/>
	<outline>
		<contour>
			<point x="2027.8" y="1265.6" type="line"/>
			<point x="1455.6" y="104.2" type="line"/>
			<point x="1516.6" y="96.2" type="line"/>
			<point x="1569.6" y="1414" type="line"/>
			<point x="1247" y="1414" type="line"/>
			<point x="514.8" y="108.6" type="line"/>
			<point x="568.4" y="108.4" type="line"/>
			<point x="697.2" y="1263.2" type="line"/>
			<point x="878.8" y="1312" type="line"/>
			<point x="909.8" y="1414" type="line"/>
			<point x="286" y="1414" type="line"/>
			<point x="255.2" y="1312" type="line"/>
			<point x="418.8" y="1262.6" type="line"/>
			<point x="290.8" y="0" type="line"/>
			<point x="638.2" y="0" type="line"/>
			<point x="1317" y="1188.6" type="line"/>
			<point x="1277.8" y="1179" type="line"/>
			<point x="1229.8" y="0" type="line"/>
			<point x="1572.2" y="0" type="line"/>
			<point x="2217" y="1265.6" type="line"/>
			<point x="2384" y="1312.4" type="line"/>
			<point x="2415" y="1414" type="line"/>
			<point x="1898" y="1414" type="line"/>
			<point x="1866.4" y="1312.4" type="line"/>
		</contour>
	</outline>
	<anchor name="UCtop" x="1384.6" y="1414"/>
	<anchor name="bottom" x="975.6" y="0"/>
</glyph>
<glyph name="X" format="2">
  <advance width="1649"/>
  <unicode hex="0058"/>
  <anchor x="1082.0" y="1414.0" name="UCtop"/>
  <anchor x="665.0" y="0.0" name="bottom"/>
  <outline>
    <contour>
      <point x="836.4" y="636.2" type="line"/>
      <point x="973.0" y="686.8000000000001" type="line"/>
      <point x="1617.0" y="1263.8" type="line"/>
      <point x="1787.1999999999998" y="1312.3999999999999" type="line"/>
      <point x="1817.8" y="1414.0" type="line"/>
      <point x="1282.4" y="1414.0" type="line"/>
      <point x="1251.8" y="1312.3999999999999" type="line"/>
      <point x="1398.8" y="1264.8" type="line"/>
      <point x="913.6" y="820.2" type="line"/>
      <point x="777.0" y="768.8000000000001" type="line"/>
      <point x="88.2" y="150.20000000000002" type="line"/>
      <point x="-82.0" y="101.60000000000001" type="line"/>
      <point x="-112.6" y="0.0" type="line"/>
      <point x="422.8" y="0.0" type="line"/>
      <point x="453.4" y="101.60000000000001" type="line"/>
      <point x="306.40000000000003" y="149.2" type="line"/>
    </contour>
    <contour>
      <point x="1038.2" y="150.79999999999998" type="line"/>
      <point x="866.6" y="101.60000000000001" type="line"/>
      <point x="835.0" y="0.0" type="line"/>
      <point x="1470.0" y="0.0" type="line"/>
      <point x="1501.8" y="101.60000000000001" type="line"/>
      <point x="1340.8" y="155.0" type="line"/>
      <point x="1017.6" y="790.4" type="line"/>
      <point x="991.4" y="840.8" type="line"/>
      <point x="774.8" y="1265.6000000000001" type="line"/>
      <point x="940.4000000000001" y="1311.8" type="line"/>
      <point x="971.2" y="1414.0" type="line"/>
      <point x="342.6" y="1414.0" type="line"/>
      <point x="312.0" y="1312.3999999999999" type="line"/>
      <point x="472.59999999999997" y="1262.6000000000001" type="line"/>
      <point x="759.4" y="699.8" type="line"/>
      <point x="783.8000000000001" y="652.0" type="line"/>
    </contour>
  </outline>
</glyph>
<glyph name="Y" format="2">
  <advance width="1542.3999999999999"/>
  <unicode hex="0059"/>
  <anchor x="1026.3999999999999" y="1414.0" name="UCtop"/>
  <anchor x="644.8" y="0.0" name="bottom"/>
  <outline>
    <contour>
      <point x="1367.4" y="1263.6" type="line"/>
      <point x="823.2" y="679.1999999999999" type="line"/>
      <point x="892.8" y="679.1999999999999" type="line"/>
      <point x="680.6" y="1261.8" type="line"/>
      <point x="848.8" y="1312.3999999999999" type="line"/>
      <point x="879.6" y="1414.0" type="line"/>
      <point x="277.6" y="1414.0" type="line"/>
      <point x="247.0" y="1312.3999999999999" type="line"/>
      <point x="411.0" y="1261.2" type="line"/>
      <point x="667.8000000000001" y="585.0" type="line"/>
      <point x="533.6" y="149.8" type="line"/>
      <point x="346.4" y="101.60000000000001" type="line"/>
      <point x="315.0" y="0.0" type="line"/>
      <point x="945.8000000000001" y="0.0" type="line"/>
      <point x="976.0" y="101.60000000000001" type="line"/>
      <point x="801.4" y="149.0" type="line"/>
      <point x="938.4" y="593.2" type="line"/>
      <point x="1585.0" y="1265.6000000000001" type="line"/>
      <point x="1747.2" y="1312.3999999999999" type="line"/>
      <point x="1779.0" y="1414.0" type="line"/>
      <point x="1241.8" y="1414.0" type="line"/>
      <point x="1211.0" y="1312.3999999999999" type="line"/>
    </contour>
  </outline>
</glyph>
<glyph name="Z" format="2">
	<unicode hex="005A"/>
	<advance width="1373.8"/>
	<outline>
		<contour>
			<point x="1493.6" y="1414" type="line"/>
			<point x="592" y="1414" type="line"/>
			<point x="535" y="1488.2" type="line"/>
			<point x="425.8" y="1488.2" type="line"/>
			<point x="270.8" y="988.6" type="line"/>
			<point x="415.4" y="988.6" type="line"/>
			<point x="561.6" y="1250.4" type="line"/>
			<point x="1268.4" y="1250.4" type="line"/>
			<point x="1185.8" y="1321.6" type="line"/>
			<point x="21.8" y="154.8" type="line"/>
			<point x="-24.6" y="0" type="line"/>
			<point x="878.2" y="0" type="line"/>
			<point x="904" y="-78.4" type="line"/>
			<point x="1030.4" y="-78.4" type="line"/>
			<point x="1264.6" y="450.4" type="line"/>
			<point x="1125.4" y="450.4" type="line"/>
			<point x="914" y="163.6" type="line"/>
			<point x="208.2" y="163.6" type="line"/>
			<point x="280.6" y="91.4" type="line"/>
			<point x="1445.6" y="1259.2" type="line"/>
		</contour>
	</outline>
	<anchor name="UCtop" x="964.2" y="1414"/>
	<anchor name="bottom" x="515.2" y="0"/>
</glyph>
<glyph name="bracketleft" format="2">
	<unicode hex="005B"/>
	<advance width="776.6"/>
	<outline>
		<contour>
			<point x="-10.2" y="-220.2" type="line"/>
			<point x="490.2" y="-220.2" type="line"/>
			<point x="533.8" y="-79.2" type="line"/>
			<point x="244.2" y="-79.2" type="line"/>
			<point x="672.6" y="1323" type="line"/>
			<point x="962.2" y="1323" type="line"/>
			<point x="1005.8" y="1464" type="line"/>
			<point x="504.6" y="1464" type="line"/>
		</contour>
	</outline>
</glyph>
<glyph name="backslash" format="2">
	<unicode hex="005C"/>
	<advance width="850.8"/>
	<outline>
		<contour>
			<point x="633.8" y="0" type="line"/>
			<point x="490.6" y="1414" type="line"/>
			<point x="330.6" y="1414" type="line"/>
			<point x="473.8" y="0" type="line"/>
		</contour>
	</outline>
</glyph>
<glyph name="bracketright" format="2">
	<unicode hex="005D"/>
	<advance width="776.6"/>
	<outline>
		<contour>
			<point x="850.6" y="1464" type="line"/>
			<point x="350.2" y="1464" type="line"/>
			<point x="306.6" y="1323" type="line"/>
			<point x="596.2" y="1323" type="line"/>
			<point x="167.8" y="-79.2" type="line"/>
			<point x="-121.8" y="-79.2" type="line"/>
			<point x="-165.4" y="-220.2" type="line"/>
			<point x="335.8" y="-220.2" type="line"/>
		</contour>
	</outline>
</glyph>
<glyph name="asciicircum" format="2">
	<unicode hex="005E"/>
	<advance width="1200"/>
	<outline>
		<contour>
			<point x="824.2" y="1306.4" type="line"/>
			<point x="925.4" y="647.6" type="line"/>
			<point x="1071.4" y="647.6" type="line"/>
			<point x="950.2" y="1414" type="line"/>
			<point x="805" y="1414" type="line"/>
			<point x="215.8" y="647.6" type="line"/>
			<point x="392.2" y="647.6" type="line"/>
			<point x="895.6" y="1306.4" type="line"/>
		</contour>
	</outline>
</glyph>
<glyph name="a" format="2">
	<unicode hex="0061"/>
	<advance width="1358.2"/>
	<outline>
		<contour>
			<point x="768.4" y="105.8" type="line" smooth="yes"/>
			<point x="732.4" y="14.4"/>
			<point x="765" y="-22"/>
			<point x="867.8" y="-22" type="curve" smooth="yes"/>
			<point x="963.2" y="-22"/>
			<point x="1113.8" y="17.8"/>
			<point x="1327.2" y="193.4" type="curve"/>
			<point x="1281" y="269.2" type="line"/>
			<point x="1130.8" y="171.2"/>
			<point x="1001.4" y="146.2"/>
			<point x="891.2" y="156.2" type="curve"/>
			<point x="944.4" y="76" type="line"/>
			<point x="1282.2" y="1028" type="line"/>
			<point x="1110.2" y="1028" type="line"/>
			<point x="983.8" y="843.8" type="line"/>
			<point x="945" y="745.6" type="line" smooth="yes"/>
			<point x="835.2" y="459.8"/>
			<point x="567.4" y="141.8"/>
			<point x="419" y="141.8" type="curve" smooth="yes"/>
			<point x="335.2" y="141.8"/>
			<point x="282.8" y="184.6"/>
			<point x="282.8" y="271.8" type="curve" smooth="yes"/>
			<point x="282.8" y="502.4"/>
			<point x="519.2" y="908.6"/>
			<point x="782.8" y="908.6" type="curve" smooth="yes"/>
			<point x="866.4" y="908.6"/>
			<point x="937.6" y="872.4"/>
			<point x="990.8" y="760.6" type="curve"/>
			<point x="999.2" y="820.4" type="line"/>
			<point x="964.4" y="969"/>
			<point x="880" y="1050"/>
			<point x="738.6" y="1050" type="curve" smooth="yes"/>
			<point x="358.8" y="1050"/>
			<point x="40.2" y="570.2"/>
			<point x="40.2" y="235.4" type="curve" smooth="yes"/>
			<point x="40.2" y="66.2"/>
			<point x="159.4" y="-22"/>
			<point x="315.8" y="-22" type="curve" smooth="yes"/>
			<point x="467" y="-22"/>
			<point x="608.6" y="55"/>
			<point x="889.2" y="485.2" type="curve"/>
			<point x="916" y="485.2" type="line"/>
		</contour>
	</outline>
	<anchor name="top" x="875.2" y="1028"/>
	<anchor name="right" x="1193.6" y="0"/>
	<anchor name="bottom" x="502" y="0"/>
</glyph>
<glyph name="b" format="2">
	<unicode hex="0062"/>
	<advance width="1224"/>
	<outline>
		<contour>
			<point x="350.6" y="350.6" type="curve" smooth="yes"/>
			<point x="386.4" y="457.6" type="line" smooth="yes"/>
			<point x="463" y="687.8"/>
			<point x="649.8" y="869.6"/>
			<point x="792" y="869.6" type="curve" smooth="yes"/>
			<point x="878.2" y="869.6"/>
			<point x="923.4" y="816.2"/>
			<point x="923.4" y="721.2" type="curve" smooth="yes"/>
			<point x="923.4" y="425.6"/>
			<point x="717.8" y="109.6"/>
			<point x="504.2" y="109.6" type="curve" smooth="yes"/>
			<point x="397.8" y="109.6"/>
			<point x="333.6" y="166.2"/>
			<point x="333.6" y="258.8" type="curve" smooth="yes"/>
			<point x="333.6" y="285.6"/>
			<point x="339.2" y="316.4"/>
		</contour>
		<contour>
			<point x="384" y="1240.6" type="curve"/>
			<point x="130.4" y="386.2" type="line" smooth="yes"/>
			<point x="116.2" y="337"/>
			<point x="108.6" y="292.2"/>
			<point x="108.6" y="250.8" type="curve" smooth="yes"/>
			<point x="108.6" y="82"/>
			<point x="231.2" y="-22"/>
			<point x="469.2" y="-22" type="curve" smooth="yes"/>
			<point x="847.4" y="-22"/>
			<point x="1169.4" y="390.8"/>
			<point x="1169.4" y="758" type="curve" smooth="yes"/>
			<point x="1169.4" y="922.6"/>
			<point x="1071.8" y="1050"/>
			<point x="904" y="1050" type="curve" smooth="yes"/>
			<point x="762.8" y="1050"/>
			<point x="602.6" y="959.8"/>
			<point x="421.4" y="681.4" type="curve"/>
			<point x="394.8" y="681.4" type="line"/>
			<point x="702.2" y="1486" type="line"/>
			<point x="655.6" y="1486" type="line"/>
			<point x="203.2" y="1410" type="line"/>
			<point x="184.8" y="1332.2" type="line"/>
			<point x="242.8" y="1305.8"/>
			<point x="346" y="1257.8"/>
		</contour>
	</outline>
	<anchor name="UCtop" x="914.8" y="1414"/>
	<anchor name="bottom" x="393.4" y="0"/>
</glyph>
<glyph name="c" format="2">
	<unicode hex="0063"/>
	<advance width="1063.2"/>
	<outline>
		<contour>
			<point x="694.4" y="926" type="curve" smooth="yes"/>
			<point x="727.8" y="926"/>
			<point x="766.4" y="890.8"/>
			<point x="810.4" y="828.8" type="curve" smooth="yes"/>
			<point x="854.4" y="766.8"/>
			<point x="887.8" y="730"/>
			<point x="912.2" y="730" type="curve" smooth="yes"/>
			<point x="981.4" y="730"/>
			<point x="1053" y="791.2"/>
			<point x="1053" y="869.4" type="curve" smooth="yes"/>
			<point x="1053" y="972"/>
			<point x="946.6" y="1050"/>
			<point x="740.6" y="1050" type="curve" smooth="yes"/>
			<point x="349.8" y="1050"/>
			<point x="79.2" y="735.8"/>
			<point x="79.2" y="342.8" type="curve" smooth="yes"/>
			<point x="79.2" y="94.4"/>
			<point x="206.2" y="-22"/>
			<point x="460" y="-22" type="curve" smooth="yes"/>
			<point x="698.6" y="-22"/>
			<point x="851.4" y="106.4"/>
			<point x="960.6" y="358.4" type="curve"/>
			<point x="857" y="358.4" type="line"/>
			<point x="767.6" y="208.8"/>
			<point x="661.2" y="152.6"/>
			<point x="530" y="152.6" type="curve" smooth="yes"/>
			<point x="385.4" y="152.6"/>
			<point x="317.4" y="209.6"/>
			<point x="317.4" y="393.2" type="curve" smooth="yes"/>
			<point x="317.4" y="700.8"/>
			<point x="473.2" y="926"/>
		</contour>
	</outline>
	<anchor name="top" x="706" y="1028"/>
	<anchor name="right" x="801.4" y="0"/>
	<anchor name="bottom" x="439.8" y="0"/>
</glyph>
<glyph name="d" format="2">
	<unicode hex="0064"/>
	<advance width="1356"/>
	<outline>
		<contour>
			<point x="990.4" y="760.6" type="curve"/>
			<point x="998.8" y="820.4" type="line"/>
			<point x="964" y="969"/>
			<point x="880" y="1050"/>
			<point x="738.6" y="1050" type="curve" smooth="yes"/>
			<point x="358.8" y="1050"/>
			<point x="40.2" y="570.2"/>
			<point x="40.2" y="235.4" type="curve" smooth="yes"/>
			<point x="40.2" y="66.2"/>
			<point x="159.4" y="-22"/>
			<point x="315.4" y="-22" type="curve" smooth="yes"/>
			<point x="466.6" y="-22"/>
			<point x="608.2" y="55"/>
			<point x="888.8" y="485.2" type="curve"/>
			<point x="915.6" y="485.2" type="line"/>
			<point x="768.4" y="105" type="line" smooth="yes"/>
			<point x="732.8" y="13.4"/>
			<point x="766.8" y="-22"/>
			<point x="869.6" y="-22" type="curve" smooth="yes"/>
			<point x="965" y="-22"/>
			<point x="1115.6" y="17.8"/>
			<point x="1329" y="193.4" type="curve"/>
			<point x="1282.8" y="269.2" type="line"/>
			<point x="1132.6" y="171.2"/>
			<point x="1003.2" y="146.2"/>
			<point x="893" y="156.2" type="curve"/>
			<point x="946.2" y="76" type="line"/>
			<point x="1423.8" y="1486" type="line"/>
			<point x="1377.2" y="1486" type="line"/>
			<point x="927.2" y="1410" type="line"/>
			<point x="908.8" y="1332.2" type="line"/>
			<point x="965.8" y="1305.838896427"/>
			<point x="1071.4" y="1256.8491180461"/>
			<point x="1107.4" y="1240.2" type="curve"/>
			<point x="967.8" y="803.6" type="line" smooth="yes"/>
			<point x="863.8" y="473"/>
			<point x="571" y="141.8"/>
			<point x="418.6" y="141.8" type="curve" smooth="yes"/>
			<point x="334.8" y="141.8"/>
			<point x="282.4" y="184.6"/>
			<point x="282.4" y="271.8" type="curve" smooth="yes"/>
			<point x="282.4" y="502.4"/>
			<point x="518.8" y="908.6"/>
			<point x="782.4" y="908.6" type="curve" smooth="yes"/>
			<point x="866.2" y="908.6"/>
			<point x="937" y="872.8"/>
		</contour>
	</outline>
	<anchor name="UCtop" x="967.6" y="1414"/>
	<anchor name="right" x="1416.2" y="1464"/>
	<anchor name="bottom" x="518.8" y="0"/>
	<anchor name="center" x="1171.8" y="1207"/>
</glyph>
<glyph name="e" format="2">
	<unicode hex="0065"/>
	<advance width="1096.6"/>
	<outline>
		<contour>
			<point x="700.2" y="921.8" type="curve" smooth="yes"/>
			<point x="794" y="921.8"/>
			<point x="841.8" y="869.8"/>
			<point x="841.8" y="787.8" type="curve" smooth="yes"/>
			<point x="841.8" y="677.6"/>
			<point x="827.2" y="645.8"/>
			<point x="283.8" y="555.8" type="curve"/>
			<point x="276.8" y="455" type="line"/>
			<point x="496.2" y="476.8"/>
			<point x="757.4" y="519.2"/>
			<point x="998" y="585.2" type="curve"/>
			<point x="1035.4" y="648.2"/>
			<point x="1056.8" y="725.8"/>
			<point x="1056.8" y="795" type="curve" smooth="yes"/>
			<point x="1056.8" y="937.2"/>
			<point x="970.4" y="1050"/>
			<point x="745.2" y="1050" type="curve" smooth="yes"/>
			<point x="355.8" y="1050"/>
			<point x="78.6" y="742.8"/>
			<point x="78.6" y="334" type="curve" smooth="yes"/>
			<point x="78.6" y="97.4"/>
			<point x="198.8" y="-22"/>
			<point x="448.8" y="-22" type="curve" smooth="yes"/>
			<point x="651.2" y="-22"/>
			<point x="830" y="71.4"/>
			<point x="964.4" y="351.6" type="curve"/>
			<point x="860.2" y="351.6" type="line"/>
			<point x="767.4" y="208.6"/>
			<point x="652.8" y="152.6"/>
			<point x="523" y="152.6" type="curve" smooth="yes"/>
			<point x="376.2" y="152.6"/>
			<point x="317.2" y="209.6"/>
			<point x="317.2" y="393.2" type="curve" smooth="yes"/>
			<point x="317.2" y="725.4"/>
			<point x="500.6" y="921.8"/>
		</contour>
	</outline>
	<anchor name="top" x="698" y="1028"/>
	<anchor name="right" x="839.2" y="0"/>
	<anchor name="bottom" x="446" y="0"/>
</glyph>
<glyph name="f" format="2">
  <advance width="845.4"/>
  <unicode hex="0066"/>
  <anchor x="935.0" y="1414.0" name="UCtop"/>
  <anchor x="7.0" y="-443.0" name="bottom"/>
  <outline>
    <contour>
      <point x="141.8" y="897.2" type="line"/>
      <point x="938.2" y="897.2" type="line"/>
      <point x="938.2" y="1028.0" type="line"/>
      <point x="141.8" y="1028.0" type="line"/>
    </contour>
    <contour>
      <point x="499.20000000000005" y="255.8" type="curve" smooth="yes"/>
      <point x="670.8000000000001" y="1078.0" type="line" smooth="yes"/>
      <point x="714.1999999999999" y="1286.4"/>
      <point x="803.8000000000001" y="1371.6"/>
      <point x="957.0" y="1371.6" type="curve" smooth="yes"/>
      <point x="1000.4" y="1371.6"/>
      <point x="1027.0" y="1367.8000000000002"/>
      <point x="1049.8" y="1346.1999999999998" type="curve" smooth="yes"/>
      <point x="1072.6" y="1324.6"/>
      <point x="1084.6" y="1279.0"/>
      <point x="1094.6000000000001" y="1195.2" type="curve" smooth="yes"/>
      <point x="1234.4" y="1195.2"/>
      <point x="1290.4" y="1243.4"/>
      <point x="1290.4" y="1332.0" type="curve" smooth="yes"/>
      <point x="1290.4" y="1425.2"/>
      <point x="1201.6000000000001" y="1486.0"/>
      <point x="999.4" y="1486.0" type="curve" smooth="yes"/>
      <point x="691.4" y="1486.0"/>
      <point x="477.4" y="1295.4"/>
      <point x="420.40000000000003" y="993.4000000000001" type="curve" smooth="yes"/>
      <point x="238.39999999999998" y="23.4" type="line" smooth="yes"/>
      <point x="185.8" y="-252.0"/>
      <point x="94.60000000000001" y="-341.6"/>
      <point x="-15.200000000000001" y="-341.6" type="curve" smooth="yes"/>
      <point x="-54.6" y="-341.6"/>
      <point x="-80.19999999999999" y="-335.8"/>
      <point x="-98.4" y="-310.8" type="curve" smooth="yes"/>
      <point x="-116.6" y="-285.79999999999995"/>
      <point x="-125.19999999999999" y="-240.2"/>
      <point x="-132.2" y="-159.8" type="curve" smooth="yes"/>
      <point x="-266.6" y="-159.8"/>
      <point x="-323.6" y="-206.0"/>
      <point x="-323.6" y="-297.8" type="curve" smooth="yes"/>
      <point x="-323.6" y="-402.0"/>
      <point x="-255.20000000000002" y="-465.0"/>
      <point x="-101.39999999999999" y="-465.0" type="curve" smooth="yes"/>
      <point x="184.6" y="-465.0"/>
      <point x="395.2" y="-238.79999999999998"/>
    </contour>
  </outline>
</glyph>
<glyph name="g" format="2">
	<unicode hex="0067"/>
	<advance width="1126.4"/>
	<outline>
		<contour>
			<point x="1151.4" y="859.6" type="curve" smooth="yes"/>
			<point x="1180.6" y="859.6"/>
			<point x="1261.2" y="990"/>
			<point x="1261.2" y="1028.2" type="curve" smooth="yes"/>
			<point x="1261.2" y="1037.6"/>
			<point x="1254.8" y="1041"/>
			<point x="1244.8" y="1041" type="curve" smooth="yes"/>
			<point x="1186.6" y="1041"/>
			<point x="962.2" y="1028.6"/>
			<point x="759.2" y="1029.6" type="curve"/>
			<point x="763.2" y="944" type="line"/>
			<point x="1020" y="905.8"/>
			<point x="1128.8" y="859.6"/>
		</contour>
		<contour>
			<point x="489.6" y="457.2" type="curve"/>
			<point x="391.1992524039" y="455.5999862826"/>
			<point x="352" y="504.2666666667"/>
			<point x="351.8" y="606.6" type="curve" smooth="yes"/>
			<point x="351.4" y="764.4941176471"/>
			<point x="464" y="929"/>
			<point x="630.8" y="929" type="curve"/>
			<point x="729" y="929"/>
			<point x="768.4" y="881.1132075472"/>
			<point x="768.6" y="779.8" type="curve" smooth="yes"/>
			<point x="769" y="621.9058823529"/>
			<point x="656.0000582931" y="458.0000003409"/>
		</contour>
		<contour>
			<point x="643" y="1050" type="curve"/>
			<point x="345.4" y="1050"/>
			<point x="133.8" y="832.6"/>
			<point x="134.4" y="595.8" type="curve" smooth="yes"/>
			<point x="135" y="457"/>
			<point x="223.8" y="336.2"/>
			<point x="477.2" y="336.2" type="curve"/>
			<point x="774.8" y="336.2"/>
			<point x="986.2" y="553.8"/>
			<point x="985.6" y="789.8" type="curve" smooth="yes"/>
			<point x="985" y="929.2"/>
			<point x="896.6" y="1050"/>
		</contour>
		<contour>
			<point x="364.8" y="-464.2" type="curve" smooth="yes"/>
			<point x="787.2" y="-464.2"/>
			<point x="964.6" y="-323.4"/>
			<point x="964.6" y="-125.6" type="curve" smooth="yes"/>
			<point x="964.6" y="19.8"/>
			<point x="871.4" y="108.2"/>
			<point x="547.4" y="154.2" type="curve" smooth="yes"/>
			<point x="284.4" y="191"/>
			<point x="250.6" y="208.8"/>
			<point x="250.6" y="260.6" type="curve" smooth="yes"/>
			<point x="250.6" y="309"/>
			<point x="293" y="337.6"/>
			<point x="440.4" y="341" type="curve"/>
			<point x="438.2" y="372.4" type="line"/>
			<point x="217.2" y="355.6"/>
			<point x="66.2" y="317.2"/>
			<point x="66.2" y="177" type="curve" smooth="yes"/>
			<point x="66.2" y="89.4"/>
			<point x="103.8" y="12.4"/>
			<point x="390.2" y="-28.4" type="curve" smooth="yes"/>
			<point x="692.2" y="-71.4"/>
			<point x="749.2" y="-101.6"/>
			<point x="749.2" y="-182.2" type="curve" smooth="yes"/>
			<point x="749.2" y="-274.2"/>
			<point x="637" y="-344.4"/>
			<point x="422.4" y="-344.4" type="curve" smooth="yes"/>
			<point x="168" y="-344.4"/>
			<point x="81.4" y="-279"/>
			<point x="81.4" y="-181.8" type="curve" smooth="yes"/>
			<point x="81.4" y="-79.4"/>
			<point x="141.2" y="-9.6"/>
			<point x="391.4" y="-6.8" type="curve"/>
			<point x="231.8" y="79.6" type="line"/>
			<point x="218" y="10.2" type="line"/>
			<point x="-51.2" y="-34.4"/>
			<point x="-131.8" y="-100.4"/>
			<point x="-131.8" y="-225.4" type="curve" smooth="yes"/>
			<point x="-131.8" y="-358.6"/>
			<point x="-6" y="-464.2"/>
		</contour>
	</outline>
	<anchor name="top" x="632.4" y="1028"/>
	<anchor name="bottom" x="395.2" y="-443"/>
</glyph>
<glyph name="h" format="2">
	<unicode hex="0068"/>
	<advance width="1353.6"/>
	<outline>
		<contour>
			<point x="355.6" y="228.2" type="line"/>
			<point x="476.4" y="600.4"/>
			<point x="680.8" y="852"/>
			<point x="870" y="852" type="curve" smooth="yes"/>
			<point x="934" y="852"/>
			<point x="963.4" y="826.4"/>
			<point x="963.4" y="785" type="curve" smooth="yes"/>
			<point x="963.4" y="756.2"/>
			<point x="954.6" y="718.6"/>
			<point x="920.6" y="636.6" type="curve" smooth="yes"/>
			<point x="704.4" y="124.4" type="line" smooth="yes"/>
			<point x="660.6" y="19.2"/>
			<point x="703" y="-22"/>
			<point x="797.6" y="-22" type="curve" smooth="yes"/>
			<point x="923.6" y="-22"/>
			<point x="1086" y="21.8"/>
			<point x="1311" y="189.8" type="curve"/>
			<point x="1262.6" y="269.8" type="line"/>
			<point x="1099.2" y="183.8"/>
			<point x="987.2" y="154.4"/>
			<point x="882.8" y="162.2" type="curve"/>
			<point x="925.2" y="86.2" type="line"/>
			<point x="1144" y="605.2" type="line" smooth="yes"/>
			<point x="1198" y="734.4"/>
			<point x="1212.6" y="804.6"/>
			<point x="1212.6" y="860.6" type="curve" smooth="yes"/>
			<point x="1212.6" y="968"/>
			<point x="1142.8" y="1050"/>
			<point x="992.6" y="1050" type="curve" smooth="yes"/>
			<point x="769.4" y="1050"/>
			<point x="588.6" y="916.8"/>
			<point x="369" y="463" type="curve"/>
			<point x="331.2" y="463" type="line"/>
			<point x="725" y="1486" type="line"/>
			<point x="678.4" y="1486" type="line"/>
			<point x="228.4" y="1410" type="line"/>
			<point x="210" y="1332.2" type="line"/>
			<point x="267" y="1306.0707664884"/>
			<point x="373.2" y="1257.1026737968"/>
			<point x="409.2" y="1240.6" type="curve"/>
			<point x="35" y="0" type="line"/>
			<point x="281.6" y="0" type="line"/>
		</contour>
	</outline>
	<anchor name="UCtop" x="891.8" y="1414"/>
	<anchor name="bottom" x="515.8" y="0"/>
	<anchor name="center" x="557.6" y="1207"/>
</glyph>
<glyph name="i" format="2">
	<unicode hex="0069"/>
	<advance width="786.4"/>
	<outline>
		<contour>
			<point x="146.4" y="165" type="line" smooth="yes"/>
			<point x="86.8" y="15.6"/>
			<point x="116.6" y="-22"/>
			<point x="229.4" y="-22" type="curve" smooth="yes"/>
			<point x="347.4" y="-22"/>
			<point x="505.6" y="21.8"/>
			<point x="720.8" y="187.6" type="curve"/>
			<point x="672.8" y="267.6" type="line"/>
			<point x="535.2" y="179.8"/>
			<point x="412.4" y="156"/>
			<point x="298.2" y="163.8" type="curve"/>
			<point x="352.4" y="86.2" type="line"/>
			<point x="660" y="863" type="line" smooth="yes"/>
			<point x="713.8" y="998.2"/>
			<point x="682.4" y="1050"/>
			<point x="559.4" y="1050" type="curve" smooth="yes"/>
			<point x="455" y="1050"/>
			<point x="300.6" y="1013.2"/>
			<point x="48" y="816" type="curve"/>
			<point x="101.4" y="736.2" type="line"/>
			<point x="272.4" y="844.2"/>
			<point x="393.2" y="872.4"/>
			<point x="503.2" y="866" type="curve"/>
			<point x="453.8" y="942" type="line"/>
		</contour>
		<contour>
			<point x="488" y="1318.2" type="curve" smooth="yes"/>
			<point x="488" y="1246.2"/>
			<point x="541.4" y="1202.4"/>
			<point x="654.4" y="1202.4" type="curve" smooth="yes"/>
			<point x="794.6" y="1202.4"/>
			<point x="859.6" y="1273"/>
			<point x="859.6" y="1370.2" type="curve" smooth="yes"/>
			<point x="859.6" y="1442.2"/>
			<point x="806.2" y="1486"/>
			<point x="693.2" y="1486" type="curve" smooth="yes"/>
			<point x="553" y="1486"/>
			<point x="488" y="1415.4"/>
		</contour>
	</outline>
	<anchor name="top" x="690" y="1414"/>
	<anchor name="bottom" x="254.2" y="0"/>
	<anchor name="right" x="454" y="0"/>
</glyph>
<glyph name="j" format="2">
	<unicode hex="006A"/>
	<advance width="708.6"/>
	<outline>
		<contour>
			<point x="458" y="1318.2" type="curve" smooth="yes"/>
			<point x="458" y="1246.2"/>
			<point x="511.4" y="1202.4"/>
			<point x="624.4" y="1202.4" type="curve" smooth="yes"/>
			<point x="764.6" y="1202.4"/>
			<point x="829.6" y="1273"/>
			<point x="829.6" y="1370.2" type="curve" smooth="yes"/>
			<point x="829.6" y="1442.2"/>
			<point x="776.2" y="1486"/>
			<point x="663.2" y="1486" type="curve" smooth="yes"/>
			<point x="523" y="1486"/>
			<point x="458" y="1415.4"/>
		</contour>
		<contour>
			<point x="427.8" y="193.6" type="curve" smooth="yes"/>
			<point x="627.6" y="863" type="line" smooth="yes"/>
			<point x="669.2" y="1001.4"/>
			<point x="649.2" y="1050"/>
			<point x="529.4" y="1050" type="curve" smooth="yes"/>
			<point x="417.6" y="1050"/>
			<point x="271" y="994.4"/>
			<point x="34.2" y="808.4" type="curve"/>
			<point x="87.6" y="728.6" type="line"/>
			<point x="267.8" y="842.6"/>
			<point x="380.2" y="872.2"/>
			<point x="473.2" y="866" type="curve"/>
			<point x="423.8" y="942" type="line"/>
			<point x="170.6" y="90.6" type="line" smooth="yes"/>
			<point x="65.6" y="-259"/>
			<point x="-5.4" y="-307.2"/>
			<point x="-85.4" y="-307.2" type="curve" smooth="yes"/>
			<point x="-97" y="-307.2"/>
			<point x="-120.4" y="-287.4"/>
			<point x="-161.2" y="-249.6" type="curve" smooth="yes"/>
			<point x="-202" y="-211.8"/>
			<point x="-234.2" y="-177.2"/>
			<point x="-242.2" y="-177.2" type="curve" smooth="yes"/>
			<point x="-308.4" y="-177.2"/>
			<point x="-366.4" y="-236"/>
			<point x="-366.4" y="-314" type="curve" smooth="yes"/>
			<point x="-366.4" y="-399.6"/>
			<point x="-316.2" y="-465"/>
			<point x="-181.6" y="-465" type="curve" smooth="yes"/>
			<point x="64.2" y="-465"/>
			<point x="296" y="-248.2"/>
		</contour>
	</outline>
	<anchor name="top" x="635.8" y="1414"/>
	<anchor name="bottom" x="-58.4" y="-443"/>
</glyph>
<glyph name="k" format="2">
	<unicode hex="006B"/>
	<advance width="1277"/>
	<outline>
		<contour>
			<point x="723.4" y="1486" type="line"/>
			<point x="676.8" y="1486" type="line"/>
			<point x="232.4" y="1410" type="line"/>
			<point x="214" y="1332.2" type="line"/>
			<point x="271" y="1306.0707664884"/>
			<point x="377.2" y="1257.1026737968"/>
			<point x="413.2" y="1240.6" type="curve"/>
			<point x="31.8" y="0" type="line"/>
			<point x="269.6" y="0" type="line"/>
		</contour>
		<contour>
			<point x="429.2" y="568.6" type="line"/>
			<point x="607.6" y="111.8"/>
			<point x="703.4" y="-22"/>
			<point x="824.6" y="-22" type="curve" smooth="yes"/>
			<point x="912" y="-22"/>
			<point x="1032.4" y="41.4"/>
			<point x="1200" y="244" type="curve"/>
			<point x="1141.6" y="305.4" type="line"/>
			<point x="1043" y="203"/>
			<point x="991.4" y="159.2"/>
			<point x="944.6" y="159.2" type="curve" smooth="yes"/>
			<point x="869.6" y="159.2"/>
			<point x="808.8" y="259.2"/>
			<point x="623.2" y="685.4" type="curve"/>
			<point x="552.2" y="574.2" type="line"/>
			<point x="857.2" y="821.8"/>
			<point x="936.4" y="864.8"/>
			<point x="995" y="864.8" type="curve" smooth="yes"/>
			<point x="1014.2" y="864.8"/>
			<point x="1039" y="836"/>
			<point x="1063" y="802.4" type="curve" smooth="yes"/>
			<point x="1087" y="768.8"/>
			<point x="1110" y="731.8"/>
			<point x="1118" y="731.8" type="curve" smooth="yes"/>
			<point x="1178.4" y="731.8"/>
			<point x="1286" y="784"/>
			<point x="1286" y="913.8" type="curve" smooth="yes"/>
			<point x="1286" y="991"/>
			<point x="1234" y="1050"/>
			<point x="1121.8" y="1050" type="curve" smooth="yes"/>
			<point x="961.4" y="1050"/>
			<point x="835" y="964"/>
			<point x="441.4" y="596.6" type="curve"/>
		</contour>
	</outline>
	<anchor name="UCtop" x="848.2" y="1414"/>
	<anchor name="bottom" x="519.8" y="0"/>
</glyph>
<glyph name="l" format="2">
	<unicode hex="006C"/>
	<advance width="718.2"/>
	<outline>
		<contour>
			<point x="426" y="1240.6" type="curve"/>
			<point x="92.2" y="164.2" type="line" smooth="yes"/>
			<point x="46.4" y="17.4"/>
			<point x="75.2" y="-22"/>
			<point x="181" y="-22" type="curve" smooth="yes"/>
			<point x="299" y="-22"/>
			<point x="452.4" y="19.6"/>
			<point x="672.4" y="189.6" type="curve"/>
			<point x="624.6" y="269.4" type="line"/>
			<point x="485.8" y="182"/>
			<point x="360.8" y="157.2"/>
			<point x="246.6" y="166" type="curve"/>
			<point x="298.8" y="82.6" type="line"/>
			<point x="736.2" y="1486" type="line"/>
			<point x="689.6" y="1486" type="line"/>
			<point x="245.2" y="1410" type="line"/>
			<point x="226.8" y="1332.2" type="line"/>
			<point x="283.8" y="1306.0707664884"/>
			<point x="390" y="1257.1026737968"/>
		</contour>
	</outline>
	<anchor name="UCtop" x="568.2" y="1414"/>
	<anchor name="bottom" x="221.8" y="0"/>
	<anchor name="right" x="729.4" y="1464"/>
	<anchor name="mid" x="706.6" y="532"/>
</glyph>
<glyph name="m" format="2">
	<unicode hex="006D"/>
	<advance width="2039"/>
	<outline>
		<contour>
			<point x="1608.8" y="86.2" type="line"/>
			<point x="1828.6" y="605.2" type="line" smooth="yes"/>
			<point x="1883" y="734.2"/>
			<point x="1897.2" y="804.6"/>
			<point x="1897.2" y="860.6" type="curve" smooth="yes"/>
			<point x="1897.2" y="968"/>
			<point x="1828.4" y="1050"/>
			<point x="1681.2" y="1050" type="curve" smooth="yes"/>
			<point x="1478" y="1050"/>
			<point x="1305.6" y="918.6"/>
			<point x="1094.4" y="463" type="curve"/>
			<point x="1057.4" y="463" type="line"/>
			<point x="1117.6" y="643" type="line" smooth="yes"/>
			<point x="1156.8" y="759.8"/>
			<point x="1174.2" y="823.4"/>
			<point x="1174.2" y="886.6" type="curve" smooth="yes"/>
			<point x="1174.2" y="982.8"/>
			<point x="1124" y="1050"/>
			<point x="996.8" y="1050" type="curve" smooth="yes"/>
			<point x="829.6" y="1050"/>
			<point x="673.4" y="929.6"/>
			<point x="462.8" y="463" type="curve"/>
			<point x="425" y="463" type="line"/>
			<point x="610.6" y="1044.6" type="line"/>
			<point x="563.2" y="1048.4"/>
			<point x="532" y="1049.2"/>
			<point x="488" y="1049.2" type="curve" smooth="yes"/>
			<point x="268" y="1049.2"/>
			<point x="129.8" y="979.6"/>
			<point x="67.4" y="717.8" type="curve"/>
			<point x="84.8" y="712.2" type="line"/>
			<point x="164.6" y="821.2"/>
			<point x="247.8" y="855.8"/>
			<point x="378" y="855.8" type="curve" smooth="yes"/>
			<point x="381.6" y="855.8"/>
			<point x="385.8" y="855.8"/>
			<point x="388.2" y="855.8" type="curve"/>
			<point x="129.4" y="0" type="line"/>
			<point x="375.4" y="0" type="line"/>
			<point x="449.4" y="228.2" type="line" smooth="yes"/>
			<point x="571.6" y="603.6"/>
			<point x="741.2" y="854"/>
			<point x="911.4" y="854" type="curve" smooth="yes"/>
			<point x="974.4" y="854"/>
			<point x="997.6" y="828"/>
			<point x="997.6" y="786.6" type="curve" smooth="yes"/>
			<point x="997.6" y="758.6"/>
			<point x="989.4" y="720.8"/>
			<point x="961" y="638.2" type="curve" smooth="yes"/>
			<point x="743.6" y="0" type="line"/>
			<point x="990.6" y="0" type="line"/>
			<point x="1075" y="247.4" type="line"/>
			<point x="1196.2" y="604.2"/>
			<point x="1382.4" y="854"/>
			<point x="1561.8" y="854" type="curve" smooth="yes"/>
			<point x="1625" y="854"/>
			<point x="1649.4" y="827.6"/>
			<point x="1649.4" y="785.2" type="curve" smooth="yes"/>
			<point x="1649.4" y="758"/>
			<point x="1640.2" y="720.4"/>
			<point x="1606" y="638.6" type="curve" smooth="yes"/>
			<point x="1388" y="124.4" type="line" smooth="yes"/>
			<point x="1343.8" y="19.2"/>
			<point x="1386.6" y="-22"/>
			<point x="1481.2" y="-22" type="curve" smooth="yes"/>
			<point x="1607.2" y="-22"/>
			<point x="1769.6" y="21.8"/>
			<point x="1994.6" y="189.8" type="curve"/>
			<point x="1946.2" y="269.8" type="line"/>
			<point x="1782.8" y="183.8"/>
			<point x="1670.8" y="154.4"/>
			<point x="1566.4" y="162.2" type="curve"/>
		</contour>
	</outline>
	<anchor name="top" x="1202.6" y="1028"/>
	<anchor name="bottom" x="885" y="0"/>
</glyph>
<glyph name="n" format="2">
	<unicode hex="006E"/>
	<advance width="1447.4"/>
	<outline>
		<contour>
			<point x="84.8" y="712.2" type="line"/>
			<point x="164.6" y="821.2"/>
			<point x="247.8" y="855.8"/>
			<point x="378" y="855.8" type="curve" smooth="yes"/>
			<point x="381.6" y="855.8"/>
			<point x="385.8" y="855.8"/>
			<point x="388.2" y="855.8" type="curve"/>
			<point x="129.4" y="0" type="line"/>
			<point x="375.4" y="0" type="line"/>
			<point x="449.4" y="228.2" type="line"/>
			<point x="570.2" y="600.4"/>
			<point x="774.6" y="852"/>
			<point x="963.8" y="852" type="curve" smooth="yes"/>
			<point x="1027.8" y="852"/>
			<point x="1057.2" y="826.4"/>
			<point x="1057.2" y="785" type="curve" smooth="yes"/>
			<point x="1057.2" y="756.2"/>
			<point x="1048.4" y="718.6"/>
			<point x="1014.4" y="636.6" type="curve" smooth="yes"/>
			<point x="798.2" y="124.4" type="line" smooth="yes"/>
			<point x="754.0841339395" y="18.976769352"/>
			<point x="796.7272727273" y="-22"/>
			<point x="891.4" y="-22" type="curve" smooth="yes"/>
			<point x="1017.4" y="-22"/>
			<point x="1179.8" y="21.8"/>
			<point x="1404.8" y="189.8" type="curve"/>
			<point x="1356.4" y="269.8" type="line"/>
			<point x="1193" y="183.8"/>
			<point x="1081" y="154.4"/>
			<point x="976.6" y="162.2" type="curve"/>
			<point x="1019" y="86.2" type="line"/>
			<point x="1237.8" y="605.2" type="line" smooth="yes"/>
			<point x="1291.8" y="734.4"/>
			<point x="1306.4" y="804.6"/>
			<point x="1306.4" y="860.6" type="curve" smooth="yes"/>
			<point x="1306.4" y="968"/>
			<point x="1236.6" y="1050"/>
			<point x="1086.4" y="1050" type="curve" smooth="yes"/>
			<point x="863.2" y="1050"/>
			<point x="682.4" y="916.8"/>
			<point x="462.8" y="463" type="curve"/>
			<point x="425" y="463" type="line"/>
			<point x="610.6" y="1044.6" type="line"/>
			<point x="563.2" y="1048.4"/>
			<point x="532" y="1049.2"/>
			<point x="488" y="1049.2" type="curve" smooth="yes"/>
			<point x="268" y="1049.2"/>
			<point x="129.8" y="979.6"/>
			<point x="67.4" y="717.8" type="curve"/>
		</contour>
	</outline>
	<anchor name="top" x="871.6" y="1028"/>
	<anchor name="bottom" x="604" y="0"/>
</glyph>
<glyph name="o" format="2">
	<unicode hex="006F"/>
	<advance width="1205.8"/>
	<outline>
		<contour>
			<point x="721.2" y="1050" type="curve" smooth="yes"/>
			<point x="344.4" y="1050"/>
			<point x="77.8" y="719"/>
			<point x="77.8" y="344" type="curve" smooth="yes"/>
			<point x="77.8" y="132.6"/>
			<point x="210.8" y="-22"/>
			<point x="482.4" y="-22" type="curve" smooth="yes"/>
			<point x="859.2" y="-22"/>
			<point x="1125.8" y="309"/>
			<point x="1125.8" y="684" type="curve" smooth="yes"/>
			<point x="1125.8" y="895.4"/>
			<point x="992.8" y="1050"/>
		</contour>
		<contour>
			<point x="492.8" y="132.2" type="curve" smooth="yes"/>
			<point x="381.2" y="132.2"/>
			<point x="317.6" y="199.4"/>
			<point x="317.6" y="321.6" type="curve" smooth="yes"/>
			<point x="317.6" y="607.6"/>
			<point x="468.8" y="895.8"/>
			<point x="710.8" y="895.8" type="curve" smooth="yes"/>
			<point x="822.4" y="895.8"/>
			<point x="886" y="828.6"/>
			<point x="886" y="706.4" type="curve" smooth="yes"/>
			<point x="886" y="420.4"/>
			<point x="734.8" y="132.2"/>
		</contour>
	</outline>
	<anchor name="top" x="751.8" y="1028"/>
	<anchor name="bottom" x="440.6" y="0"/>
	<anchor name="horn" x="948.2" y="1028"/>
	<anchor name="right" x="590.2" y="0"/>
</glyph>
<glyph name="p" format="2">
	<unicode hex="0070"/>
	<advance width="1350.2"/>
	<outline>
		<contour>
			<point x="438.4" y="296" type="curve" smooth="yes"/>
			<point x="479.4" y="443.8" type="line" smooth="yes"/>
			<point x="529.8" y="625.6"/>
			<point x="732" y="873.4"/>
			<point x="888.8" y="873.4" type="curve" smooth="yes"/>
			<point x="979.6" y="873.4"/>
			<point x="1031.6" y="822"/>
			<point x="1031.6" y="688.2" type="curve" smooth="yes"/>
			<point x="1031.6" y="416.4"/>
			<point x="853.4" y="101.2"/>
			<point x="619.4" y="101.2" type="curve" smooth="yes"/>
			<point x="492.6" y="101.2"/>
			<point x="429.8" y="160.8"/>
			<point x="429.8" y="240.6" type="curve" smooth="yes"/>
			<point x="429.8" y="257.2"/>
			<point x="432" y="274.2"/>
		</contour>
		<contour>
			<point x="332.4" y="154.8" type="line"/>
			<point x="348" y="39.8"/>
			<point x="461.6" y="-21.8"/>
			<point x="622.6" y="-21.8" type="curve" smooth="yes"/>
			<point x="991.8" y="-21.8"/>
			<point x="1283.6" y="345.8"/>
			<point x="1283.6" y="737.2" type="curve" smooth="yes"/>
			<point x="1283.6" y="923.6"/>
			<point x="1183.8" y="1050"/>
			<point x="996" y="1050" type="curve" smooth="yes"/>
			<point x="835.4" y="1050"/>
			<point x="680.6" y="940.2"/>
			<point x="513.8" y="664.8" type="curve"/>
			<point x="487.8" y="664.8" type="line"/>
			<point x="610.6" y="1045" type="line"/>
			<point x="568.8" y="1048.4"/>
			<point x="535.6" y="1049.4"/>
			<point x="491.2" y="1049.4" type="curve" smooth="yes"/>
			<point x="270" y="1049.4"/>
			<point x="128.4" y="980"/>
			<point x="66" y="718.6" type="curve"/>
			<point x="82.4" y="712.4" type="line"/>
			<point x="162.6" y="821.4"/>
			<point x="246.6" y="856.6"/>
			<point x="378.6" y="856.6" type="curve" smooth="yes"/>
			<point x="382.6" y="856.6"/>
			<point x="386.8" y="856.6"/>
			<point x="390" y="856.4" type="curve"/>
			<point x="38.2" y="-314" type="line"/>
			<point x="-111" y="-352.2" type="line"/>
			<point x="-137.8" y="-443" type="line"/>
			<point x="427.6" y="-443" type="line"/>
			<point x="455.8" y="-352" type="line"/>
			<point x="271.8" y="-313.8" type="line"/>
			<point x="412.2" y="154.8" type="line"/>
		</contour>
	</outline>
	<anchor name="top" x="834" y="1028"/>
	<anchor name="bottom" x="115.6" y="-443"/>
</glyph>
<glyph name="q" format="2">
	<unicode hex="0071"/>
	<advance width="1273.2"/>
	<outline>
		<contour>
			<point x="632.6" y="-315.4" type="line"/>
			<point x="444.4" y="-352" type="line"/>
			<point x="417.6" y="-443" type="line"/>
			<point x="993" y="-443" type="line"/>
			<point x="1021" y="-352.2" type="line"/>
			<point x="872" y="-312.8" type="line"/>
			<point x="1255.4" y="1028" type="line"/>
			<point x="1092.6" y="1028" type="line"/>
			<point x="983.8" y="843.8" type="line"/>
			<point x="924.2" y="673.6" type="line" smooth="yes"/>
			<point x="829.6972942143" y="399.7724894576"/>
			<point x="583.0446124764" y="141.8"/>
			<point x="423.8" y="141.8" type="curve" smooth="yes"/>
			<point x="336.8" y="141.8"/>
			<point x="282.8" y="184.6"/>
			<point x="282.8" y="271.8" type="curve" smooth="yes"/>
			<point x="282.8" y="502.4"/>
			<point x="519.2" y="908.6"/>
			<point x="782.8" y="908.6" type="curve" smooth="yes"/>
			<point x="866.4" y="908.6"/>
			<point x="937.6" y="872.4"/>
			<point x="990.8" y="760.6" type="curve"/>
			<point x="999.2" y="820.4" type="line"/>
			<point x="964.4" y="969"/>
			<point x="880" y="1050"/>
			<point x="738.6" y="1050" type="curve" smooth="yes"/>
			<point x="358.8" y="1050"/>
			<point x="40.2" y="570.2"/>
			<point x="40.2" y="235.4" type="curve" smooth="yes"/>
			<point x="40.2" y="66.2"/>
			<point x="159.4" y="-22"/>
			<point x="315.8" y="-22" type="curve" smooth="yes"/>
			<point x="451.879704797" y="-22"/>
			<point x="596.6" y="22.2"/>
			<point x="829.2" y="367.6" type="curve"/>
			<point x="856" y="367.6" type="line"/>
		</contour>
	</outline>
	<anchor name="top" x="833" y="1028"/>
	<anchor name="bottom" x="713.2" y="-443"/>
</glyph>
<glyph name="r" format="2">
	<unicode hex="0072"/>
	<advance width="1093.2"/>
	<outline>
		<contour>
			<point x="388.2" y="855.8" type="curve"/>
			<point x="128.6" y="0" type="line"/>
			<point x="374.6" y="0" type="line"/>
			<point x="452.4" y="244.6" type="line" smooth="yes"/>
			<point x="553.4" y="562"/>
			<point x="741.6" y="835"/>
			<point x="865.6" y="835" type="curve" smooth="yes"/>
			<point x="880.8" y="835"/>
			<point x="914.2" y="807.8"/>
			<point x="945.2" y="780" type="curve" smooth="yes"/>
			<point x="976.2" y="752.2"/>
			<point x="1006.6" y="723"/>
			<point x="1013" y="723" type="curve" smooth="yes"/>
			<point x="1058.2" y="723"/>
			<point x="1170.8" y="793.8"/>
			<point x="1170.8" y="918" type="curve" smooth="yes"/>
			<point x="1170.8" y="990.6"/>
			<point x="1121.8" y="1050"/>
			<point x="1006.4" y="1050" type="curve" smooth="yes"/>
			<point x="838" y="1050"/>
			<point x="688.6" y="922"/>
			<point x="481.2" y="519" type="curve"/>
			<point x="443.4" y="519" type="line"/>
			<point x="614.6" y="1044.6" type="line"/>
			<point x="571" y="1048.2"/>
			<point x="535.8" y="1049.2"/>
			<point x="488" y="1049.2" type="curve" smooth="yes"/>
			<point x="268" y="1049.2"/>
			<point x="129.8" y="979.6"/>
			<point x="67.4" y="717.8" type="curve"/>
			<point x="84.8" y="712.2" type="line"/>
			<point x="164.6" y="821.2"/>
			<point x="247.8" y="855.8"/>
			<point x="378" y="855.8" type="curve" smooth="yes"/>
			<point x="381.6" y="855.8"/>
			<point x="385.8" y="855.8"/>
		</contour>
	</outline>
	<anchor name="top" x="702.8" y="1028"/>
	<anchor name="bottom" x="252" y="0"/>
</glyph>
<glyph name="s" format="2">
	<unicode hex="0073"/>
	<advance width="1000"/>
	<outline>
		<contour>
			<point x="238.2" y="306.8" type="curve" smooth="yes"/>
			<point x="69.8" y="306.8"/>
			<point x="27.2" y="255.6"/>
			<point x="27.2" y="163" type="curve" smooth="yes"/>
			<point x="27.2" y="58.6"/>
			<point x="113.2" y="-22"/>
			<point x="349.4" y="-22" type="curve" smooth="yes"/>
			<point x="650.6" y="-22"/>
			<point x="855.6" y="107.2"/>
			<point x="855.6" y="336.2" type="curve" smooth="yes"/>
			<point x="855.6" y="461"/>
			<point x="809.8" y="548"/>
			<point x="615.6" y="618.6" type="curve" smooth="yes"/>
			<point x="421.4" y="689.2"/>
			<point x="395" y="723.4"/>
			<point x="395" y="790.6" type="curve" smooth="yes"/>
			<point x="395" y="873.6"/>
			<point x="484.8" y="927.4"/>
			<point x="617.2" y="927.4" type="curve" smooth="yes"/>
			<point x="663.6" y="927.4"/>
			<point x="692" y="923.2"/>
			<point x="717" y="901.2" type="curve" smooth="yes"/>
			<point x="742" y="879.2"/>
			<point x="759.4" y="832.8"/>
			<point x="776.6" y="748.4" type="curve" smooth="yes"/>
			<point x="904.2" y="748.4"/>
			<point x="964" y="801.2"/>
			<point x="964" y="882.2" type="curve" smooth="yes"/>
			<point x="964" y="991.8"/>
			<point x="859" y="1049.8"/>
			<point x="661.8" y="1049.8" type="curve" smooth="yes"/>
			<point x="376" y="1049.8"/>
			<point x="196" y="919.4"/>
			<point x="196" y="716.2" type="curve" smooth="yes"/>
			<point x="196" y="593"/>
			<point x="251.2" y="519.2"/>
			<point x="437" y="461.2" type="curve" smooth="yes"/>
			<point x="622.8" y="403.2"/>
			<point x="660" y="356.4"/>
			<point x="660" y="279" type="curve" smooth="yes"/>
			<point x="660" y="162.4"/>
			<point x="543.6" y="99.2"/>
			<point x="389.8" y="99.2" type="curve" smooth="yes"/>
			<point x="339.4" y="99.2"/>
			<point x="312" y="103.8"/>
			<point x="288.2" y="128.6" type="curve" smooth="yes"/>
			<point x="264.4" y="153.4"/>
			<point x="251.2" y="204.8"/>
		</contour>
	</outline>
	<anchor name="top" x="625.2" y="1028"/>
	<anchor name="bottom" x="416" y="0"/>
</glyph>
<glyph name="t" format="2">
	<unicode hex="0074"/>
	<advance width="880.4"/>
	<outline>
		<contour>
			<point x="149.8" y="897.2" type="line"/>
			<point x="926.8" y="897.2" type="line"/>
			<point x="926.8" y="1028" type="line"/>
			<point x="152.2" y="1028" type="line"/>
		</contour>
		<contour>
			<point x="457.6" y="363" type="curve" smooth="yes"/>
			<point x="741.4" y="1253.6" type="line"/>
			<point x="511.4" y="1253.6" type="line"/>
			<point x="225.4" y="344.2" type="line" smooth="yes"/>
			<point x="190" y="232.6"/>
			<point x="176.8" y="168.8"/>
			<point x="176.8" y="122.8" type="curve" smooth="yes"/>
			<point x="176.8" y="24.6"/>
			<point x="226.4" y="-22"/>
			<point x="311.4" y="-22" type="curve" smooth="yes"/>
			<point x="415.8" y="-22"/>
			<point x="565.8" y="29.8"/>
			<point x="778.2" y="227.8" type="curve"/>
			<point x="720.6" y="303.2" type="line"/>
			<point x="574.4" y="184"/>
			<point x="503.4" y="160.6"/>
			<point x="458.8" y="160.6" type="curve" smooth="yes"/>
			<point x="431.8" y="160.6"/>
			<point x="418.6" y="168.4"/>
			<point x="418.6" y="203" type="curve" smooth="yes"/>
			<point x="418.6" y="226.4"/>
			<point x="430" y="276.6"/>
		</contour>
	</outline>
	<anchor name="bottom" x="364.4" y="0"/>
	<anchor name="right" x="781.2" y="1535"/>
</glyph>
<glyph name="u" format="2">
  <advance width="1412.4"/>
  <unicode hex="0075"/>
  <anchor x="825.4" y="1028.0" name="top"/>
  <anchor x="1204.6" y="0.0" name="right"/>
  <anchor x="577.8" y="0.0" name="bottom"/>
  <anchor x="1273.8" y="1028.0" name="horn"/>
  <outline>
    <contour>
      <point x="840.8" y="105.8" type="line" smooth="yes"/>
      <point x="809.8000000000001" y="16.2"/>
      <point x="840.5999999999999" y="-22.0"/>
      <point x="927.0" y="-22.0" type="curve" smooth="yes"/>
      <point x="1013.8000000000001" y="-22.0"/>
      <point x="1167.4" y="20.0"/>
      <point x="1382.2" y="194.79999999999998" type="curve"/>
      <point x="1335.2" y="272.0" type="line"/>
      <point x="1181.4" y="173.39999999999998"/>
      <point x="1051.1999999999998" y="146.2"/>
      <point x="942.4" y="156.6" type="curve"/>
      <point x="1001.1999999999999" y="73.8" type="line"/>
      <point x="1313.0" y="1028.0" type="line"/>
      <point x="1067.0" y="1028.0" type="line"/>
      <point x="917.0" y="636.6" type="line" smooth="yes"/>
      <point x="766.4" y="235.2"/>
      <point x="594.6" y="161.2"/>
      <point x="491.0" y="161.2" type="curve" smooth="yes"/>
      <point x="436.40000000000003" y="161.2"/>
      <point x="400.4" y="183.6"/>
      <point x="400.4" y="228.2" type="curve" smooth="yes"/>
      <point x="400.4" y="256.4"/>
      <point x="412.0" y="297.6"/>
      <point x="436.0" y="359.0" type="curve" smooth="yes"/>
      <point x="634.8" y="860.0" type="line" smooth="yes"/>
      <point x="687.5999999999999" y="994.2"/>
      <point x="654.4" y="1050.0"/>
      <point x="546.2" y="1050.0" type="curve" smooth="yes"/>
      <point x="433.0" y="1050.0"/>
      <point x="272.8" y="1003.6"/>
      <point x="44.0" y="805.0" type="curve"/>
      <point x="98.0" y="727.0" type="line"/>
      <point x="241.4" y="828.4"/>
      <point x="360.0" y="871.2"/>
      <point x="468.8" y="867.4" type="curve"/>
      <point x="427.2" y="942.0" type="line"/>
      <point x="229.4" y="437.2" type="line" smooth="yes"/>
      <point x="171.2" y="287.6"/>
      <point x="158.4" y="219.4"/>
      <point x="158.4" y="165.79999999999998" type="curve" smooth="yes"/>
      <point x="158.4" y="57.6"/>
      <point x="228.8" y="-22.0"/>
      <point x="385.2" y="-22.0" type="curve" smooth="yes"/>
      <point x="562.6" y="-22.0"/>
      <point x="693.5999999999999" y="40.60000000000001"/>
      <point x="933.2" y="468.0" type="curve"/>
      <point x="965.8000000000001" y="468.0" type="line"/>
    </contour>
  </outline>
</glyph>
<glyph name="v" format="2">
  <advance width="1264"/>
  <unicode hex="0076"/>
  <anchor x="784.0" y="1028.0" name="top"/>
  <anchor x="496.79999999999995" y="0.0" name="bottom"/>
  <outline>
    <contour>
      <point x="1196.6" y="823.4000000000001" type="curve" smooth="yes"/>
      <point x="1196.6" y="976.8"/>
      <point x="1126.3999999999999" y="1050.0"/>
      <point x="1025.4" y="1050.0" type="curve" smooth="yes"/>
      <point x="925.0" y="1050.0"/>
      <point x="850.8" y="985.8"/>
      <point x="850.8" y="880.8000000000001" type="curve" smooth="yes"/>
      <point x="850.8" y="824.8"/>
      <point x="1019.6" y="820.0"/>
      <point x="1019.6" y="658.1999999999999" type="curve" smooth="yes"/>
      <point x="1019.6" y="384.0"/>
      <point x="772.6" y="145.0"/>
      <point x="559.8" y="145.0" type="curve" smooth="yes"/>
      <point x="465.6" y="145.0"/>
      <point x="417.8" y="171.20000000000002"/>
      <point x="417.8" y="237.8" type="curve" smooth="yes"/>
      <point x="417.8" y="261.2"/>
      <point x="423.6" y="289.40000000000003"/>
      <point x="434.8" y="323.6" type="curve" smooth="yes"/>
      <point x="682.0" y="1044.6" type="line"/>
      <point x="626.4" y="1048.8000000000002"/>
      <point x="585.8" y="1050.0"/>
      <point x="534.6" y="1050.0" type="curve" smooth="yes"/>
      <point x="271.0" y="1050.0"/>
      <point x="144.2" y="979.2"/>
      <point x="72.8" y="717.8" type="curve"/>
      <point x="90.2" y="712.2" type="line"/>
      <point x="170.0" y="821.2"/>
      <point x="253.2" y="855.8000000000001"/>
      <point x="383.4" y="855.8000000000001" type="curve" smooth="yes"/>
      <point x="387.0" y="855.8000000000001"/>
      <point x="391.2" y="855.8000000000001"/>
      <point x="393.59999999999997" y="855.8000000000001" type="curve"/>
      <point x="215.8" y="343.0" type="line" smooth="yes"/>
      <point x="197.0" y="288.40000000000003"/>
      <point x="187.6" y="239.2"/>
      <point x="187.6" y="195.60000000000002" type="curve" smooth="yes"/>
      <point x="187.6" y="55.6"/>
      <point x="285.79999999999995" y="-22.0"/>
      <point x="482.2" y="-22.0" type="curve" smooth="yes"/>
      <point x="838.8" y="-22.0"/>
      <point x="1196.6" y="340.40000000000003"/>
    </contour>
  </outline>
</glyph>
<glyph name="w" format="2">
	<unicode hex="0077"/>
	<advance width="1802.6"/>
	<outline>
		<contour>
			<point x="1011" y="1028" type="line"/>
			<point x="879.6" y="579.2" type="line" smooth="yes"/>
			<point x="781.6" y="245.2"/>
			<point x="636.4" y="145"/>
			<point x="513.8" y="145" type="curve" smooth="yes"/>
			<point x="445.2" y="145"/>
			<point x="409.6" y="166.4"/>
			<point x="409.6" y="222.6" type="curve" smooth="yes"/>
			<point x="409.6" y="245.6"/>
			<point x="415.4" y="274.6"/>
			<point x="427.4" y="310" type="curve" smooth="yes"/>
			<point x="678.8" y="1044.6" type="line"/>
			<point x="623.2" y="1048.4"/>
			<point x="582.6" y="1050"/>
			<point x="531.4" y="1050" type="curve" smooth="yes"/>
			<point x="267.8" y="1050"/>
			<point x="141" y="979.2"/>
			<point x="69.6" y="717.8" type="curve"/>
			<point x="87" y="712.2" type="line"/>
			<point x="166.8" y="821.2"/>
			<point x="250" y="855.8"/>
			<point x="380.2" y="855.8" type="curve" smooth="yes"/>
			<point x="385.4" y="855.8"/>
			<point x="385.6" y="855.8"/>
			<point x="390.4" y="855.8" type="curve"/>
			<point x="212.6" y="343" type="line" smooth="yes"/>
			<point x="193.4" y="287.2"/>
			<point x="183.8" y="236"/>
			<point x="183.8" y="191.2" type="curve" smooth="yes"/>
			<point x="183.8" y="56.8"/>
			<point x="269.2" y="-22"/>
			<point x="423.6" y="-22" type="curve" smooth="yes"/>
			<point x="612.8" y="-22"/>
			<point x="771.2" y="98.4"/>
			<point x="927.2" y="466" type="curve"/>
			<point x="960.8" y="466" type="line"/>
			<point x="906.8" y="291.4" type="line" smooth="yes"/>
			<point x="890" y="238.4"/>
			<point x="882" y="192.4"/>
			<point x="882" y="154.6" type="curve" smooth="yes"/>
			<point x="882" y="31"/>
			<point x="958.6" y="-22"/>
			<point x="1096.8" y="-22" type="curve" smooth="yes"/>
			<point x="1408.2" y="-22"/>
			<point x="1731.6" y="333.8"/>
			<point x="1731.6" y="823.4" type="curve" smooth="yes"/>
			<point x="1731.6" y="979.4"/>
			<point x="1664.4" y="1050"/>
			<point x="1563.6" y="1050" type="curve" smooth="yes"/>
			<point x="1464" y="1050"/>
			<point x="1388.2" y="981"/>
			<point x="1388.2" y="878.8" type="curve" smooth="yes"/>
			<point x="1388.2" y="822.8"/>
			<point x="1557.8" y="818"/>
			<point x="1557.8" y="658.2" type="curve" smooth="yes"/>
			<point x="1557.8" y="391.6"/>
			<point x="1332.2" y="145"/>
			<point x="1129.8" y="145" type="curve" smooth="yes"/>
			<point x="1058.4" y="145"/>
			<point x="1019.2" y="170.6"/>
			<point x="1019.2" y="237" type="curve" smooth="yes"/>
			<point x="1019.2" y="260.8"/>
			<point x="1024.8" y="290.6"/>
			<point x="1034.8" y="326.4" type="curve" smooth="yes"/>
			<point x="1239.6" y="1028" type="line"/>
		</contour>
	</outline>
	<anchor name="top" x="1104.2" y="1028"/>
	<anchor name="bottom" x="797" y="0"/>
</glyph>
<glyph name="x" format="2">
	<unicode hex="0078"/>
	<advance width="1300.4"/>
	<outline>
		<contour>
			<point x="700.2" y="472.8" type="line"/>
			<point x="844.2" y="645" type="line" smooth="yes"/>
			<point x="948" y="773"/>
			<point x="1033.4" y="831.4"/>
			<point x="1076.4" y="831.4" type="curve" smooth="yes"/>
			<point x="1087.2" y="831.4"/>
			<point x="1114.6" y="809"/>
			<point x="1141" y="784.8" type="curve" smooth="yes"/>
			<point x="1167.4" y="760.6"/>
			<point x="1195.2" y="734.8"/>
			<point x="1202.8" y="734.8" type="curve" smooth="yes"/>
			<point x="1241.4" y="734.8"/>
			<point x="1341.2" y="806"/>
			<point x="1341.2" y="913" type="curve" smooth="yes"/>
			<point x="1341.2" y="990.4"/>
			<point x="1285.4" y="1050"/>
			<point x="1179" y="1050" type="curve" smooth="yes"/>
			<point x="1075" y="1050"/>
			<point x="992.2" y="1003.6"/>
			<point x="856.2" y="834.2" type="curve" smooth="yes"/>
			<point x="659.6" y="584" type="line"/>
			<point x="600.4" y="567.4" type="line"/>
			<point x="440.6" y="383" type="line" smooth="yes"/>
			<point x="320.2" y="242.2"/>
			<point x="246.4" y="196.6"/>
			<point x="208.2" y="196.6" type="curve" smooth="yes"/>
			<point x="196.8" y="196.6"/>
			<point x="169" y="220.6"/>
			<point x="142" y="244.8" type="curve" smooth="yes"/>
			<point x="115" y="269"/>
			<point x="89.2" y="293.2"/>
			<point x="81.8" y="293.2" type="curve" smooth="yes"/>
			<point x="43.2" y="293.2"/>
			<point x="-56.4" y="222"/>
			<point x="-56.4" y="115" type="curve" smooth="yes"/>
			<point x="-56.4" y="37.6"/>
			<point x="-0.6" y="-22"/>
			<point x="105.8" y="-22" type="curve" smooth="yes"/>
			<point x="212.4" y="-22"/>
			<point x="291.8" y="29.8"/>
			<point x="428.6" y="193.8" type="curve" smooth="yes"/>
			<point x="636.4" y="447.6" type="line"/>
		</contour>
		<contour>
			<point x="1223.2" y="244.2" type="curve"/>
			<point x="1168.2" y="311.4" type="line"/>
			<point x="1028.2" y="203.8"/>
			<point x="915.6" y="156.6"/>
			<point x="881.8" y="156.6" type="curve" smooth="yes"/>
			<point x="868.2" y="156.6"/>
			<point x="865.4" y="164.2"/>
			<point x="853.8" y="205.4" type="curve" smooth="yes"/>
			<point x="662.2" y="907" type="line" smooth="yes"/>
			<point x="634" y="1012.8"/>
			<point x="602.4" y="1050"/>
			<point x="519.4" y="1050" type="curve" smooth="yes"/>
			<point x="409.2" y="1050"/>
			<point x="272.6" y="959.8"/>
			<point x="110.6" y="714.4" type="curve"/>
			<point x="183.4" y="657" type="line"/>
			<point x="294.4" y="788.8"/>
			<point x="393.4" y="865.2"/>
			<point x="430.2" y="865.2" type="curve" smooth="yes"/>
			<point x="441.4" y="865.2"/>
			<point x="444.8" y="857.4"/>
			<point x="452" y="830" type="curve" smooth="yes"/>
			<point x="645" y="120.6" type="line" smooth="yes"/>
			<point x="673.4" y="14"/>
			<point x="703.2" y="-22"/>
			<point x="783" y="-22" type="curve" smooth="yes"/>
			<point x="867.2" y="-22"/>
			<point x="1001.8" y="33.6"/>
		</contour>
	</outline>
	<anchor name="top" x="800" y="1028"/>
	<anchor name="bottom" x="484.8" y="0"/>
</glyph>
<glyph name="y" format="2">
	<unicode hex="0079"/>
	<advance width="1259"/>
	<outline>
		<contour>
			<point x="125.8" y="565.6" type="line"/>
			<point x="227" y="746.4"/>
			<point x="309.4" y="821.6"/>
			<point x="336.6" y="821.6" type="curve" smooth="yes"/>
			<point x="354" y="821.6"/>
			<point x="366.4" y="795.8"/>
			<point x="407.8" y="664.4" type="curve" smooth="yes"/>
			<point x="449.2" y="533"/>
			<point x="519" y="271.2"/>
			<point x="601.4" y="-187.6" type="curve"/>
			<point x="787.8" y="-21" type="line"/>
			<point x="703.2" y="502.4"/>
			<point x="608.4" y="807.4"/>
			<point x="563.4" y="913" type="curve" smooth="yes"/>
			<point x="518.4" y="1018.6"/>
			<point x="491.6" y="1050"/>
			<point x="435.4" y="1050" type="curve" smooth="yes"/>
			<point x="344" y="1050"/>
			<point x="208.8" y="988.6"/>
			<point x="35.6" y="607" type="curve"/>
		</contour>
		<contour>
			<point x="646" y="-35.4" type="line"/>
			<point x="503.8" y="-219.2"/>
			<point x="363.6" y="-286.2"/>
			<point x="269.4" y="-286.2" type="curve" smooth="yes"/>
			<point x="252" y="-286.2"/>
			<point x="215.4" y="-254.6"/>
			<point x="183.4" y="-225.6" type="curve" smooth="yes"/>
			<point x="151.4" y="-196.6"/>
			<point x="121.2" y="-168.8"/>
			<point x="113.6" y="-168.8" type="curve" smooth="yes"/>
			<point x="49.2" y="-168.8"/>
			<point x="-14.4" y="-228.6"/>
			<point x="-14.4" y="-307.8" type="curve" smooth="yes"/>
			<point x="-14.4" y="-393.4"/>
			<point x="35.8" y="-465"/>
			<point x="160.2" y="-465" type="curve" smooth="yes"/>
			<point x="386" y="-465"/>
			<point x="664.6" y="-251.4"/>
			<point x="866" y="61.4" type="curve" smooth="yes"/>
			<point x="1061" y="365"/>
			<point x="1191.6" y="682.2"/>
			<point x="1244.4" y="986.4" type="curve" smooth="yes"/>
			<point x="1250.8" y="1025.8"/>
			<point x="1216.6" y="1045.4"/>
			<point x="1155.8" y="1046.2" type="curve" smooth="yes"/>
			<point x="1102.8" y="1047"/>
			<point x="1062" y="1042.4"/>
			<point x="1010.4" y="1029.4" type="curve"/>
			<point x="981.6" y="548.8"/>
			<point x="844.8" y="217.4"/>
			<point x="696" y="1.4" type="curve"/>
		</contour>
	</outline>
	<anchor name="top" x="741.4" y="1028"/>
	<anchor name="bottom" x="929.8" y="-124.6"/>
</glyph>
<glyph name="z" format="2">
	<unicode hex="007A"/>
	<advance width="1150.2"/>
	<outline>
		<contour>
			<point x="21" y="63" type="line"/>
			<point x="103.8" y="-27.6" type="line"/>
			<point x="1137.4" y="963.8" type="line"/>
			<point x="1054" y="1054.8" type="line"/>
		</contour>
		<contour>
			<point x="197.8" y="659" type="line"/>
			<point x="360" y="872.6"/>
			<point x="377.2" y="863.8"/>
			<point x="542.6" y="799.4" type="curve" smooth="yes"/>
			<point x="800" y="699.6" type="line"/>
			<point x="963" y="892" type="line"/>
			<point x="612.2" y="1024.2" type="line" smooth="yes"/>
			<point x="458.4" y="1081.6"/>
			<point x="316" y="1067"/>
			<point x="107.2" y="707.4" type="curve"/>
		</contour>
		<contour>
			<point x="543.2" y="14.6" type="line" smooth="yes"/>
			<point x="689" y="-61.2"/>
			<point x="808.4" y="-43.2"/>
			<point x="1081.8" y="282" type="curve"/>
			<point x="1023" y="343" type="line"/>
			<point x="818" y="157.2"/>
			<point x="795.6" y="152.8"/>
			<point x="639.8" y="235.2" type="curve" smooth="yes"/>
			<point x="433.6" y="345.6" type="line"/>
			<point x="245.4" y="169" type="line"/>
		</contour>
	</outline>
	<anchor name="top" x="692.8" y="1028"/>
	<anchor name="bottom" x="441.6" y="0"/>
</glyph>
<glyph name="braceleft" format="2">
	<unicode hex="007B"/>
	<advance width="759.8"/>
	<outline>
		<contour>
			<point x="82.4" y="558.8" type="line"/>
			<point x="153.2" y="557.4" type="line" smooth="yes"/>
			<point x="226" y="556"/>
			<point x="258.6" y="530.6"/>
			<point x="258.6" y="476.4" type="curve" smooth="yes"/>
			<point x="258.6" y="351.2"/>
			<point x="107.6" y="136.4"/>
			<point x="107.6" y="-14.6" type="curve" smooth="yes"/>
			<point x="107.6" y="-124.6"/>
			<point x="193.4" y="-221.4"/>
			<point x="346.4" y="-236" type="curve" smooth="yes"/>
			<point x="440.2" y="-245.6" type="line"/>
			<point x="488.6" y="-114.2" type="line"/>
			<point x="413" y="-103.6" type="line" smooth="yes"/>
			<point x="346.2" y="-95.8"/>
			<point x="316.2" y="-67.2"/>
			<point x="316.2" y="-8" type="curve" smooth="yes"/>
			<point x="316.2" y="110.6"/>
			<point x="444" y="361.6"/>
			<point x="444" y="475" type="curve" smooth="yes"/>
			<point x="444" y="560"/>
			<point x="402.6" y="617.6"/>
			<point x="263.6" y="644.6" type="curve"/>
			<point x="248.4" y="595" type="line"/>
			<point x="443" y="615"/>
			<point x="540.6" y="709.2"/>
			<point x="581.4" y="842.2" type="curve" smooth="yes"/>
			<point x="616.8" y="958"/>
			<point x="619.8" y="1085.4"/>
			<point x="652.2" y="1187.8" type="curve" smooth="yes"/>
			<point x="681.2" y="1282.4"/>
			<point x="733" y="1333.6"/>
			<point x="850.8" y="1348" type="curve" smooth="yes"/>
			<point x="933.6" y="1358.6" type="line"/>
			<point x="956.2" y="1489.2" type="line"/>
			<point x="815.6" y="1478.2" type="line" smooth="yes"/>
			<point x="597.6" y="1460.6"/>
			<point x="474" y="1346"/>
			<point x="433.6" y="1214.2" type="curve" smooth="yes"/>
			<point x="393" y="1081"/>
			<point x="407.6" y="947.6"/>
			<point x="372.8" y="832.4" type="curve" smooth="yes"/>
			<point x="340.6" y="727.4"/>
			<point x="289.2" y="689.4"/>
			<point x="191.8" y="686.2" type="curve" smooth="yes"/>
			<point x="121.4" y="685.6" type="line"/>
		</contour>
	</outline>
</glyph>
<glyph name="bar" format="2">
  <advance width="598"/>
  <unicode hex="007C"/>
  <outline>
    <contour>
      <point x="-77.0" y="-465.0" type="line"/>
      <point x="88.60000000000001" y="-465.0" type="line"/>
      <point x="686.8000000000001" y="1535.0" type="line"/>
      <point x="520.4000000000001" y="1535.0" type="line"/>
    </contour>
  </outline>
</glyph>
<glyph name="braceright" format="2">
  <advance width="760"/>
  <unicode hex="007D"/>
  <outline>
    <contour>
      <point x="741.2" y="684.8" type="line"/>
      <point x="670.4" y="686.2" type="line" smooth="yes"/>
      <point x="597.6" y="687.6"/>
      <point x="565.0" y="713.0"/>
      <point x="565.0" y="767.1999999999999" type="curve" smooth="yes"/>
      <point x="565.0" y="892.4000000000001"/>
      <point x="716.0" y="1107.2"/>
      <point x="716.0" y="1258.1999999999998" type="curve" smooth="yes"/>
      <point x="716.0" y="1368.2"/>
      <point x="630.2" y="1465.0"/>
      <point x="477.2" y="1479.6000000000001" type="curve" smooth="yes"/>
      <point x="383.4" y="1489.2" type="line"/>
      <point x="335.0" y="1357.8" type="line"/>
      <point x="410.6" y="1347.2" type="line" smooth="yes"/>
      <point x="477.4" y="1339.4"/>
      <point x="507.4" y="1310.8"/>
      <point x="507.4" y="1251.6" type="curve" smooth="yes"/>
      <point x="507.4" y="1133.0"/>
      <point x="379.59999999999997" y="882.0"/>
      <point x="379.59999999999997" y="768.6" type="curve" smooth="yes"/>
      <point x="379.59999999999997" y="683.6"/>
      <point x="421.0" y="626.0"/>
      <point x="560.0" y="599.0" type="curve"/>
      <point x="575.1999999999999" y="648.6" type="line"/>
      <point x="380.6" y="628.5999999999999"/>
      <point x="283.0" y="534.4000000000001"/>
      <point x="242.2" y="401.40000000000003" type="curve" smooth="yes"/>
      <point x="206.79999999999998" y="285.59999999999997"/>
      <point x="203.79999999999998" y="158.2"/>
      <point x="171.39999999999998" y="55.800000000000004" type="curve" smooth="yes"/>
      <point x="142.39999999999998" y="-38.8"/>
      <point x="90.6" y="-90.0"/>
      <point x="-27.200000000000003" y="-104.39999999999999" type="curve" smooth="yes"/>
      <point x="-110.0" y="-115.00000000000001" type="line"/>
      <point x="-132.6" y="-245.60000000000002" type="line"/>
      <point x="8.000000000000004" y="-234.6" type="line" smooth="yes"/>
      <point x="226.0" y="-217.0"/>
      <point x="349.6" y="-102.4"/>
      <point x="390.0" y="29.4" type="curve" smooth="yes"/>
      <point x="430.59999999999997" y="162.6"/>
      <point x="416.0" y="296.0"/>
      <point x="450.8" y="411.2" type="curve" smooth="yes"/>
      <point x="483.0" y="516.1999999999999"/>
      <point x="534.4" y="554.2"/>
      <point x="631.8" y="557.4" type="curve" smooth="yes"/>
      <point x="702.1999999999999" y="558.0" type="line"/>
    </contour>
  </outline>
</glyph>
<glyph name="asciitilde" format="2">
	<unicode hex="007E"/>
	<advance width="1200"/>
	<outline>
		<contour>
			<point x="1068" y="665" type="curve"/>
			<point x="921" y="665" type="line"/>
			<point x="883.2" y="554"/>
			<point x="836.6" y="512.8"/>
			<point x="763.6" y="512.8" type="curve" smooth="yes"/>
			<point x="647.6" y="512.8"/>
			<point x="588" y="674.8"/>
			<point x="430.4" y="674.8" type="curve" smooth="yes"/>
			<point x="299.6" y="674.8"/>
			<point x="198.2" y="605"/>
			<point x="130.6" y="367.6" type="curve"/>
			<point x="277.6" y="367.6" type="line"/>
			<point x="316.2" y="477.8"/>
			<point x="362.8" y="519"/>
			<point x="435" y="519" type="curve" smooth="yes"/>
			<point x="551" y="519"/>
			<point x="610.6" y="357"/>
			<point x="768.2" y="357" type="curve" smooth="yes"/>
			<point x="899" y="357"/>
			<point x="1000.4" y="426.8"/>
		</contour>
	</outline>
</glyph>
<glyph name="exclamdown" format="2">
	<unicode hex="00A1"/>
	<advance width="633"/>
	<outline>
		<contour>
			<point x="-88.8" y="-346.6" type="line" smooth="yes"/>
			<point x="-102.2" y="-386.4"/>
			<point x="-83" y="-407.6"/>
			<point x="39.6" y="-407.6" type="curve" smooth="yes"/>
			<point x="159.4" y="-407.6"/>
			<point x="189.6" y="-386.4"/>
			<point x="200.6" y="-346.6" type="curve" smooth="yes"/>
			<point x="221.8" y="-271.8" type="line" smooth="yes"/>
			<point x="236.2" y="-217.4"/>
			<point x="376.2" y="421.4"/>
			<point x="406.2" y="562.2" type="curve"/>
			<point x="261.8" y="562.2" type="line"/>
			<point x="204.8" y="421.4"/>
			<point x="-45.4" y="-217.4"/>
			<point x="-64.2" y="-271.8" type="curve" smooth="yes"/>
		</contour>
		<contour>
			<point x="387" y="734.8" type="curve" smooth="yes"/>
			<point x="530.6" y="734.8"/>
			<point x="599.6" y="826.8"/>
			<point x="599.6" y="934.4" type="curve" smooth="yes"/>
			<point x="599.6" y="1005.8"/>
			<point x="555.8" y="1045.6"/>
			<point x="473" y="1045.6" type="curve" smooth="yes"/>
			<point x="329.4" y="1045.6"/>
			<point x="260.4" y="953.6"/>
			<point x="260.4" y="846.8" type="curve" smooth="yes"/>
			<point x="260.4" y="774.6"/>
			<point x="304.2" y="734.8"/>
		</contour>
	</outline>
</glyph>
<glyph name="currency" format="2">
	<unicode hex="00A4"/>
	<advance width="1109"/>
	<outline>
		<contour>
			<point x="231.2" y="842.8" type="line"/>
			<point x="340" y="677.2" type="line"/>
			<point x="467.4" y="766" type="line"/>
			<point x="359" y="928.4" type="line"/>
		</contour>
		<contour>
			<point x="944.6" y="887.8" type="line"/>
			<point x="758.6" y="745.4" type="line"/>
			<point x="845.2" y="633.2" type="line"/>
			<point x="1022.2" y="766.8" type="line"/>
		</contour>
		<contour>
			<point x="874" y="190" type="line"/>
			<point x="765.2" y="355.6" type="line"/>
			<point x="637.8" y="266.8" type="line"/>
			<point x="746.2" y="103.6" type="line"/>
		</contour>
		<contour>
			<point x="83" y="266" type="line"/>
			<point x="160.6" y="145" type="line"/>
			<point x="346.6" y="287.4" type="line"/>
			<point x="260" y="399.6" type="line"/>
		</contour>
		<contour>
			<point x="608.4" y="857.2" type="curve" smooth="yes"/>
			<point x="352.8" y="857.2"/>
			<point x="196.6" y="676.6"/>
			<point x="196.6" y="453.2" type="curve" smooth="yes"/>
			<point x="196.6" y="289.2"/>
			<point x="311.8" y="175.6"/>
			<point x="496.8" y="175.6" type="curve" smooth="yes"/>
			<point x="752.4" y="175.6"/>
			<point x="908.6" y="355.4"/>
			<point x="908.6" y="579.6" type="curve" smooth="yes"/>
			<point x="908.6" y="743.6"/>
			<point x="793.4" y="857.2"/>
		</contour>
		<contour>
			<point x="518.6" y="300.2" type="curve" smooth="yes"/>
			<point x="405.6" y="300.2"/>
			<point x="334.8" y="368.6"/>
			<point x="334.8" y="472.8" type="curve" smooth="yes"/>
			<point x="334.8" y="615.8"/>
			<point x="429.6" y="732.6"/>
			<point x="586.6" y="732.6" type="curve" smooth="yes"/>
			<point x="699.6" y="732.6"/>
			<point x="770.4" y="664.2"/>
			<point x="770.4" y="559.2" type="curve" smooth="yes"/>
			<point x="770.4" y="417"/>
			<point x="675.6" y="300.2"/>
		</contour>
	</outline>
</glyph>
<glyph name="brokenbar" format="2">
	<unicode hex="00A6"/>
	<advance width="598.2"/>
	<outline>
		<contour>
			<point x="453.2" y="753.8" type="line"/>
			<point x="686.8" y="1535" type="line"/>
			<point x="520.4" y="1535" type="line"/>
			<point x="286.8" y="753.8" type="line"/>
		</contour>
		<contour>
			<point x="-77" y="-465" type="line"/>
			<point x="88.6" y="-465" type="line"/>
			<point x="323" y="316.2" type="line"/>
			<point x="156.6" y="316.2" type="line"/>
		</contour>
	</outline>
</glyph>
<glyph name="section" format="2">
	<unicode hex="00A7"/>
	<advance width="1273.6"/>
	<outline>
		<contour>
			<point x="689.8" y="798" type="curve"/>
			<point x="595.2" y="841" type="line"/>
			<point x="277.4" y="840.8"/>
			<point x="110.4" y="720.2"/>
			<point x="110.4" y="513.4" type="curve" smooth="yes"/>
			<point x="110.4" y="145.8"/>
			<point x="708.2" y="297.6"/>
			<point x="708.2" y="68.8" type="curve" smooth="yes"/>
			<point x="708.2" y="-15.8"/>
			<point x="637" y="-95.2"/>
			<point x="442.2" y="-95.2" type="curve" smooth="yes"/>
			<point x="260.4" y="-95.2"/>
			<point x="185.8" y="54.8"/>
			<point x="160.2" y="54.8" type="curve" smooth="yes"/>
			<point x="87.2" y="54.8"/>
			<point x="22.4" y="4"/>
			<point x="21.6" y="-82.2" type="curve" smooth="yes"/>
			<point x="20.8" y="-161.8"/>
			<point x="71.2" y="-243.8"/>
			<point x="370" y="-243.8" type="curve" smooth="yes"/>
			<point x="765.6" y="-243.8"/>
			<point x="947.8" y="-73"/>
			<point x="947.8" y="138.8" type="curve" smooth="yes"/>
			<point x="947.8" y="524.2"/>
			<point x="350.6" y="343.4"/>
			<point x="350.6" y="599" type="curve" smooth="yes"/>
			<point x="350.6" y="716"/>
			<point x="450" y="792.2"/>
		</contour>
		<contour>
			<point x="971" y="593.2" type="curve" smooth="yes"/>
			<point x="971" y="476.2"/>
			<point x="871.6" y="400"/>
			<point x="631.8" y="394.2" type="curve"/>
			<point x="726.4" y="351.2" type="line"/>
			<point x="1044.2" y="351.4"/>
			<point x="1211.2" y="472"/>
			<point x="1211.2" y="678.8" type="curve" smooth="yes"/>
			<point x="1211.2" y="1046.4"/>
			<point x="613.4" y="894.6"/>
			<point x="613.4" y="1123.4" type="curve" smooth="yes"/>
			<point x="613.4" y="1208"/>
			<point x="684.6" y="1287.4"/>
			<point x="879.4" y="1287.4" type="curve" smooth="yes"/>
			<point x="1061.2" y="1287.4"/>
			<point x="1135.8" y="1137.4"/>
			<point x="1161.4" y="1137.4" type="curve" smooth="yes"/>
			<point x="1234.4" y="1137.4"/>
			<point x="1299.2" y="1188.2"/>
			<point x="1300" y="1274.4" type="curve" smooth="yes"/>
			<point x="1300.8" y="1354"/>
			<point x="1250.4" y="1436"/>
			<point x="951.6" y="1436" type="curve" smooth="yes"/>
			<point x="556" y="1436"/>
			<point x="373.8" y="1265.2"/>
			<point x="373.8" y="1053.4" type="curve" smooth="yes"/>
			<point x="373.8" y="668"/>
			<point x="971" y="848.8"/>
		</contour>
	</outline>
</glyph>
<glyph name="copyright" format="2">
	<unicode hex="00A9"/>
	<advance width="1770.4"/>
	<outline>
		<contour>
			<point x="964" y="417.2" type="curve" smooth="yes"/>
			<point x="796" y="417.2"/>
			<point x="705" y="492.4"/>
			<point x="705" y="629" type="curve" smooth="yes"/>
			<point x="705" y="843.4"/>
			<point x="823.8" y="1000.6"/>
			<point x="1049.8" y="1000.6" type="curve" smooth="yes"/>
			<point x="1140" y="1000.6"/>
			<point x="1196" y="984.8"/>
			<point x="1252.2" y="945.2" type="curve"/>
			<point x="1209.2" y="1044.4" type="line"/>
			<point x="1199" y="834.6" type="line"/>
			<point x="1285.4" y="834.6" type="line"/>
			<point x="1378.4" y="1140" type="line"/>
			<point x="1308.4" y="1140" type="line"/>
			<point x="1235.6" y="1065.2" type="line"/>
			<point x="1306.6" y="1082.8" type="line"/>
			<point x="1241.6" y="1108.8"/>
			<point x="1162.6" y="1123"/>
			<point x="1073" y="1123" type="curve" smooth="yes"/>
			<point x="706.2" y="1123"/>
			<point x="504.6" y="907.4"/>
			<point x="504.6" y="620.4" type="curve" smooth="yes"/>
			<point x="504.6" y="408.6"/>
			<point x="643.2" y="301"/>
			<point x="903.8" y="301" type="curve" smooth="yes"/>
			<point x="1002.8" y="301"/>
			<point x="1075.6" y="316.4"/>
			<point x="1163" y="344.2" type="curve"/>
			<point x="1250.8" y="572" type="line"/>
			<point x="1167.8" y="572" type="line"/>
			<point x="1032.2" y="360.8" type="line"/>
			<point x="1145.8" y="453.2" type="line"/>
			<point x="1084.8" y="428.2"/>
			<point x="1018" y="417.2"/>
		</contour>
		<contour>
			<point x="868.2" y="92" type="curve" smooth="yes"/>
			<point x="501.2" y="92"/>
			<point x="308.6" y="254.4"/>
			<point x="308.6" y="553.6" type="curve" smooth="yes"/>
			<point x="308.6" y="938.2"/>
			<point x="540.4" y="1322"/>
			<point x="1018" y="1322" type="curve" smooth="yes"/>
			<point x="1385" y="1322"/>
			<point x="1577.6" y="1159.6"/>
			<point x="1577.6" y="860.4" type="curve" smooth="yes"/>
			<point x="1577.6" y="475.8"/>
			<point x="1345.8" y="92"/>
		</contour>
		<contour>
			<point x="1029" y="1436" type="curve" smooth="yes"/>
			<point x="467" y="1436"/>
			<point x="180.2" y="997.8"/>
			<point x="180.2" y="536.8" type="curve" smooth="yes"/>
			<point x="180.2" y="181"/>
			<point x="417.2" y="-22"/>
			<point x="857.2" y="-22" type="curve" smooth="yes"/>
			<point x="1419.2" y="-22"/>
			<point x="1706" y="416.2"/>
			<point x="1706" y="877.2" type="curve" smooth="yes"/>
			<point x="1706" y="1233"/>
			<point x="1469" y="1436"/>
		</contour>
	</outline>
</glyph>
<glyph name="ordfeminine" format="2">
	<unicode hex="00AA"/>
	<advance width="1067.4"/>
	<outline>
		<contour>
			<point x="193.2" y="490.4" type="line"/>
			<point x="885.2" y="490.4" type="line"/>
			<point x="931" y="640" type="line"/>
			<point x="239.2" y="640" type="line"/>
		</contour>
		<contour>
			<point x="729.8" y="864" type="line" smooth="yes"/>
			<point x="701.2" y="783.2"/>
			<point x="727.6" y="761"/>
			<point x="797.2" y="761" type="curve" smooth="yes"/>
			<point x="871.8" y="761"/>
			<point x="950.4" y="779.2"/>
			<point x="1086.8" y="867.2" type="curve"/>
			<point x="1068" y="917" type="line"/>
			<point x="964.4" y="872.8"/>
			<point x="903.8" y="866.2"/>
			<point x="816.2" y="872.4" type="curve"/>
			<point x="889" y="804" type="line"/>
			<point x="1099.8" y="1414" type="line"/>
			<point x="919.8" y="1414" type="line"/>
			<point x="855.4" y="1303.2" type="line"/>
			<point x="811.6" y="1187.8" type="line" smooth="yes"/>
			<point x="756.4" y="1042"/>
			<point x="640" y="887.2"/>
			<point x="548.2" y="887.2" type="curve" smooth="yes"/>
			<point x="494.8" y="887.2"/>
			<point x="472.8" y="910.6"/>
			<point x="472.8" y="961" type="curve" smooth="yes"/>
			<point x="472.8" y="1094.6"/>
			<point x="616.4" y="1327.4"/>
			<point x="743.8" y="1327.4" type="curve" smooth="yes"/>
			<point x="792.2" y="1327.4"/>
			<point x="831.4" y="1306"/>
			<point x="860.2" y="1242.2" type="curve"/>
			<point x="878.2" y="1267.8" type="line"/>
			<point x="846.6" y="1373.4"/>
			<point x="792.2" y="1429.8"/>
			<point x="700.4" y="1429.8" type="curve" smooth="yes"/>
			<point x="470.2" y="1429.8"/>
			<point x="265.6" y="1145.6"/>
			<point x="265.6" y="928.8" type="curve" smooth="yes"/>
			<point x="265.6" y="819.6"/>
			<point x="335.6" y="761"/>
			<point x="442.4" y="761" type="curve" smooth="yes"/>
			<point x="549.4" y="761"/>
			<point x="644" y="808.4"/>
			<point x="782.8" y="1038.4" type="curve"/>
			<point x="796.4" y="1038.4" type="line"/>
		</contour>
	</outline>
</glyph>
<glyph name="guillemotleft" format="2">
	<unicode hex="00AB"/>
	<advance width="1200"/>
	<outline>
		<contour>
			<point x="310.8" y="536.4" type="line"/>
			<point x="286.6" y="455.6" type="line"/>
			<point x="731.6" y="881.8" type="line"/>
			<point x="641.6" y="999.6" type="line"/>
			<point x="123" y="607.6" type="line"/>
			<point x="70.6" y="436.4" type="line"/>
			<point x="368" y="44.4" type="line"/>
			<point x="498.8" y="115" type="line"/>
		</contour>
		<contour>
			<point x="792" y="536.4" type="line"/>
			<point x="767.8" y="455.6" type="line"/>
			<point x="1212.8" y="881.8" type="line"/>
			<point x="1122.8" y="999.6" type="line"/>
			<point x="604.2" y="607.6" type="line"/>
			<point x="551.8" y="436.4" type="line"/>
			<point x="849.2" y="44.4" type="line"/>
			<point x="980" y="115" type="line"/>
		</contour>
	</outline>
</glyph>
<glyph name="logicalnot" format="2">
	<unicode hex="00AC"/>
	<advance width="1200"/>
	<outline>
		<contour>
			<point x="242.4" y="787" type="line"/>
			<point x="195.6" y="633.4" type="line"/>
			<point x="904.4" y="633.4" type="line"/>
			<point x="782.6" y="237" type="line"/>
			<point x="931.2" y="237" type="line"/>
			<point x="1098.8" y="787" type="line"/>
		</contour>
	</outline>
</glyph>
<glyph name="registered" format="2">
	<unicode hex="00AE"/>
	<advance width="1218.2"/>
	<outline>
		<contour>
			<point x="965" y="845.6" type="line"/>
			<point x="929.8" y="845.6"/>
			<point x="925.4" y="847.4"/>
			<point x="924.4" y="885.4" type="curve" smooth="yes"/>
			<point x="922.8" y="931.4" type="line" smooth="yes"/>
			<point x="921.8" y="978.4"/>
			<point x="908.4" y="1001"/>
			<point x="851.8" y="1005" type="curve"/>
			<point x="849.4" y="1003.2" type="line"/>
			<point x="954.6" y="1010.4"/>
			<point x="1002.8" y="1061.6"/>
			<point x="1002.8" y="1136" type="curve" smooth="yes"/>
			<point x="1002.8" y="1196.4"/>
			<point x="963.2" y="1225.8"/>
			<point x="865.8" y="1225.8" type="curve" smooth="yes"/>
			<point x="695.6" y="1225.8" type="line"/>
			<point x="676.8" y="1150" type="line"/>
			<point x="814.6" y="1150" type="line" smooth="yes"/>
			<point x="857.6" y="1150"/>
			<point x="871.4" y="1139.4"/>
			<point x="871.4" y="1114.2" type="curve" smooth="yes"/>
			<point x="871.4" y="1064.6"/>
			<point x="844.4" y="1033.4"/>
			<point x="784.8" y="1033.4" type="curve" smooth="yes"/>
			<point x="640.6" y="1033.4" type="line"/>
			<point x="627.4" y="974.8" type="line"/>
			<point x="751.8" y="974.8" type="line" smooth="yes"/>
			<point x="795.8" y="974.8"/>
			<point x="799.2" y="968.6"/>
			<point x="799" y="927.8" type="curve" smooth="yes"/>
			<point x="797.4" y="857.2" type="line" smooth="yes"/>
			<point x="796.0526315789" y="794.5263157895"/>
			<point x="823" y="782.2"/>
			<point x="949.2" y="794.8" type="curve"/>
		</contour>
		<contour>
			<point x="771" y="1225.8" type="line"/>
			<point x="585.4" y="1225.8" type="line"/>
			<point x="573" y="1186.4" type="line"/>
			<point x="625.6" y="1175.4" type="line"/>
			<point x="525.4" y="845.4" type="line"/>
			<point x="465" y="833.2" type="line"/>
			<point x="453.6" y="794.8" type="line"/>
			<point x="686.6" y="794.8" type="line"/>
			<point x="698" y="833.2" type="line"/>
			<point x="655" y="845.4" type="line"/>
		</contour>
		<contour>
			<point x="717.4" y="645.6" type="curve" smooth="yes"/>
			<point x="474.8" y="645.6"/>
			<point x="369" y="741.8"/>
			<point x="369" y="907" type="curve" smooth="yes"/>
			<point x="369" y="1127.2"/>
			<point x="485.2" y="1347.2"/>
			<point x="786.6" y="1347.2" type="curve" smooth="yes"/>
			<point x="1029.2" y="1347.2"/>
			<point x="1135" y="1250.8"/>
			<point x="1135" y="1085.8" type="curve" smooth="yes"/>
			<point x="1135" y="865.4"/>
			<point x="1018.8" y="645.6"/>
		</contour>
		<contour>
			<point x="798.4" y="1436" type="curve" smooth="yes"/>
			<point x="443.4" y="1436"/>
			<point x="266.6" y="1182.4"/>
			<point x="266.6" y="900.4" type="curve" smooth="yes"/>
			<point x="266.6" y="679.8"/>
			<point x="418.6" y="556.8"/>
			<point x="705.6" y="556.8" type="curve" smooth="yes"/>
			<point x="1060.4" y="556.8"/>
			<point x="1237.4" y="810.4"/>
			<point x="1237.4" y="1091.6" type="curve" smooth="yes"/>
			<point x="1237.4" y="1312.2"/>
			<point x="1085.4" y="1436"/>
		</contour>
	</outline>
</glyph>
<glyph name="degree" format="2">
	<unicode hex="00B0"/>
	<advance width="797.8"/>
	<outline>
		<contour>
			<point x="617.8" y="1434" type="curve" smooth="yes"/>
			<point x="413.8" y="1434"/>
			<point x="276.8" y="1276.8"/>
			<point x="276.8" y="1094.2" type="curve" smooth="yes"/>
			<point x="276.8" y="946.2"/>
			<point x="384.8" y="846"/>
			<point x="545.6" y="846" type="curve" smooth="yes"/>
			<point x="749.6" y="846"/>
			<point x="886.6" y="1003.2"/>
			<point x="886.6" y="1185.8" type="curve" smooth="yes"/>
			<point x="886.6" y="1333.8"/>
			<point x="778.6" y="1434"/>
		</contour>
		<contour>
			<point x="558" y="947" type="curve" smooth="yes"/>
			<point x="454" y="947"/>
			<point x="388.2" y="1008.4"/>
			<point x="388.2" y="1106.6" type="curve" smooth="yes"/>
			<point x="388.2" y="1229.8"/>
			<point x="473.4" y="1333"/>
			<point x="604.2" y="1333" type="curve" smooth="yes"/>
			<point x="709.4" y="1333"/>
			<point x="775.2" y="1271.6"/>
			<point x="775.2" y="1173.4" type="curve" smooth="yes"/>
			<point x="775.2" y="1050.2"/>
			<point x="690" y="947"/>
		</contour>
	</outline>
</glyph>
<glyph name="plusminus" format="2">
  <advance width="1200"/>
  <unicode hex="00B1"/>
  <outline>
    <contour>
      <point x="683.8" y="1032.8" type="line"/>
      <point x="418.79999999999995" y="168.0" type="line"/>
      <point x="567.4" y="168.0" type="line"/>
      <point x="832.4000000000001" y="1032.8" type="line"/>
    </contour>
    <contour>
      <point x="226.79999999999998" y="677.2" type="line"/>
      <point x="180.0" y="523.6" type="line"/>
      <point x="1024.4" y="523.6" type="line"/>
      <point x="1071.1999999999998" y="677.2" type="line"/>
    </contour>
    <contour>
      <point x="67.4" y="153.6" type="line"/>
      <point x="19.8" y="0.0" type="line"/>
      <point x="864.2" y="0.0" type="line"/>
      <point x="911.8000000000001" y="153.6" type="line"/>
    </contour>
  </outline>
</glyph>
<glyph name="uni00B2" format="2">
	<unicode hex="00B2"/>
	<advance width="806.4"/>
	<outline>
		<contour>
			<point x="600.8" y="745.2" type="line"/>
			<point x="783.6" y="829.8" type="line"/>
			<point x="342.4" y="829.8" type="line"/>
			<point x="337.6" y="777.2" type="line"/>
			<point x="581.2" y="919.8" type="line" smooth="yes"/>
			<point x="824.4" y="1057"/>
			<point x="866" y="1143.2"/>
			<point x="866" y="1252.8" type="curve" smooth="yes"/>
			<point x="866" y="1370.8"/>
			<point x="770.4" y="1433.2"/>
			<point x="619.4" y="1433.2" type="curve" smooth="yes"/>
			<point x="439.8" y="1433.2"/>
			<point x="339.2" y="1361"/>
			<point x="265.2" y="1171.8" type="curve"/>
			<point x="352.2" y="1130.8" type="line"/>
			<point x="400.8" y="1237.8"/>
			<point x="451.6" y="1284.6"/>
			<point x="541.4" y="1284.6" type="curve" smooth="yes"/>
			<point x="616" y="1284.6"/>
			<point x="658.6" y="1248.6"/>
			<point x="658.6" y="1190" type="curve" smooth="yes"/>
			<point x="658.6" y="1124.6"/>
			<point x="627.6" y="1076"/>
			<point x="449.4" y="951.6" type="curve" smooth="yes"/>
			<point x="211.6" y="776" type="line"/>
			<point x="175.8" y="662" type="line"/>
			<point x="642.4" y="662" type="line"/>
			<point x="659.4" y="626.6" type="line"/>
			<point x="717.6" y="626.6" type="line"/>
			<point x="863.2" y="922.6" type="line"/>
			<point x="774.2" y="922.6" type="line"/>
		</contour>
	</outline>
</glyph>
<glyph name="uni00B3" format="2">
	<unicode hex="00B3"/>
	<advance width="769"/>
	<outline>
		<contour>
			<point x="431.8" y="989.8" type="line"/>
			<point x="479.8" y="993" type="line" smooth="yes"/>
			<point x="585.4" y="1001.8"/>
			<point x="617" y="975.4"/>
			<point x="617" y="913.6" type="curve" smooth="yes"/>
			<point x="617" y="818.4"/>
			<point x="545.4" y="751.8"/>
			<point x="412.2" y="751.8" type="curve" smooth="yes"/>
			<point x="299.4" y="751.8"/>
			<point x="258.2" y="841.4"/>
			<point x="245.4" y="841.4" type="curve" smooth="yes"/>
			<point x="192.2" y="841.4"/>
			<point x="161.2" y="804"/>
			<point x="161.2" y="753.6" type="curve" smooth="yes"/>
			<point x="161.2" y="703"/>
			<point x="210.2" y="650.2"/>
			<point x="381.2" y="650.2" type="curve" smooth="yes"/>
			<point x="670.2" y="650.2"/>
			<point x="809.6" y="773"/>
			<point x="809.6" y="940.4" type="curve" smooth="yes"/>
			<point x="809.6" y="1034.8"/>
			<point x="744.4" y="1099.2"/>
			<point x="616.4" y="1096" type="curve"/>
			<point x="616.4" y="1091.6" type="line"/>
			<point x="776.2" y="1110"/>
			<point x="841.6" y="1183.6"/>
			<point x="841.6" y="1281.6" type="curve" smooth="yes"/>
			<point x="841.6" y="1375.8"/>
			<point x="778.8" y="1430"/>
			<point x="634" y="1430" type="curve" smooth="yes"/>
			<point x="437.8" y="1430"/>
			<point x="352.4" y="1347"/>
			<point x="293.6" y="1213.2" type="curve"/>
			<point x="371" y="1172.2" type="line"/>
			<point x="416" y="1260.2"/>
			<point x="468.2" y="1292.6"/>
			<point x="549" y="1292.6" type="curve" smooth="yes"/>
			<point x="616.8" y="1292.6"/>
			<point x="654.8" y="1270.8"/>
			<point x="654.8" y="1215.8" type="curve" smooth="yes"/>
			<point x="654.8" y="1144.4"/>
			<point x="615.4" y="1093"/>
			<point x="443.8" y="1075.4" type="curve"/>
		</contour>
	</outline>
</glyph>
<glyph name="uni00B5" format="2">
	<unicode hex="00B5"/>
	<advance width="1455"/>
	<outline>
		<contour>
			<point x="895.6" y="636.6" type="line"/>
			<point x="745" y="235.2"/>
			<point x="595.6" y="161.2"/>
			<point x="492" y="161.2" type="curve" smooth="yes"/>
			<point x="423.8" y="161.2"/>
			<point x="395" y="192.4"/>
			<point x="395" y="237.8" type="curve" smooth="yes"/>
			<point x="395" y="265.2"/>
			<point x="404.4" y="301.8"/>
			<point x="422.6" y="359" type="curve" smooth="yes"/>
			<point x="631.2" y="1028" type="line"/>
			<point x="385" y="1028" type="line"/>
			<point x="-68.8" y="-456.4" type="line"/>
			<point x="-25" y="-456.4" type="line"/>
			<point x="169" y="-439.2" type="line"/>
			<point x="229" y="147.8" type="line"/>
			<point x="205.4" y="161" type="line"/>
			<point x="207" y="54.4"/>
			<point x="271" y="-22"/>
			<point x="411.2" y="-22" type="curve" smooth="yes"/>
			<point x="584.6" y="-22"/>
			<point x="679" y="36.2"/>
			<point x="911.8" y="468" type="curve"/>
			<point x="944.4" y="468" type="line"/>
			<point x="819.4" y="105.8" type="line" smooth="yes"/>
			<point x="788.4" y="16.2"/>
			<point x="819.2" y="-22"/>
			<point x="905.6" y="-22" type="curve" smooth="yes"/>
			<point x="992.4" y="-22"/>
			<point x="1146" y="20"/>
			<point x="1360.8" y="194.8" type="curve"/>
			<point x="1313.8" y="272" type="line"/>
			<point x="1160" y="173.4"/>
			<point x="1029.8" y="146.2"/>
			<point x="921" y="156.6" type="curve"/>
			<point x="979.8" y="73.8" type="line"/>
			<point x="1291.6" y="1028" type="line"/>
			<point x="1045.6" y="1028" type="line"/>
		</contour>
	</outline>
</glyph>
<glyph name="paragraph" format="2">
  <advance width="1346.8000000000002"/>
  <unicode hex="00B6"/>
  <outline>
    <contour>
      <point x="531.8" y="-221.0" type="line"/>
      <point x="993.4" y="1287.8" type="line"/>
      <point x="1225.3999999999999" y="1287.8" type="line"/>
      <point x="1263.6000000000001" y="1414.0" type="line"/>
      <point x="893.8" y="1414.0" type="line"/>
      <point x="393.2" y="-221.0" type="line"/>
    </contour>
    <contour>
      <point x="839.4000000000001" y="-221.0" type="line"/>
      <point x="1300.3999999999999" y="1287.6" type="line"/>
      <point x="1497.3999999999999" y="1317.8000000000002" type="line"/>
      <point x="1527.0" y="1414.0" type="line"/>
      <point x="1201.4" y="1414.0" type="line"/>
      <point x="701.5999999999999" y="-221.0" type="line"/>
    </contour>
    <contour>
      <point x="978.1999999999999" y="1414.0" type="line"/>
      <point x="701.5999999999999" y="1414.0" type="line" smooth="yes"/>
      <point x="341.4" y="1414.0"/>
      <point x="217.0" y="1174.8"/>
      <point x="217.0" y="934.0" type="curve" smooth="yes"/>
      <point x="217.0" y="776.8"/>
      <point x="312.4" y="706.0"/>
      <point x="507.2" y="706.0" type="curve" smooth="yes"/>
      <point x="761.8" y="706.0" type="line"/>
    </contour>
  </outline>
</glyph>
<glyph name="uni00B9" format="2">
	<unicode hex="00B9"/>
	<advance width="681.4"/>
	<outline>
		<contour>
			<point x="348.6" y="767.2" type="line"/>
			<point x="206.2" y="735.4" type="line"/>
			<point x="184.6" y="662" type="line"/>
			<point x="661" y="662" type="line"/>
			<point x="682.6" y="735.4" type="line"/>
			<point x="553.4" y="767.2" type="line"/>
			<point x="751" y="1414" type="line"/>
			<point x="609.4" y="1414" type="line"/>
			<point x="269.8" y="1274.2" type="line"/>
			<point x="293.6" y="1179.6" type="line"/>
			<point x="570" y="1255.8" type="line"/>
			<point x="526.4" y="1348.8" type="line"/>
		</contour>
	</outline>
</glyph>
<glyph name="ordmasculine" format="2">
	<unicode hex="00BA"/>
	<advance width="1011"/>
	<outline>
		<contour>
			<point x="143.2" y="490.4" type="line"/>
			<point x="835.2" y="490.4" type="line"/>
			<point x="881" y="640" type="line"/>
			<point x="189.2" y="640" type="line"/>
		</contour>
		<contour>
			<point x="772.2" y="1436" type="curve" smooth="yes"/>
			<point x="469.2" y="1436"/>
			<point x="317" y="1215.4"/>
			<point x="317" y="994.2" type="curve" smooth="yes"/>
			<point x="317" y="846.8"/>
			<point x="417.6" y="761"/>
			<point x="608.8" y="761" type="curve" smooth="yes"/>
			<point x="911.8" y="761"/>
			<point x="1064.8" y="981.6"/>
			<point x="1064.8" y="1202.8" type="curve" smooth="yes"/>
			<point x="1064.8" y="1351"/>
			<point x="963.4" y="1436"/>
		</contour>
		<contour>
			<point x="633.4" y="891.6" type="curve" smooth="yes"/>
			<point x="558.2" y="891.6"/>
			<point x="509.4" y="928.0281481481"/>
			<point x="509.4" y="1013.6" type="curve" smooth="yes"/>
			<point x="509.4" y="1154.6565916399"/>
			<point x="595.4" y="1306.2"/>
			<point x="748.4" y="1306.2" type="curve" smooth="yes"/>
			<point x="823.6" y="1306.2"/>
			<point x="871.6" y="1268.9882352941"/>
			<point x="871.6" y="1183.4" type="curve" smooth="yes"/>
			<point x="871.6" y="1042.3483870968"/>
			<point x="786.4" y="891.6"/>
		</contour>
	</outline>
</glyph>
<glyph name="guillemotright" format="2">
	<unicode hex="00BB"/>
	<advance width="1229"/>
	<outline>
		<contour>
			<point x="420.6" y="507.8" type="line"/>
			<point x="444.8" y="588.6" type="line"/>
			<point x="-0.2" y="162.4" type="line"/>
			<point x="89.8" y="44.6" type="line"/>
			<point x="608.4" y="436.6" type="line"/>
			<point x="660.8" y="607.8" type="line"/>
			<point x="363.4" y="999.8" type="line"/>
			<point x="232.6" y="929.2" type="line"/>
		</contour>
		<contour>
			<point x="901.8" y="507.8" type="line"/>
			<point x="926" y="588.6" type="line"/>
			<point x="481" y="162.4" type="line"/>
			<point x="571" y="44.6" type="line"/>
			<point x="1089.6" y="436.6" type="line"/>
			<point x="1142" y="607.8" type="line"/>
			<point x="844.6" y="999.8" type="line"/>
			<point x="713.8" y="929.2" type="line"/>
		</contour>
	</outline>
</glyph>
<glyph name="questiondown" format="2">
  <advance width="1194.6"/>
  <unicode hex="00BF"/>
  <outline>
    <contour>
      <point x="689.4" y="735.6" type="curve" smooth="yes"/>
      <point x="833.0" y="735.6"/>
      <point x="902.0" y="827.6"/>
      <point x="902.0" y="935.2" type="curve" smooth="yes"/>
      <point x="902.0" y="1006.6"/>
      <point x="858.1999999999999" y="1046.4"/>
      <point x="775.4" y="1046.4" type="curve" smooth="yes"/>
      <point x="631.8000000000001" y="1046.4"/>
      <point x="562.8" y="954.4"/>
      <point x="562.8" y="847.6" type="curve" smooth="yes"/>
      <point x="562.8" y="775.4"/>
      <point x="606.6" y="735.6"/>
    </contour>
    <contour>
      <point x="502.4" y="-410.0" type="curve" smooth="yes"/>
      <point x="810.0" y="-410.0"/>
      <point x="909.2" y="-326.6"/>
      <point x="909.2" y="-223.2" type="curve" smooth="yes"/>
      <point x="909.2" y="-160.4"/>
      <point x="861.8" y="-117.39999999999999"/>
      <point x="791.8" y="-117.39999999999999" type="curve" smooth="yes"/>
      <point x="753.0" y="-117.39999999999999"/>
      <point x="690.0" y="-265.4"/>
      <point x="482.40000000000003" y="-265.4" type="curve" smooth="yes"/>
      <point x="294.79999999999995" y="-265.4"/>
      <point x="202.8" y="-152.79999999999998"/>
      <point x="202.8" y="-12.399999999999995" type="curve" smooth="yes"/>
      <point x="202.8" y="161.4"/>
      <point x="295.4" y="237.39999999999998"/>
      <point x="654.4" y="212.0" type="curve"/>
      <point x="733.5999999999999" y="573.1999999999999" type="line"/>
      <point x="579.6" y="573.1999999999999" type="line"/>
      <point x="464.6" y="300.8" type="line"/>
      <point x="570.8" y="388.0" type="line"/>
      <point x="129.60000000000002" y="413.0"/>
      <point x="-30.8" y="265.20000000000005"/>
      <point x="-30.8" y="8.0" type="curve" smooth="yes"/>
      <point x="-30.8" y="-238.0"/>
      <point x="186.6" y="-410.0"/>
    </contour>
  </outline>
</glyph>
<glyph name="AE" format="2">
  <advance width="2258"/>
  <unicode hex="00C6"/>
  <anchor x="1462.3999999999999" y="1414.0" name="UCtop"/>
  <anchor x="1029.3999999999999" y="0.0" name="bottom"/>
  <outline>
    <contour>
      <point x="268.8" y="148.4" type="line"/>
      <point x="1282.3999999999999" y="1257.6000000000001" type="line"/>
      <point x="1287.2" y="1259.0" type="line"/>
      <point x="946.8" y="149.8" type="line"/>
      <point x="759.6" y="101.60000000000001" type="line"/>
      <point x="728.2" y="0.0" type="line"/>
      <point x="1169.4" y="0.0" type="line"/>
      <point x="1602.3999999999999" y="1414.0" type="line"/>
      <point x="891.2" y="1414.0" type="line"/>
      <point x="860.0" y="1312.4" type="line"/>
      <point x="1070.4" y="1261.6" type="line"/>
      <point x="47.6" y="148.4" type="line"/>
      <point x="-121.39999999999999" y="101.60000000000001" type="line"/>
      <point x="-153.20000000000002" y="0.0" type="line"/>
      <point x="397.4" y="0.0" type="line"/>
      <point x="428.2" y="101.60000000000001" type="line"/>
    </contour>
    <contour>
      <point x="1765.3999999999999" y="-78.2" type="line"/>
      <point x="1893.6" y="-78.2" type="line"/>
      <point x="2170.4" y="436.2" type="line"/>
      <point x="2023.3999999999999" y="436.2" type="line"/>
      <point x="1692.8" y="76.0" type="line"/>
      <point x="1835.4" y="163.6" type="line"/>
      <point x="1078.6" y="163.6" type="line"/>
      <point x="1026.6" y="0.0" type="line"/>
      <point x="1728.1999999999998" y="0.0" type="line"/>
    </contour>
    <contour>
      <point x="468.4" y="476.8" type="line"/>
      <point x="1107.0" y="476.8" type="line"/>
      <point x="1160.8" y="638.2" type="line"/>
      <point x="521.4" y="638.2" type="line"/>
    </contour>
    <contour>
      <point x="1658.0" y="480.0" type="line"/>
      <point x="1791.6" y="480.0" type="line"/>
      <point x="1869.6" y="735.0" type="line"/>
      <point x="1947.6" y="990.0" type="line"/>
      <point x="1814.0" y="990.0" type="line"/>
      <point x="1744.6" y="815.8000000000001" type="line"/>
      <point x="1276.4" y="815.8000000000001" type="line"/>
      <point x="1227.0" y="658.1999999999999" type="line"/>
      <point x="1696.3999999999999" y="658.1999999999999" type="line"/>
    </contour>
    <contour>
      <point x="2114.4" y="1031.8" type="line"/>
      <point x="2259.6" y="1031.8" type="line"/>
      <point x="2392.2" y="1489.6000000000001" type="line"/>
      <point x="2281.2" y="1489.6000000000001" type="line"/>
      <point x="2172.4" y="1414.0" type="line"/>
      <point x="1458.6" y="1414.0" type="line"/>
      <point x="1407.0" y="1250.4" type="line"/>
      <point x="2176.0" y="1250.4" type="line"/>
      <point x="2130.4" y="1339.4" type="line"/>
    </contour>
  </outline>
</glyph>
<glyph name="Ccedilla" format="2">
	<unicode hex="00C7"/>
	<advance width="1533"/>
	<outline>
		<contour>
			<point x="1215.4" y="215.2" type="line"/>
			<point x="1101.8" y="174.8"/>
			<point x="976" y="147"/>
			<point x="867.2" y="147" type="curve" smooth="yes"/>
			<point x="595" y="147"/>
			<point x="439.4" y="281.6"/>
			<point x="439.4" y="562.2" type="curve" smooth="yes"/>
			<point x="439.4" y="960.2"/>
			<point x="644.6" y="1258.8"/>
			<point x="1107" y="1258.8" type="curve" smooth="yes"/>
			<point x="1220.4" y="1258.8"/>
			<point x="1313.8" y="1241.6"/>
			<point x="1399" y="1187.4" type="curve"/>
			<point x="1360.2" y="1288.8" type="line"/>
			<point x="1354.8" y="947.2" type="line"/>
			<point x="1511.4" y="947.2" type="line"/>
			<point x="1651.2" y="1489.6" type="line"/>
			<point x="1532.4" y="1489.6" type="line"/>
			<point x="1399" y="1368.8" type="line"/>
			<point x="1497.6" y="1374.2" type="line"/>
			<point x="1399.4" y="1411"/>
			<point x="1283.6" y="1436"/>
			<point x="1141.8" y="1436" type="curve" smooth="yes"/>
			<point x="500.8" y="1436"/>
			<point x="167.2" y="1058.2"/>
			<point x="167.2" y="547.2" type="curve" smooth="yes"/>
			<point x="167.2" y="198"/>
			<point x="365" y="-22"/>
			<point x="798.4" y="-22" type="curve" smooth="yes"/>
			<point x="985" y="-22"/>
			<point x="1138.8" y="7"/>
			<point x="1258.2" y="51.2" type="curve"/>
			<point x="1421.2" y="448.2" type="line"/>
			<point x="1265.2" y="448.2" type="line"/>
			<point x="999.6" y="90.2" type="line"/>
		</contour>
		<contour>
			<point x="576.8" y="-390.4" type="curve" smooth="yes"/>
			<point x="508.8" y="-390.4"/>
			<point x="473.2" y="-338.4"/>
			<point x="456.4" y="-338.4" type="curve" smooth="yes"/>
			<point x="425.6" y="-338.4"/>
			<point x="403.4" y="-365.6"/>
			<point x="403.4" y="-398.2" type="curve" smooth="yes"/>
			<point x="403.4" y="-441.4"/>
			<point x="437.4" y="-465"/>
			<point x="542.6" y="-465" type="curve"/>
			<point x="755.8" y="-465"/>
			<point x="846.4" y="-371.2"/>
			<point x="846.4" y="-250" type="curve" smooth="yes"/>
			<point x="846.4" y="-180.6"/>
			<point x="797.8" y="-127.8"/>
			<point x="643.8" y="-98.6" type="curve"/>
			<point x="635" y="-172.4" type="line"/>
			<point x="843.2" y="25" type="line"/>
			<point x="736.8" y="25" type="line"/>
			<point x="522.2" y="-183.2" type="line"/>
			<point x="514.6" y="-208.2" type="line"/>
			<point x="658" y="-229.6"/>
			<point x="697.2" y="-256.4"/>
			<point x="697.2" y="-296.6" type="curve" smooth="yes"/>
			<point x="697.2" y="-353"/>
			<point x="655.6" y="-390.4"/>
		</contour>
	</outline>
</glyph>
<glyph name="multiply" format="2">
	<unicode hex="00D7"/>
	<advance width="1200"/>
	<outline>
		<contour>
			<point x="126.8" y="246" type="line"/>
			<point x="203.6" y="125.8" type="line"/>
			<point x="1071.6" y="786.8" type="line"/>
			<point x="994.8" y="907" type="line"/>
		</contour>
		<contour>
			<point x="315" y="821.4" type="line"/>
			<point x="756.4" y="125.8" type="line"/>
			<point x="885" y="208.2" type="line"/>
			<point x="442.8" y="907" type="line"/>
		</contour>
	</outline>
</glyph>
<glyph name="Oslash" format="2">
	<unicode hex="00D8"/>
	<advance width="1697"/>
	<outline>
		<contour>
			<point x="1853.6" y="1414" type="line"/>
			<point x="1624.2" y="1414" type="line"/>
			<point x="1427.4" y="1248.4" type="line"/>
			<point x="1360.8" y="1192" type="line"/>
			<point x="368.8" y="334.6" type="line"/>
			<point x="286.4" y="275.6" type="line"/>
			<point x="-40.8" y="0" type="line"/>
			<point x="188.6" y="0" type="line"/>
			<point x="385.4" y="165.6" type="line"/>
			<point x="452" y="222" type="line"/>
			<point x="1444" y="1079.4" type="line"/>
			<point x="1526.4" y="1138.4" type="line"/>
		</contour>
		<contour>
			<point x="435.2" y="511" type="curve" smooth="yes"/>
			<point x="435.2" y="899.2"/>
			<point x="655" y="1256.4"/>
			<point x="1028.6" y="1256.4" type="curve" smooth="yes"/>
			<point x="1267.8" y="1256.4"/>
			<point x="1377.6" y="1123.2"/>
			<point x="1377.6" y="903" type="curve" smooth="yes"/>
			<point x="1377.6" y="514.8"/>
			<point x="1157.8" y="157.6"/>
			<point x="784.2" y="157.6" type="curve" smooth="yes"/>
			<point x="545" y="157.6"/>
			<point x="435.2" y="290.8"/>
		</contour>
		<contour>
			<point x="1643.6" y="894.8" type="curve" smooth="yes"/>
			<point x="1643.6" y="1226.8"/>
			<point x="1436.6" y="1436"/>
			<point x="1036.8" y="1436" type="curve" smooth="yes"/>
			<point x="529.4" y="1436"/>
			<point x="169.2" y="1011"/>
			<point x="169.2" y="519.2" type="curve" smooth="yes"/>
			<point x="169.2" y="187.2"/>
			<point x="376.2" y="-22"/>
			<point x="776" y="-22" type="curve" smooth="yes"/>
			<point x="1283.4" y="-22"/>
			<point x="1643.6" y="403"/>
		</contour>
	</outline>
	<anchor name="UCtop" x="1101.4" y="1414"/>
	<anchor name="bottom" x="684.8" y="0"/>
</glyph>
<glyph name="Thorn" format="2">
  <advance width="1422.4"/>
  <unicode hex="00DE"/>
  <outline>
    <contour>
      <point x="784.1999999999999" y="443.59999999999997" type="curve" smooth="yes"/>
      <point x="362.8" y="443.59999999999997" type="line"/>
      <point x="298.0" y="280.0" type="line"/>
      <point x="768.4" y="280.0" type="line" smooth="yes"/>
      <point x="1191.6000000000001" y="280.0"/>
      <point x="1387.2" y="506.0"/>
      <point x="1387.2" y="810.0" type="curve" smooth="yes"/>
      <point x="1387.2" y="1021.1999999999999"/>
      <point x="1254.2" y="1139.6000000000001"/>
      <point x="928.8" y="1139.6000000000001" type="curve" smooth="yes"/>
      <point x="564.2" y="1139.6000000000001" type="line"/>
      <point x="526.8" y="976.0" type="line"/>
      <point x="852.0" y="976.0" type="line" smooth="yes"/>
      <point x="1055.6000000000001" y="976.0"/>
      <point x="1126.0" y="912.2"/>
      <point x="1126.0" y="800.2" type="curve" smooth="yes"/>
      <point x="1126.0" y="596.0"/>
      <point x="1016.5999999999999" y="443.59999999999997"/>
    </contour>
    <contour>
      <point x="516.0" y="1265.0" type="line"/>
      <point x="173.6" y="149.8" type="line"/>
      <point x="-13.6" y="101.60000000000001" type="line"/>
      <point x="-45.0" y="0.0" type="line"/>
      <point x="585.8" y="0.0" type="line"/>
      <point x="616.0" y="101.60000000000001" type="line"/>
      <point x="441.40000000000003" y="149.0" type="line"/>
      <point x="783.8" y="1264.1999999999998" type="line"/>
      <point x="971.0" y="1312.3999999999999" type="line"/>
      <point x="1001.1999999999999" y="1414.0" type="line"/>
      <point x="371.6" y="1414.0" type="line"/>
      <point x="340.4" y="1312.3999999999999" type="line"/>
    </contour>
  </outline>
</glyph>
<glyph name="germandbls" format="2">
	<unicode hex="00DF"/>
	<advance width="1532.8"/>
	<outline>
		<contour>
			<point x="141.8" y="897.2" type="line"/>
			<point x="524.8" y="897.2" type="line"/>
			<point x="524.8" y="1028" type="line"/>
			<point x="141.8" y="1028" type="line"/>
		</contour>
		<contour>
			<point x="499.2" y="255.8" type="curve" smooth="yes"/>
			<point x="670.8" y="1078" type="line" smooth="yes"/>
			<point x="714.4" y="1286.8"/>
			<point x="789.8" y="1371.6"/>
			<point x="984" y="1371.6" type="curve" smooth="yes"/>
			<point x="1126" y="1371.6"/>
			<point x="1177.8" y="1321.6"/>
			<point x="1177.8" y="1230" type="curve" smooth="yes"/>
			<point x="1177.8" y="1146.8"/>
			<point x="1143.6" y="1081.4"/>
			<point x="1010.8" y="989.4" type="curve" smooth="yes"/>
			<point x="876.6" y="896.4"/>
			<point x="839.6" y="819.6"/>
			<point x="839.6" y="726" type="curve" smooth="yes"/>
			<point x="839.6" y="632.2"/>
			<point x="880.2" y="566"/>
			<point x="1014.6" y="482" type="curve" smooth="yes"/>
			<point x="1149" y="398"/>
			<point x="1178.6" y="348"/>
			<point x="1178.6" y="278.4" type="curve" smooth="yes"/>
			<point x="1178.6" y="160"/>
			<point x="1097.8" y="99.2"/>
			<point x="977.6" y="99.2" type="curve" smooth="yes"/>
			<point x="934.6" y="99.2"/>
			<point x="905.6" y="103.8"/>
			<point x="885" y="129" type="curve" smooth="yes"/>
			<point x="864.4" y="154.2"/>
			<point x="847.6" y="203.6"/>
			<point x="835.8" y="306.8" type="curve" smooth="yes"/>
			<point x="675.6" y="306.8"/>
			<point x="625" y="261.2"/>
			<point x="625" y="163" type="curve" smooth="yes"/>
			<point x="625" y="58"/>
			<point x="708.8" y="-22"/>
			<point x="937" y="-22" type="curve" smooth="yes"/>
			<point x="1209.6" y="-22"/>
			<point x="1378.2" y="110"/>
			<point x="1378.2" y="339.2" type="curve" smooth="yes"/>
			<point x="1378.2" y="450.6"/>
			<point x="1331" y="539.4"/>
			<point x="1201.2" y="625.6" type="curve" smooth="yes"/>
			<point x="1071.4" y="711.8"/>
			<point x="1046.6" y="751.8"/>
			<point x="1046.6" y="801.2" type="curve" smooth="yes"/>
			<point x="1046.6" y="864.8"/>
			<point x="1080.2" y="908.4"/>
			<point x="1214" y="986" type="curve" smooth="yes"/>
			<point x="1347.8" y="1063.6"/>
			<point x="1400.2" y="1141.8"/>
			<point x="1400.2" y="1250.6" type="curve" smooth="yes"/>
			<point x="1400.2" y="1392.4"/>
			<point x="1292.2" y="1486"/>
			<point x="1003.8" y="1486" type="curve" smooth="yes"/>
			<point x="672" y="1486"/>
			<point x="483.4" y="1328"/>
			<point x="420.4" y="993.4" type="curve" smooth="yes"/>
			<point x="238.4" y="23.4" type="line" smooth="yes"/>
			<point x="185.8" y="-252"/>
			<point x="94.6" y="-341.6"/>
			<point x="-15.2" y="-341.6" type="curve" smooth="yes"/>
			<point x="-54.6" y="-341.6"/>
			<point x="-80.2" y="-335.8"/>
			<point x="-98.4" y="-310.8" type="curve" smooth="yes"/>
			<point x="-116.6" y="-285.8"/>
			<point x="-125.2" y="-240.2"/>
			<point x="-132.2" y="-159.8" type="curve" smooth="yes"/>
			<point x="-266.6" y="-159.8"/>
			<point x="-323.6" y="-206"/>
			<point x="-323.6" y="-297.8" type="curve" smooth="yes"/>
			<point x="-323.6" y="-402"/>
			<point x="-255.2" y="-465"/>
			<point x="-101.4" y="-465" type="curve" smooth="yes"/>
			<point x="184.6" y="-465"/>
			<point x="395.2" y="-238.8"/>
		</contour>
	</outline>
</glyph>
<glyph name="ae" format="2">
	<unicode hex="00E6"/>
	<advance width="1883.6"/>
	<outline>
		<contour>
			<point x="1207.8" y="880.6" type="line"/>
			<point x="1234.2" y="1028" type="line"/>
			<point x="1086.2" y="1028" type="line"/>
			<point x="983.8" y="843.8" type="line"/>
			<point x="945" y="745.6" type="line" smooth="yes"/>
			<point x="835.2" y="459.8"/>
			<point x="567.4" y="141.8"/>
			<point x="419" y="141.8" type="curve" smooth="yes"/>
			<point x="335.2" y="141.8"/>
			<point x="282.8" y="184.6"/>
			<point x="282.8" y="271.8" type="curve" smooth="yes"/>
			<point x="282.8" y="502.4"/>
			<point x="519.2" y="908.6"/>
			<point x="782.8" y="908.6" type="curve" smooth="yes"/>
			<point x="866.4" y="908.6"/>
			<point x="937.6" y="872.4"/>
			<point x="990.8" y="760.6" type="curve"/>
			<point x="999.2" y="820.4" type="line"/>
			<point x="964.4" y="969"/>
			<point x="880" y="1050"/>
			<point x="738.6" y="1050" type="curve" smooth="yes"/>
			<point x="358.8" y="1050"/>
			<point x="40.2" y="570.2"/>
			<point x="40.2" y="235.4" type="curve" smooth="yes"/>
			<point x="40.2" y="66.2"/>
			<point x="159.4" y="-22"/>
			<point x="315.8" y="-22" type="curve" smooth="yes"/>
			<point x="467" y="-22"/>
			<point x="608.6" y="55"/>
			<point x="889.2" y="485.2" type="curve"/>
			<point x="916" y="485.2" type="line"/>
			<point x="825.8" y="152.8"/>
			<point x="945" y="-22"/>
			<point x="1235.8" y="-22" type="curve" smooth="yes"/>
			<point x="1438.2" y="-22"/>
			<point x="1617" y="71.4"/>
			<point x="1751.4" y="351.6" type="curve"/>
			<point x="1647.2" y="351.6" type="line"/>
			<point x="1554.4" y="208.6"/>
			<point x="1439.8" y="152.6"/>
			<point x="1310" y="152.6" type="curve" smooth="yes"/>
			<point x="1163.2" y="152.6"/>
			<point x="1104.2" y="209.6"/>
			<point x="1104.2" y="393.2" type="curve" smooth="yes"/>
			<point x="1104.2" y="725.4"/>
			<point x="1287.6" y="921.8"/>
			<point x="1487.2" y="921.8" type="curve" smooth="yes"/>
			<point x="1581" y="921.8"/>
			<point x="1628.8" y="869.8"/>
			<point x="1628.8" y="787.8" type="curve" smooth="yes"/>
			<point x="1628.8" y="677.6"/>
			<point x="1614.2" y="645.8"/>
			<point x="1070.8" y="555.8" type="curve"/>
			<point x="1063.8" y="455" type="line"/>
			<point x="1283.2" y="476.8"/>
			<point x="1544.4" y="519.2"/>
			<point x="1785" y="585.2" type="curve"/>
			<point x="1822.4" y="648.2"/>
			<point x="1843.8" y="725.8"/>
			<point x="1843.8" y="795" type="curve" smooth="yes"/>
			<point x="1843.8" y="937.2"/>
			<point x="1770" y="1050"/>
			<point x="1576.2" y="1050" type="curve" smooth="yes"/>
			<point x="1417.6" y="1050"/>
			<point x="1289" y="985.8"/>
			<point x="1188" y="880.6" type="curve"/>
		</contour>
	</outline>
	<anchor name="top" x="1105.2" y="1028"/>
	<anchor name="bottom" x="776" y="0"/>
</glyph>
<glyph name="ccedilla" format="2">
	<unicode hex="00E7"/>
	<advance width="1064"/>
	<outline>
		<contour>
			<point x="239.2" y="-465" type="curve"/>
			<point x="452.4" y="-465"/>
			<point x="543" y="-371.2"/>
			<point x="543" y="-250" type="curve" smooth="yes"/>
			<point x="543" y="-180.6"/>
			<point x="494.4" y="-127.8"/>
			<point x="340.4" y="-98.6" type="curve"/>
			<point x="331.6" y="-172.4" type="line"/>
			<point x="539.8" y="25" type="line"/>
			<point x="433.4" y="25" type="line"/>
			<point x="218.8" y="-183.2" type="line"/>
			<point x="211.2" y="-208.2" type="line"/>
			<point x="354.6" y="-229.6"/>
			<point x="393.8" y="-256.4"/>
			<point x="393.8" y="-296.6" type="curve" smooth="yes"/>
			<point x="393.8" y="-353"/>
			<point x="352.2" y="-390.4"/>
			<point x="273.4" y="-390.4" type="curve" smooth="yes"/>
			<point x="205.4" y="-390.4"/>
			<point x="169.8" y="-338.4"/>
			<point x="153" y="-338.4" type="curve" smooth="yes"/>
			<point x="122.2" y="-338.4"/>
			<point x="100" y="-365.6"/>
			<point x="100" y="-398.2" type="curve" smooth="yes"/>
			<point x="100" y="-441.4"/>
			<point x="134" y="-465"/>
		</contour>
		<contour>
			<point x="694.4" y="926" type="curve" smooth="yes"/>
			<point x="727.8" y="926"/>
			<point x="766.4" y="890.8"/>
			<point x="810.4" y="828.8" type="curve" smooth="yes"/>
			<point x="854.4" y="766.8"/>
			<point x="887.8" y="730"/>
			<point x="912.2" y="730" type="curve" smooth="yes"/>
			<point x="981.4" y="730"/>
			<point x="1053" y="791.2"/>
			<point x="1053" y="869.4" type="curve" smooth="yes"/>
			<point x="1053" y="972"/>
			<point x="946.6" y="1050"/>
			<point x="740.6" y="1050" type="curve" smooth="yes"/>
			<point x="349.8" y="1050"/>
			<point x="79.2" y="735.8"/>
			<point x="79.2" y="342.8" type="curve" smooth="yes"/>
			<point x="79.2" y="94.4"/>
			<point x="206.2" y="-22"/>
			<point x="460" y="-22" type="curve" smooth="yes"/>
			<point x="698.6" y="-22"/>
			<point x="851.4" y="106.4"/>
			<point x="960.6" y="358.4" type="curve"/>
			<point x="857" y="358.4" type="line"/>
			<point x="767.6" y="208.8"/>
			<point x="661.2" y="152.6"/>
			<point x="530" y="152.6" type="curve" smooth="yes"/>
			<point x="385.4" y="152.6"/>
			<point x="317.4" y="209.6"/>
			<point x="317.4" y="393.2" type="curve" smooth="yes"/>
			<point x="317.4" y="700.8"/>
			<point x="473.2" y="926"/>
		</contour>
	</outline>
</glyph>
<glyph name="eth" format="2">
	<unicode hex="00F0"/>
	<advance width="1203.8"/>
	<outline>
		<contour>
			<point x="917.6" y="695.2" type="line"/>
			<point x="913.6" y="865.4"/>
			<point x="827" y="1003.6"/>
			<point x="630" y="1003.6" type="curve" smooth="yes"/>
			<point x="324.2" y="1003.6"/>
			<point x="75.4" y="696.6"/>
			<point x="75.4" y="327.2" type="curve" smooth="yes"/>
			<point x="75.4" y="125.8"/>
			<point x="208.2" y="-22"/>
			<point x="479.2" y="-22" type="curve" smooth="yes"/>
			<point x="865.2" y="-22"/>
			<point x="1131.2" y="316.4"/>
			<point x="1131.2" y="780.8" type="curve" smooth="yes"/>
			<point x="1131.2" y="1151.2"/>
			<point x="960" y="1406.6"/>
			<point x="403.2" y="1486" type="curve"/>
			<point x="372.6" y="1363.8" type="line"/>
			<point x="808" y="1268.2"/>
			<point x="953.6" y="1109.2"/>
			<point x="885.4" y="657.2" type="curve"/>
		</contour>
		<contour>
			<point x="491.2" y="131.4" type="curve" smooth="yes"/>
			<point x="379.4" y="131.4"/>
			<point x="316" y="195.204040404"/>
			<point x="316" y="310.2" type="curve" smooth="yes"/>
			<point x="316" y="584.3290102389"/>
			<point x="467" y="858.6"/>
			<point x="708.8" y="858.6" type="curve" smooth="yes"/>
			<point x="820.4" y="858.6"/>
			<point x="883.8" y="794.795959596"/>
			<point x="883.8" y="679.4" type="curve" smooth="yes"/>
			<point x="883.8" y="405.4709897611"/>
			<point x="733" y="131.4"/>
		</contour>
		<contour>
			<point x="525" y="1044.2" type="line"/>
			<point x="1120.2" y="1384.8" type="line"/>
			<point x="1063.4" y="1486" type="line"/>
			<point x="468.2" y="1145.4" type="line"/>
		</contour>
	</outline>
</glyph>
<glyph name="divide" format="2">
  <advance width="1200"/>
  <unicode hex="00F7"/>
  <outline>
    <contour>
      <point x="201.0" y="592.8" type="line"/>
      <point x="154.20000000000002" y="440.0" type="line"/>
      <point x="998.5999999999999" y="440.0" type="line"/>
      <point x="1045.4" y="592.8" type="line"/>
    </contour>
    <contour>
      <point x="730.6" y="1014.0" type="curve" smooth="yes"/>
      <point x="634.2" y="1014.0"/>
      <point x="574.2" y="950.2"/>
      <point x="574.2" y="864.2" type="curve" smooth="yes"/>
      <point x="574.2" y="793.0"/>
      <point x="618.2" y="751.8"/>
      <point x="693.0" y="751.8" type="curve" smooth="yes"/>
      <point x="789.4000000000001" y="751.8"/>
      <point x="848.6" y="815.5999999999999"/>
      <point x="848.6" y="901.6" type="curve" smooth="yes"/>
      <point x="848.6" y="973.6"/>
      <point x="804.6" y="1014.0"/>
    </contour>
    <contour>
      <point x="506.6" y="281.0" type="curve" smooth="yes"/>
      <point x="410.2" y="281.0"/>
      <point x="350.20000000000005" y="217.2"/>
      <point x="350.20000000000005" y="131.2" type="curve" smooth="yes"/>
      <point x="350.20000000000005" y="60.0"/>
      <point x="394.2" y="18.8"/>
      <point x="469.0" y="18.8" type="curve" smooth="yes"/>
      <point x="565.4000000000001" y="18.8"/>
      <point x="624.6" y="82.6"/>
      <point x="624.6" y="168.6" type="curve" smooth="yes"/>
      <point x="624.6" y="240.6"/>
      <point x="580.6" y="281.0"/>
    </contour>
  </outline>
</glyph>
<glyph name="oslash" format="2">
	<unicode hex="00F8"/>
	<advance width="1255.4"/>
	<outline>
		<contour>
			<point x="746.2" y="1050" type="curve" smooth="yes"/>
			<point x="369.4" y="1050"/>
			<point x="102.8" y="719"/>
			<point x="102.8" y="344" type="curve" smooth="yes"/>
			<point x="102.8" y="132.6"/>
			<point x="235.8" y="-22"/>
			<point x="507.4" y="-22" type="curve" smooth="yes"/>
			<point x="884.2" y="-22"/>
			<point x="1150.8" y="309"/>
			<point x="1150.8" y="684" type="curve" smooth="yes"/>
			<point x="1150.8" y="895.4"/>
			<point x="1017.8" y="1050"/>
		</contour>
		<contour>
			<point x="517.8" y="132.2" type="curve" smooth="yes"/>
			<point x="406.2" y="132.2"/>
			<point x="342.6" y="199.4"/>
			<point x="342.6" y="321.6" type="curve" smooth="yes"/>
			<point x="342.6" y="607.6"/>
			<point x="493.8" y="895.8"/>
			<point x="735.8" y="895.8" type="curve" smooth="yes"/>
			<point x="847.4" y="895.8"/>
			<point x="911" y="828.6"/>
			<point x="911" y="706.4" type="curve" smooth="yes"/>
			<point x="911" y="420.4"/>
			<point x="759.8" y="132.2"/>
		</contour>
		<contour>
			<point x="1130.4" y="1028" type="line"/>
			<point x="974.8" y="893.8" type="line"/>
			<point x="932.8" y="865" type="line"/>
			<point x="232" y="235" type="line"/>
			<point x="183.4" y="206.4" type="line"/>
			<point x="-59.2" y="0" type="line"/>
			<point x="122.4" y="0" type="line"/>
			<point x="278" y="133.4" type="line"/>
			<point x="320" y="163" type="line"/>
			<point x="1021.6" y="793" type="line"/>
			<point x="1070.2" y="821.6" type="line"/>
			<point x="1312" y="1028" type="line"/>
		</contour>
	</outline>
	<anchor name="top" x="776.8" y="1028"/>
	<anchor name="bottom" x="465.6" y="0"/>
</glyph>
<glyph name="thorn" format="2">
	<unicode hex="00FE"/>
	<advance width="1253.2"/>
	<outline>
		<contour>
			<point x="341.4" y="296" type="curve" smooth="yes"/>
			<point x="382.4" y="443.8" type="line" smooth="yes"/>
			<point x="432.8" y="625.6"/>
			<point x="635" y="873.4"/>
			<point x="791.8" y="873.4" type="curve" smooth="yes"/>
			<point x="882.6" y="873.4"/>
			<point x="934.6" y="822"/>
			<point x="934.6" y="688.2" type="curve" smooth="yes"/>
			<point x="934.6" y="416.4"/>
			<point x="756.4" y="101.2"/>
			<point x="522.4" y="101.2" type="curve" smooth="yes"/>
			<point x="395.6" y="101.2"/>
			<point x="332.8" y="160.8"/>
			<point x="332.8" y="240.6" type="curve" smooth="yes"/>
			<point x="332.8" y="257.2"/>
			<point x="335" y="274.2"/>
		</contour>
		<contour>
			<point x="390.8" y="664.8" type="line"/>
			<point x="707.2" y="1486" type="line"/>
			<point x="660.6" y="1486" type="line"/>
			<point x="228.2" y="1410" type="line"/>
			<point x="209.8" y="1332.2" type="line"/>
			<point x="266.8" y="1306.0707664884"/>
			<point x="373" y="1257.1026737968"/>
			<point x="409" y="1240.6" type="curve"/>
			<point x="-58.8" y="-314" type="line"/>
			<point x="-208" y="-352.2" type="line"/>
			<point x="-234.8" y="-443" type="line"/>
			<point x="330.6" y="-443" type="line"/>
			<point x="358.8" y="-352" type="line"/>
			<point x="174.8" y="-313.8" type="line"/>
			<point x="315.2" y="154.8" type="line"/>
			<point x="235.4" y="154.8" type="line"/>
			<point x="251" y="39.8"/>
			<point x="364.6" y="-21.8"/>
			<point x="525.6" y="-21.8" type="curve" smooth="yes"/>
			<point x="894.8" y="-21.8"/>
			<point x="1186.6" y="345.8"/>
			<point x="1186.6" y="737.2" type="curve" smooth="yes"/>
			<point x="1186.6" y="923.6"/>
			<point x="1086.8" y="1050"/>
			<point x="899" y="1050" type="curve" smooth="yes"/>
			<point x="738.4" y="1050"/>
			<point x="583.6" y="940.2"/>
			<point x="416.8" y="664.8" type="curve"/>
		</contour>
	</outline>
</glyph>
<glyph name="Aogonek" format="2">
  <advance width="1626"/>
  <unicode hex="0104"/>
  <outline>
    <contour>
      <point x="406.2" y="456.8" type="line"/>
      <point x="1094.8" y="456.8" type="line"/>
      <point x="1148.6" y="618.2" type="line"/>
      <point x="459.2" y="618.2" type="line"/>
    </contour>
    <contour>
      <point x="1339.0" y="149.0" type="line"/>
      <point x="1229.6000000000001" y="1430.0" type="line"/>
      <point x="905.6" y="1430.0" type="line"/>
      <point x="75.0" y="148.4" type="line"/>
      <point x="-94.0" y="101.60000000000001" type="line"/>
      <point x="-125.80000000000001" y="0.0" type="line"/>
      <point x="409.2" y="0.0" type="line"/>
      <point x="440.0" y="101.60000000000001" type="line"/>
      <point x="280.6" y="148.4" type="line"/>
      <point x="1019.2" y="1325.6000000000001" type="line"/>
      <point x="981.8" y="1323.3999999999999" type="line"/>
      <point x="1067.2" y="148.60000000000002" type="line"/>
      <point x="881.6" y="101.60000000000001" type="line"/>
      <point x="849.6" y="0.0" type="line"/>
      <point x="1471.3999999999999" y="0.0" type="line"/>
      <point x="1503.2" y="101.60000000000001" type="line"/>
    </contour>
    <contour>
      <point x="1067.0" y="-287.59999999999997" type="curve" smooth="yes"/>
      <point x="1067.0" y="-245.2"/>
      <point x="1082.3999999999999" y="-200.79999999999998"/>
      <point x="1159.4" y="-92.39999999999999" type="curve" smooth="yes"/>
      <point x="1260.6000000000001" y="49.0" type="line"/>
      <point x="1181.6000000000001" y="49.0" type="line"/>
      <point x="1080.8" y="-59.199999999999996" type="line" smooth="yes"/>
      <point x="948.4000000000001" y="-201.2"/>
      <point x="919.6" y="-261.2"/>
      <point x="919.6" y="-335.0" type="curve" smooth="yes"/>
      <point x="919.6" y="-406.79999999999995"/>
      <point x="961.1999999999999" y="-465.0"/>
      <point x="1058.8" y="-465.0" type="curve" smooth="yes"/>
      <point x="1124.8" y="-465.0"/>
      <point x="1183.6" y="-450.0"/>
      <point x="1271.6000000000001" y="-395.8" type="curve"/>
      <point x="1271.6" y="-322.6" type="line"/>
      <point x="1217.8" y="-348.8"/>
      <point x="1186.6000000000001" y="-355.0"/>
      <point x="1147.8" y="-355.0" type="curve" smooth="yes"/>
      <point x="1094.0" y="-355.0"/>
      <point x="1067.0" y="-331.0"/>
    </contour>
  </outline>
</glyph>
<glyph name="aogonek" format="2">
	<unicode hex="0105"/>
	<advance width="1366.8"/>
	<outline>
		<contour>
			<point x="1327.2" y="193.4" type="curve"/>
			<point x="1281" y="269.2" type="line"/>
			<point x="1130.8" y="171.2"/>
			<point x="1001.4" y="146.2"/>
			<point x="891.2" y="156.2" type="curve"/>
			<point x="944.4" y="76" type="line"/>
			<point x="1282.2" y="1028" type="line"/>
			<point x="1110.2" y="1028" type="line"/>
			<point x="983.8" y="843.8" type="line"/>
			<point x="945" y="745.6" type="line" smooth="yes"/>
			<point x="835.2" y="459.8"/>
			<point x="567.4" y="141.8"/>
			<point x="419" y="141.8" type="curve" smooth="yes"/>
			<point x="335.2" y="141.8"/>
			<point x="282.8" y="184.6"/>
			<point x="282.8" y="271.8" type="curve" smooth="yes"/>
			<point x="282.8" y="502.4"/>
			<point x="519.2" y="908.6"/>
			<point x="782.8" y="908.6" type="curve" smooth="yes"/>
			<point x="866.4" y="908.6"/>
			<point x="937.6" y="872.4"/>
			<point x="990.8" y="760.6" type="curve"/>
			<point x="999.2" y="820.4" type="line"/>
			<point x="964.4" y="969"/>
			<point x="880" y="1050"/>
			<point x="738.6" y="1050" type="curve" smooth="yes"/>
			<point x="358.8" y="1050"/>
			<point x="40.2" y="570.2"/>
			<point x="40.2" y="235.4" type="curve" smooth="yes"/>
			<point x="40.2" y="66.2"/>
			<point x="159.4" y="-22"/>
			<point x="315.8" y="-22" type="curve" smooth="yes"/>
			<point x="467" y="-22"/>
			<point x="608.6" y="55"/>
			<point x="889.2" y="485.2" type="curve"/>
			<point x="916" y="485.2" type="line"/>
			<point x="768.4" y="105.8" type="line" smooth="yes"/>
			<point x="732.4" y="14.4"/>
			<point x="765" y="-22"/>
			<point x="867.8" y="-22" type="curve" smooth="yes"/>
			<point x="924.4" y="-22"/>
			<point x="1003.2" y="-7.6"/>
			<point x="1105" y="44.6" type="curve"/>
			<point x="1094.2" y="60" type="line"/>
			<point x="959" y="-57.4" type="line" smooth="yes"/>
			<point x="793.4" y="-198"/>
			<point x="759.6" y="-259.2"/>
			<point x="759.6" y="-335" type="curve" smooth="yes"/>
			<point x="759.6" y="-406.8"/>
			<point x="801.2" y="-465"/>
			<point x="898.8" y="-465" type="curve" smooth="yes"/>
			<point x="964.8" y="-465"/>
			<point x="1023.6" y="-450"/>
			<point x="1111.6" y="-395.8" type="curve"/>
			<point x="1111.6" y="-322.6" type="line"/>
			<point x="1057.8" y="-348.8"/>
			<point x="1026.6" y="-355"/>
			<point x="987.8" y="-355" type="curve" smooth="yes"/>
			<point x="934" y="-355"/>
			<point x="907" y="-331"/>
			<point x="907" y="-287.6" type="curve" smooth="yes"/>
			<point x="907" y="-242.8"/>
			<point x="917.2" y="-198.6"/>
			<point x="1029.4" y="-93.8" type="curve" smooth="yes"/>
			<point x="1165.8" y="35" type="line" smooth="yes"/>
			<point x="1219.2" y="85.4"/>
			<point x="1273.4" y="138.6"/>
		</contour>
	</outline>
</glyph>
<glyph name="Dcroat" format="2">
	<unicode hex="0110"/>
	<advance width="1650.4"/>
	<outline>
		<contour>
			<point x="153.2" y="637.2" type="line"/>
			<point x="904" y="637.2" type="line"/>
			<point x="949.6" y="785.6" type="line"/>
			<point x="198.8" y="785.6" type="line"/>
		</contour>
		<contour>
			<point x="664.6" y="163.6" type="curve" smooth="yes"/>
			<point x="313.8" y="163.6" type="line"/>
			<point x="251.6" y="0" type="line"/>
			<point x="668.8" y="0" type="line" smooth="yes"/>
			<point x="1256.6" y="0"/>
			<point x="1604.6" y="356"/>
			<point x="1604.6" y="906" type="curve" smooth="yes"/>
			<point x="1604.6" y="1226.2"/>
			<point x="1434.2" y="1414"/>
			<point x="955.4" y="1414" type="curve" smooth="yes"/>
			<point x="683.6" y="1414" type="line"/>
			<point x="642.2" y="1250.4" type="line"/>
			<point x="938.4" y="1250.4" type="line" smooth="yes"/>
			<point x="1229.4" y="1250.4"/>
			<point x="1333.6" y="1125.4"/>
			<point x="1333.6" y="917" type="curve" smooth="yes"/>
			<point x="1333.6" y="498.8"/>
			<point x="1109.8" y="163.6"/>
		</contour>
		<contour>
			<point x="519.4" y="1265" type="line"/>
			<point x="177" y="149.8" type="line"/>
			<point x="-10.2" y="101.6" type="line"/>
			<point x="-41.6" y="0" type="line"/>
			<point x="399.6" y="0" type="line"/>
			<point x="832.6" y="1414" type="line"/>
			<point x="375" y="1414" type="line"/>
			<point x="343.8" y="1312.4" type="line"/>
		</contour>
	</outline>
</glyph>
<glyph name="dcroat" format="2">
	<unicode hex="0111"/>
	<advance width="1357"/>
	<outline>
		<contour>
			<point x="990.4" y="760.6" type="curve"/>
			<point x="998.8" y="820.4" type="line"/>
			<point x="964" y="969"/>
			<point x="880" y="1050"/>
			<point x="738.6" y="1050" type="curve" smooth="yes"/>
			<point x="358.8" y="1050"/>
			<point x="40.2" y="570.2"/>
			<point x="40.2" y="235.4" type="curve" smooth="yes"/>
			<point x="40.2" y="66.2"/>
			<point x="159.4" y="-22"/>
			<point x="315.4" y="-22" type="curve" smooth="yes"/>
			<point x="466.6" y="-22"/>
			<point x="608.2" y="55"/>
			<point x="888.8" y="485.2" type="curve"/>
			<point x="915.6" y="485.2" type="line"/>
			<point x="768.4" y="105" type="line" smooth="yes"/>
			<point x="732.8" y="13.4"/>
			<point x="766.8" y="-22"/>
			<point x="869.6" y="-22" type="curve" smooth="yes"/>
			<point x="965" y="-22"/>
			<point x="1115.6" y="17.8"/>
			<point x="1329" y="193.4" type="curve"/>
			<point x="1282.8" y="269.2" type="line"/>
			<point x="1132.6" y="171.2"/>
			<point x="1003.2" y="146.2"/>
			<point x="893" y="156.2" type="curve"/>
			<point x="946.2" y="76" type="line"/>
			<point x="1423.8" y="1486" type="line"/>
			<point x="1377.2" y="1486" type="line"/>
			<point x="967" y="1424.8" type="line"/>
			<point x="948.6" y="1347" type="line"/>
			<point x="999" y="1324.6060606061"/>
			<point x="1086.4" y="1287.8909090909"/>
			<point x="1119.2" y="1272.4" type="curve"/>
			<point x="967.8" y="803.6" type="line" smooth="yes"/>
			<point x="864" y="473.4"/>
			<point x="571" y="141.8"/>
			<point x="418.6" y="141.8" type="curve" smooth="yes"/>
			<point x="334.8" y="141.8"/>
			<point x="282.4" y="184.6"/>
			<point x="282.4" y="271.8" type="curve" smooth="yes"/>
			<point x="282.4" y="502.4"/>
			<point x="518.8" y="908.6"/>
			<point x="782.4" y="908.6" type="curve" smooth="yes"/>
			<point x="866.2" y="908.6"/>
			<point x="937" y="872.8"/>
		</contour>
		<contour>
			<point x="773.2" y="1146" type="line"/>
			<point x="1508" y="1146" type="line"/>
			<point x="1544.6" y="1268" type="line"/>
			<point x="809.8" y="1268" type="line"/>
		</contour>
	</outline>
</glyph>
<glyph name="Eogonek" format="2">
	<unicode hex="0118"/>
	<advance width="1484.8"/>
	<outline>
		<contour>
			<point x="516" y="1265" type="line"/>
			<point x="173.6" y="149.8" type="line"/>
			<point x="-13.6" y="101.6" type="line"/>
			<point x="-45" y="0" type="line"/>
			<point x="396.2" y="0" type="line"/>
			<point x="829.2" y="1414" type="line"/>
			<point x="371.6" y="1414" type="line"/>
			<point x="340.4" y="1312.4" type="line"/>
		</contour>
		<contour>
			<point x="884.8" y="480" type="line"/>
			<point x="1018.4" y="480" type="line"/>
			<point x="1096.4" y="735" type="line"/>
			<point x="1174.4" y="990" type="line"/>
			<point x="1040.8" y="990" type="line"/>
			<point x="971.4" y="815.8" type="line"/>
			<point x="503.2" y="815.8" type="line"/>
			<point x="453.8" y="658.2" type="line"/>
			<point x="923.2" y="658.2" type="line"/>
		</contour>
		<contour>
			<point x="1486.4" y="1031.8" type="line"/>
			<point x="1619" y="1489.6" type="line"/>
			<point x="1508" y="1489.6" type="line"/>
			<point x="1399.2" y="1414" type="line"/>
			<point x="685.4" y="1414" type="line"/>
			<point x="633.8" y="1250.4" type="line"/>
			<point x="1402.8" y="1250.4" type="line"/>
			<point x="1357.2" y="1339.4" type="line"/>
			<point x="1341.2" y="1031.8" type="line"/>
		</contour>
		<contour>
			<point x="992.2" y="-78.2" type="line"/>
			<point x="1120.4" y="-78.2" type="line"/>
			<point x="1397.2" y="436.2" type="line"/>
			<point x="1250.2" y="436.2" type="line"/>
			<point x="919.6" y="76" type="line"/>
			<point x="1062.2" y="163.6" type="line"/>
			<point x="305.4" y="163.6" type="line"/>
			<point x="253.4" y="0" type="line"/>
			<point x="955" y="0" type="line"/>
		</contour>
		<contour>
			<point x="826.8" y="-287.6" type="curve" smooth="yes"/>
			<point x="826.8" y="-245.2"/>
			<point x="835" y="-207.8"/>
			<point x="916.4" y="-100.8" type="curve" smooth="yes"/>
			<point x="1032.2" y="49" type="line"/>
			<point x="953.2" y="49" type="line"/>
			<point x="837.6" y="-66.8" type="line" smooth="yes"/>
			<point x="699.6" y="-204.8"/>
			<point x="679.4" y="-258.8"/>
			<point x="679.4" y="-335" type="curve" smooth="yes"/>
			<point x="679.4" y="-406.8"/>
			<point x="721" y="-465"/>
			<point x="818.6" y="-465" type="curve" smooth="yes"/>
			<point x="884.6" y="-465"/>
			<point x="943.4" y="-450"/>
			<point x="1031.4" y="-395.8" type="curve"/>
			<point x="1031.4" y="-322.6" type="line"/>
			<point x="977.6" y="-348.8"/>
			<point x="946.4" y="-355"/>
			<point x="907.6" y="-355" type="curve" smooth="yes"/>
			<point x="853.8" y="-355"/>
			<point x="826.8" y="-331"/>
		</contour>
	</outline>
</glyph>
<glyph name="eogonek" format="2">
	<unicode hex="0119"/>
	<advance width="1096.6"/>
	<outline>
		<contour>
			<point x="862.6" y="184.2" type="line" smooth="yes"/>
			<point x="900.2" y="231.4"/>
			<point x="932.6" y="285.4"/>
			<point x="964.4" y="351.6" type="curve"/>
			<point x="860.2" y="351.6" type="line"/>
			<point x="767.4" y="208.6"/>
			<point x="652.8" y="152.6"/>
			<point x="523" y="152.6" type="curve" smooth="yes"/>
			<point x="376.2" y="152.6"/>
			<point x="317.2" y="209.6"/>
			<point x="317.2" y="393.2" type="curve" smooth="yes"/>
			<point x="317.2" y="725.4"/>
			<point x="500.6" y="921.8"/>
			<point x="700.2" y="921.8" type="curve" smooth="yes"/>
			<point x="794" y="921.8"/>
			<point x="841.8" y="869.8"/>
			<point x="841.8" y="787.8" type="curve" smooth="yes"/>
			<point x="841.8" y="677.6"/>
			<point x="827.2" y="645.8"/>
			<point x="283.8" y="555.8" type="curve"/>
			<point x="276.8" y="455" type="line"/>
			<point x="496.2" y="476.8"/>
			<point x="757.4" y="519.2"/>
			<point x="998" y="585.2" type="curve"/>
			<point x="1035.4" y="648.2"/>
			<point x="1056.8" y="725.8"/>
			<point x="1056.8" y="795" type="curve" smooth="yes"/>
			<point x="1056.8" y="937.2"/>
			<point x="970.4" y="1050"/>
			<point x="745.2" y="1050" type="curve" smooth="yes"/>
			<point x="355.8" y="1050"/>
			<point x="78.6" y="742.8"/>
			<point x="78.6" y="334" type="curve" smooth="yes"/>
			<point x="78.6" y="97.4"/>
			<point x="198.8" y="-22"/>
			<point x="448.8" y="-22" type="curve" smooth="yes"/>
			<point x="534.2" y="-22"/>
			<point x="615.4" y="-5.8"/>
			<point x="691" y="34.8" type="curve"/>
			<point x="670" y="61.2" type="line"/>
			<point x="587.2" y="-30.4" type="line" smooth="yes"/>
			<point x="438.6" y="-190.6"/>
			<point x="405.2" y="-258.4"/>
			<point x="405.2" y="-335" type="curve" smooth="yes"/>
			<point x="405.2" y="-406.8"/>
			<point x="446.8" y="-465"/>
			<point x="544.4" y="-465" type="curve" smooth="yes"/>
			<point x="610.4" y="-465"/>
			<point x="669.2" y="-450"/>
			<point x="757.2" y="-395.8" type="curve"/>
			<point x="757.2" y="-322.6" type="line"/>
			<point x="703.4" y="-348.8"/>
			<point x="672.2" y="-355"/>
			<point x="633.4" y="-355" type="curve" smooth="yes"/>
			<point x="579.6" y="-355"/>
			<point x="552.6" y="-331"/>
			<point x="552.6" y="-287.6" type="curve" smooth="yes"/>
			<point x="552.6" y="-245.2"/>
			<point x="569" y="-183.2"/>
			<point x="662.8" y="-66" type="curve" smooth="yes"/>
		</contour>
	</outline>
</glyph>
<glyph name="Hbar" format="2">
	<unicode hex="0126"/>
	<advance width="1774.4"/>
	<outline>
		<contour>
			<point x="447.8" y="638.8" type="line"/>
			<point x="1403.8" y="638.8" type="line"/>
			<point x="1449.8" y="802.4" type="line"/>
			<point x="494.8" y="802.4" type="line"/>
		</contour>
		<contour>
			<point x="259.8" y="989.8" type="line"/>
			<point x="1814" y="989.8" type="line"/>
			<point x="1859.6" y="1138.2" type="line"/>
			<point x="305.4" y="1138.2" type="line"/>
		</contour>
		<contour>
			<point x="518.4" y="1265" type="line"/>
			<point x="176" y="149.8" type="line"/>
			<point x="-11.2" y="101.6" type="line"/>
			<point x="-42.6" y="0" type="line"/>
			<point x="588.2" y="0" type="line"/>
			<point x="618.4" y="101.6" type="line"/>
			<point x="443.8" y="149" type="line"/>
			<point x="786.2" y="1264.2" type="line"/>
			<point x="973.4" y="1312.4" type="line"/>
			<point x="1003.6" y="1414" type="line"/>
			<point x="374" y="1414" type="line"/>
			<point x="342.8" y="1312.4" type="line"/>
		</contour>
		<contour>
			<point x="1445.4" y="1265" type="line"/>
			<point x="1103.2" y="149.8" type="line"/>
			<point x="915.8" y="101.6" type="line"/>
			<point x="885.6" y="0" type="line"/>
			<point x="1515.2" y="0" type="line"/>
			<point x="1546.6" y="101.6" type="line"/>
			<point x="1370.8" y="149" type="line"/>
			<point x="1713.2" y="1264.2" type="line"/>
			<point x="1900.4" y="1312.4" type="line"/>
			<point x="1930.8" y="1414" type="line"/>
			<point x="1301" y="1414" type="line"/>
			<point x="1270.8" y="1312.4" type="line"/>
		</contour>
	</outline>
</glyph>
<glyph name="hbar" format="2">
	<unicode hex="0127"/>
	<advance width="1353.8"/>
	<outline>
		<contour>
			<point x="355.8" y="228.2" type="line"/>
			<point x="476.6" y="600.4"/>
			<point x="681" y="852"/>
			<point x="870.2" y="852" type="curve" smooth="yes"/>
			<point x="934.2" y="852"/>
			<point x="963.6" y="826.4"/>
			<point x="963.6" y="785" type="curve" smooth="yes"/>
			<point x="963.6" y="756.2"/>
			<point x="954.8" y="718.6"/>
			<point x="920.8" y="636.6" type="curve" smooth="yes"/>
			<point x="704.6" y="124.4" type="line" smooth="yes"/>
			<point x="660.8" y="19.2"/>
			<point x="703.2" y="-22"/>
			<point x="797.8" y="-22" type="curve" smooth="yes"/>
			<point x="923.8" y="-22"/>
			<point x="1086.2" y="21.8"/>
			<point x="1311.2" y="189.8" type="curve"/>
			<point x="1262.8" y="269.8" type="line"/>
			<point x="1099.4" y="183.8"/>
			<point x="987.4" y="154.4"/>
			<point x="883" y="162.2" type="curve"/>
			<point x="925.4" y="86.2" type="line"/>
			<point x="1144.2" y="605.2" type="line" smooth="yes"/>
			<point x="1198.2" y="734.4"/>
			<point x="1212.8" y="804.6"/>
			<point x="1212.8" y="860.6" type="curve" smooth="yes"/>
			<point x="1212.8" y="968"/>
			<point x="1143" y="1050"/>
			<point x="992.8" y="1050" type="curve" smooth="yes"/>
			<point x="769.6" y="1050"/>
			<point x="588.8" y="916.8"/>
			<point x="369.2" y="463" type="curve"/>
			<point x="331.4" y="463" type="line"/>
			<point x="725.2" y="1486" type="line"/>
			<point x="678.6" y="1486" type="line"/>
			<point x="257.8" y="1424.8" type="line"/>
			<point x="239.4" y="1347" type="line"/>
			<point x="296.4" y="1321.6118858488"/>
			<point x="382.4" y="1286.8345984113"/>
			<point x="418.4" y="1270.8" type="curve"/>
			<point x="35.2" y="0" type="line"/>
			<point x="281.8" y="0" type="line"/>
		</contour>
		<contour>
			<point x="185.2" y="1146" type="line"/>
			<point x="920" y="1146" type="line"/>
			<point x="956.6" y="1268" type="line"/>
			<point x="221.8" y="1268" type="line"/>
		</contour>
	</outline>
</glyph>
<glyph name="Iogonek" format="2">
	<unicode hex="012E"/>
	<advance width="841.8"/>
	<outline>
		<contour>
			<point x="516" y="1265" type="line"/>
			<point x="173.6" y="149.8" type="line"/>
			<point x="-13.6" y="101.6" type="line"/>
			<point x="-45" y="0" type="line"/>
			<point x="585.8" y="0" type="line"/>
			<point x="616" y="101.6" type="line"/>
			<point x="441.4" y="149" type="line"/>
			<point x="783.8" y="1264.2" type="line"/>
			<point x="971" y="1312.4" type="line"/>
			<point x="1001.2" y="1414" type="line"/>
			<point x="371.6" y="1414" type="line"/>
			<point x="340.4" y="1312.4" type="line"/>
		</contour>
		<contour>
			<point x="136.2" y="-287.6" type="curve" smooth="yes"/>
			<point x="136.2" y="-245.2"/>
			<point x="149.8" y="-201.4"/>
			<point x="236" y="-94.4" type="curve" smooth="yes"/>
			<point x="352" y="49.2" type="line"/>
			<point x="273" y="49.2" type="line"/>
			<point x="158.8" y="-60.2" type="line" smooth="yes"/>
			<point x="15.6" y="-196.8"/>
			<point x="-11.2" y="-259.2"/>
			<point x="-11.2" y="-335" type="curve" smooth="yes"/>
			<point x="-11.2" y="-406.8"/>
			<point x="30.4" y="-465"/>
			<point x="128" y="-465" type="curve" smooth="yes"/>
			<point x="194" y="-465"/>
			<point x="252.8" y="-450"/>
			<point x="340.8" y="-395.8" type="curve"/>
			<point x="340.8" y="-322.6" type="line"/>
			<point x="287" y="-348.8"/>
			<point x="255.8" y="-355"/>
			<point x="217" y="-355" type="curve" smooth="yes"/>
			<point x="163.2" y="-355"/>
			<point x="136.2" y="-331"/>
		</contour>
	</outline>
</glyph>
<glyph name="iogonek" format="2">
	<unicode hex="012F"/>
	<advance width="790.6"/>
	<outline>
		<contour>
			<point x="488" y="1318.2" type="curve" smooth="yes"/>
			<point x="488" y="1246.2"/>
			<point x="541.4" y="1202.4"/>
			<point x="654.4" y="1202.4" type="curve" smooth="yes"/>
			<point x="794.6" y="1202.4"/>
			<point x="859.6" y="1273"/>
			<point x="859.6" y="1370.2" type="curve" smooth="yes"/>
			<point x="859.6" y="1442.2"/>
			<point x="806.2" y="1486"/>
			<point x="693.2" y="1486" type="curve" smooth="yes"/>
			<point x="553" y="1486"/>
			<point x="488" y="1415.4"/>
		</contour>
		<contour>
			<point x="537.4" y="58.8" type="line" smooth="yes"/>
			<point x="607" y="105.2"/>
			<point x="668" y="147.2"/>
			<point x="720.8" y="187.6" type="curve"/>
			<point x="672.8" y="267.6" type="line"/>
			<point x="535.2" y="179.8"/>
			<point x="412.4" y="156"/>
			<point x="298.2" y="163.8" type="curve"/>
			<point x="352.4" y="86.2" type="line"/>
			<point x="660" y="863" type="line" smooth="yes"/>
			<point x="713.8" y="998.2"/>
			<point x="682.4" y="1050"/>
			<point x="559.4" y="1050" type="curve" smooth="yes"/>
			<point x="455" y="1050"/>
			<point x="300.6" y="1013.2"/>
			<point x="48" y="816" type="curve"/>
			<point x="101.4" y="736.2" type="line"/>
			<point x="272.4" y="844.2"/>
			<point x="393.2" y="872.4"/>
			<point x="503.2" y="866" type="curve"/>
			<point x="453.8" y="942" type="line"/>
			<point x="146.4" y="165" type="line" smooth="yes"/>
			<point x="86.8" y="15.6"/>
			<point x="116.6" y="-22"/>
			<point x="229.4" y="-22" type="curve" smooth="yes"/>
			<point x="268.8" y="-22"/>
			<point x="312.6" y="-16.8"/>
			<point x="362.4" y="-4.2" type="curve"/>
			<point x="355.8" y="7.8" type="line"/>
			<point x="242.8" y="-62" type="line" smooth="yes"/>
			<point x="56" y="-173"/>
			<point x="20" y="-259.6"/>
			<point x="20" y="-335" type="curve" smooth="yes"/>
			<point x="20" y="-406.8"/>
			<point x="61.6" y="-465"/>
			<point x="159.2" y="-465" type="curve" smooth="yes"/>
			<point x="225.2" y="-465"/>
			<point x="284" y="-450"/>
			<point x="372" y="-395.8" type="curve"/>
			<point x="372" y="-322.6" type="line"/>
			<point x="318.2" y="-348.8"/>
			<point x="287" y="-355"/>
			<point x="248.2" y="-355" type="curve" smooth="yes"/>
			<point x="194.4" y="-355"/>
			<point x="167.4" y="-331"/>
			<point x="167.4" y="-287.6" type="curve" smooth="yes"/>
			<point x="167.4" y="-222"/>
			<point x="205.4" y="-160.6"/>
			<point x="314" y="-89" type="curve" smooth="yes"/>
		</contour>
	</outline>
</glyph>
<glyph name="dotlessi" format="2">
  <advance width="786"/>
  <unicode hex="0131"/>
  <anchor x="567.8000000000001" y="1032.8" name="top"/>
  <anchor x="454.0" y="0.0" name="right"/>
  <anchor x="254.2" y="0.0" name="bottom"/>
  <outline>
    <contour>
      <point x="146.4" y="165.0" type="line" smooth="yes"/>
      <point x="86.8" y="15.6"/>
      <point x="116.60000000000001" y="-22.0"/>
      <point x="229.4" y="-22.0" type="curve" smooth="yes"/>
      <point x="347.4" y="-22.0"/>
      <point x="505.6" y="21.799999999999997"/>
      <point x="720.8" y="187.6" type="curve"/>
      <point x="672.8" y="267.59999999999997" type="line"/>
      <point x="535.2" y="179.8"/>
      <point x="412.4" y="156.0"/>
      <point x="298.2" y="163.79999999999998" type="curve"/>
      <point x="352.40000000000003" y="86.2" type="line"/>
      <point x="660.0" y="863.0" type="line" smooth="yes"/>
      <point x="713.8" y="998.2"/>
      <point x="682.4000000000001" y="1050.0"/>
      <point x="559.4" y="1050.0" type="curve" smooth="yes"/>
      <point x="455.0" y="1050.0"/>
      <point x="300.59999999999997" y="1013.1999999999999"/>
      <point x="48.0" y="816.0" type="curve"/>
      <point x="101.4" y="736.2" type="line"/>
      <point x="272.40000000000003" y="844.2"/>
      <point x="393.2" y="872.4"/>
      <point x="503.2" y="866.0" type="curve"/>
      <point x="453.8" y="942.0" type="line"/>
    </contour>
  </outline>
</glyph>
<glyph name="kgreenlandic" format="2">
	<unicode hex="0138"/>
	<advance width="1369.6"/>
	<outline>
		<contour>
			<point x="680.8" y="1040.8" type="line"/>
			<point x="632.4" y="1047"/>
			<point x="583.4" y="1050"/>
			<point x="531.6" y="1050" type="curve" smooth="yes"/>
			<point x="265.4" y="1050"/>
			<point x="138.6" y="979.2"/>
			<point x="67.2" y="717.8" type="curve"/>
			<point x="84.6" y="712.2" type="line"/>
			<point x="164.4" y="821.2"/>
			<point x="247.6" y="855.8"/>
			<point x="377.8" y="855.8" type="curve" smooth="yes"/>
			<point x="381.4" y="855.8"/>
			<point x="385.6" y="855.8"/>
			<point x="388" y="855.8" type="curve"/>
			<point x="124.8" y="0" type="line"/>
			<point x="362.6" y="0" type="line"/>
		</contour>
		<contour>
			<point x="1211" y="731.8" type="curve" smooth="yes"/>
			<point x="1271.2" y="731.8"/>
			<point x="1379" y="784.2"/>
			<point x="1379" y="913.8" type="curve" smooth="yes"/>
			<point x="1379" y="991"/>
			<point x="1327" y="1050"/>
			<point x="1214.8" y="1050" type="curve" smooth="yes"/>
			<point x="1082.4" y="1050"/>
			<point x="955.2" y="966.4"/>
			<point x="525.6" y="545.8" type="curve"/>
			<point x="513.4" y="517.8" type="line"/>
			<point x="687.2" y="80.6"/>
			<point x="796.8" y="-22"/>
			<point x="917.6" y="-22" type="curve" smooth="yes"/>
			<point x="1004.6" y="-22"/>
			<point x="1125" y="40.8"/>
			<point x="1293" y="244" type="curve"/>
			<point x="1234.6" y="305.4" type="line"/>
			<point x="1135.8" y="202.8"/>
			<point x="1084.6" y="159.2"/>
			<point x="1037.6" y="159.2" type="curve" smooth="yes"/>
			<point x="959.8" y="159.2"/>
			<point x="892.2" y="232.2"/>
			<point x="707.4" y="634.6" type="curve"/>
			<point x="636.4" y="523.4" type="line"/>
			<point x="976.6" y="827.4"/>
			<point x="1036.8" y="864.8"/>
			<point x="1088" y="864.8" type="curve" smooth="yes"/>
			<point x="1107.2" y="864.8"/>
			<point x="1132" y="836"/>
			<point x="1156" y="802.4" type="curve" smooth="yes"/>
			<point x="1180" y="768.8"/>
			<point x="1203" y="731.8"/>
		</contour>
	</outline>
</glyph>
<glyph name="Lslash" format="2">
	<unicode hex="0141"/>
	<advance width="1363.2"/>
	<outline>
		<contour>
			<point x="808" y="1264.2" type="line"/>
			<point x="995.2" y="1312.4" type="line"/>
			<point x="1025.4" y="1414" type="line"/>
			<point x="395.8" y="1414" type="line"/>
			<point x="364.6" y="1312.4" type="line"/>
			<point x="540.2" y="1265" type="line"/>
			<point x="197.8" y="149.8" type="line"/>
			<point x="10.6" y="101.6" type="line"/>
			<point x="-20.8" y="0" type="line"/>
			<point x="420.4" y="0" type="line"/>
		</contour>
		<contour>
			<point x="858.8" y="80" type="line"/>
			<point x="988.4" y="163.6" type="line"/>
			<point x="226.6" y="163.6" type="line"/>
			<point x="174.6" y="0" type="line"/>
			<point x="892" y="0" type="line"/>
			<point x="937.2" y="-78.2" type="line"/>
			<point x="1065.4" y="-78.2" type="line"/>
			<point x="1299.4" y="482" type="line"/>
			<point x="1152" y="482" type="line"/>
		</contour>
		<contour>
			<point x="1071" y="1001" type="line"/>
			<point x="599.6" y="779" type="line"/>
			<point x="480.8" y="763" type="line"/>
			<point x="171.6" y="618.2" type="line"/>
			<point x="118.8" y="446.8" type="line"/>
			<point x="428.8" y="591.6" type="line"/>
			<point x="546.8" y="607.6" type="line"/>
			<point x="1019" y="829.6" type="line"/>
		</contour>
	</outline>
</glyph>
